/* XPM */
static char * C:\Users\joaoc\Downloads\MINIX_LCOM\MINIX_LCOM\shared\proj\screens\XPM\Score\score_100_XPM[] = {
"61 26 535 2",
"  	c None",
". 	c #000000",
"+ 	c #060510",
"@ 	c #1C1935",
"# 	c #2D2A52",
"$ 	c #2E2C54",
"% 	c #2C2950",
"& 	c #2B284E",
"* 	c #2B274D",
"= 	c #2A264B",
"- 	c #272346",
"; 	c #232041",
"> 	c #221E3E",
", 	c #1B1833",
"' 	c #010103",
") 	c #16142C",
"! 	c #2F2B52",
"~ 	c #332E55",
"{ 	c #302C52",
"] 	c #2E294F",
"^ 	c #2C284D",
"/ 	c #2B274C",
"( 	c #272448",
"_ 	c #100E22",
": 	c #000001",
"< 	c #110F23",
"[ 	c #2C274E",
"} 	c #322B53",
"| 	c #2E2950",
"1 	c #2D284E",
"2 	c #2C274D",
"3 	c #262346",
"4 	c #141228",
"5 	c #020206",
"6 	c #131128",
"7 	c #282448",
"8 	c #2E345D",
"9 	c #255B8B",
"0 	c #206EA1",
"a 	c #216B9D",
"b 	c #226597",
"c 	c #245D8E",
"d 	c #275584",
"e 	c #275382",
"f 	c #28507E",
"g 	c #2D3964",
"h 	c #2C284F",
"i 	c #04030C",
"j 	c #1A1833",
"k 	c #322D52",
"l 	c #806B45",
"m 	c #B29337",
"n 	c #AE8F3A",
"o 	c #A88B3B",
"p 	c #9D823D",
"q 	c #8F7741",
"r 	c #5D4F4E",
"s 	c #2A274C",
"t 	c #0B091A",
"u 	c #010102",
"v 	c #2E284F",
"w 	c #682B4B",
"x 	c #A3283A",
"y 	c #A0283D",
"z 	c #9B293E",
"A 	c #922940",
"B 	c #862A43",
"C 	c #632B4C",
"D 	c #2D284F",
"E 	c #0E0C20",
"F 	c #010002",
"G 	c #211E3E",
"H 	c #2E2D55",
"I 	c #2A4B78",
"J 	c #177DB4",
"K 	c #0398D5",
"L 	c #019BD9",
"M 	c #019AD8",
"N 	c #029AD7",
"O 	c #0399D6",
"P 	c #0497D4",
"Q 	c #245686",
"R 	c #020207",
"S 	c #03030A",
"T 	c #1E1B38",
"U 	c #363053",
"V 	c #927940",
"W 	c #EEC30F",
"X 	c #FBCE01",
"Y 	c #FACE01",
"Z 	c #F9CD02",
"` 	c #F8CC04",
" .	c #D9B31F",
"..	c #594B4F",
"+.	c #272447",
"@.	c #060512",
"#.	c #010104",
"$.	c #191630",
"%.	c #302951",
"&.	c #762A48",
"*.	c #D2241F",
"=.	c #E52310",
"-.	c #E52311",
";.	c #E42311",
">.	c #E32312",
",.	c #E22313",
"'.	c #D12520",
").	c #632B4D",
"!.	c #090817",
"~.	c #05040E",
"{.	c #1A1832",
"].	c #2D3C67",
"^.	c #1F6C9F",
"/.	c #0892CE",
"(.	c #009CDA",
"_.	c #284B78",
":.	c #272347",
"<.	c #05040F",
"[.	c #3D3653",
"}.	c #A3873B",
"|.	c #F2C70B",
"1.	c #FCCF00",
"2.	c #FBCF01",
"3.	c #CBA827",
"4.	c #483F52",
"5.	c #352B52",
"6.	c #D7241C",
"7.	c #E62310",
"8.	c #C72526",
"9.	c #522C50",
"0.	c #262245",
"a.	c #050510",
"b.	c #020105",
"c.	c #121025",
"d.	c #2E325C",
"e.	c #265A89",
"f.	c #1088C2",
"g.	c #2C416C",
"h.	c #221F3F",
"i.	c #03030B",
"j.	c #242143",
"k.	c #433B52",
"l.	c #B29334",
"m.	c #F6CA06",
"n.	c #FACD02",
"o.	c #B89831",
"p.	c #3E3653",
"q.	c #1E1C39",
"r.	c #1F1C3A",
"s.	c #392B53",
"t.	c #93293F",
"u.	c #DD2417",
"v.	c #B9262E",
"w.	c #452C52",
"x.	c #211F3F",
"y.	c #2E2B53",
"z.	c #2B4874",
"A.	c #187AB0",
"B.	c #0693CF",
"C.	c #2E3A64",
"D.	c #1D1B37",
"E.	c #0D0B1D",
"F.	c #312D54",
"G.	c #B39432",
"H.	c #F8CB04",
"I.	c #A2863A",
"J.	c #353053",
"K.	c #2D2950",
"L.	c #90293F",
"M.	c #E02315",
"N.	c #A82836",
"O.	c #3A2C53",
"P.	c #1D1A37",
"Q.	c #2F335D",
"R.	c #1183BC",
"S.	c #009BD9",
"T.	c #0A8FC9",
"U.	c #30335D",
"V.	c #18162F",
"W.	c #141128",
"X.	c #393354",
"Y.	c #E0B81B",
"Z.	c #F3C80A",
"`.	c #8E7641",
" +	c #302C51",
".+	c #312B53",
"++	c #BA262E",
"@+	c #97293D",
"#+	c #332B53",
"$+	c #18152E",
"%+	c #255C8C",
"&+	c #1088C1",
"*+	c #303059",
"=+	c #181630",
"-+	c #EDC311",
";+	c #FACD01",
">+	c #ECC211",
",+	c #6B5A4B",
"'+	c #2E2A52",
")+	c #392C55",
"!+	c #C92525",
"~+	c #DE2416",
"{+	c #7A2A47",
"]+	c #2F2F58",
"^+	c #1B72A7",
"/+	c #0497D3",
"(+	c #0C8DC8",
"_+	c #177FB6",
":+	c #2F2C55",
"<+	c #0C0A1B",
"[+	c #201D3B",
"}+	c #564950",
"|+	c #F4C80A",
"1+	c #F1C60C",
"2+	c #AB8D38",
"3+	c #D0AC25",
"4+	c #F3C80B",
"5+	c #8D7542",
"6+	c #302C56",
"7+	c #3F2D55",
"8+	c #D2251E",
"9+	c #E12314",
"0+	c #A12839",
"a+	c #B8262F",
"b+	c #DB2419",
"c+	c #9F283B",
"d+	c #2E3964",
"e+	c #1186BF",
"f+	c #265887",
"g+	c #2B4572",
"h+	c #0496D3",
"i+	c #1A74A9",
"j+	c #060511",
"k+	c #232042",
"l+	c #6E5C4B",
"m+	c #F7CB04",
"n+	c #D8B21F",
"o+	c #383255",
"p+	c #453C52",
"q+	c #826C45",
"r+	c #EEC40E",
"s+	c #7C6847",
"t+	c #312D57",
"u+	c #4D2C52",
"v+	c #DA2417",
"w+	c #D3241C",
"x+	c #3E2C54",
"y+	c #3D2C54",
"z+	c #6C2B4A",
"A+	c #CF2521",
"B+	c #8F2940",
"C+	c #080715",
"D+	c #0C8BC6",
"E+	c #1E6FA3",
"F+	c #2D3D67",
"G+	c #2F2C54",
"H+	c #2E3762",
"I+	c #0694D0",
"J+	c #206395",
"K+	c #28254A",
"L+	c #7F6A46",
"M+	c #BE9D29",
"N+	c #312C54",
"O+	c #201D3C",
"P+	c #DCB51F",
"Q+	c #F7CB07",
"R+	c #61524E",
"S+	c #592C4F",
"T+	c #E02313",
"U+	c #C22525",
"V+	c #342C55",
"W+	c #1F1C39",
"X+	c #312B54",
"Y+	c #B42731",
"Z+	c #E62311",
"`+	c #722A47",
" @	c #131026",
".@	c #2C3F6B",
"+@	c #2E2E56",
"@@	c #2D3762",
"#@	c #009CD9",
"$@	c #245888",
"%@	c #29264A",
"&@	c #030309",
"*@	c #2B284F",
"=@	c #967C3B",
"-@	c #FBCE00",
";@	c #A28734",
">@	c #2C2951",
",@	c #332E54",
"'@	c #D4AF24",
")@	c #F1C60D",
"!@	c #504551",
"~@	c #302D56",
"{@	c #6F2A47",
"]@	c #AF272F",
"^@	c #2F2B54",
"/@	c #2E2951",
"(@	c #AB2737",
"_@	c #5F2B4B",
":@	c #1B1935",
"<@	c #15132B",
"[@	c #019AD7",
"}@	c #294976",
"|@	c #070613",
"1@	c #2D2952",
"2@	c #AA8D31",
"3@	c #887240",
"4@	c #2A264D",
"5@	c #312D53",
"6@	c #CDA926",
"7@	c #E5BC16",
"8@	c #3C3654",
"9@	c #832940",
"0@	c #9B283A",
"a@	c #2D2951",
"b@	c #A52838",
"c@	c #E72310",
"d@	c #DB2417",
"e@	c #482C51",
"f@	c #1D1A36",
"g@	c #04030D",
"h@	c #0397D4",
"i@	c #2C406B",
"j@	c #221F3E",
"k@	c #0B0A1B",
"l@	c #C1A027",
"m@	c #F8CC03",
"n@	c #725F4A",
"o@	c #262246",
"p@	c #090717",
"q@	c #BF9E2A",
"r@	c #FDCF00",
"s@	c #D6B01D",
"t@	c #353056",
"u@	c #312D56",
"v@	c #9B2839",
"w@	c #882A43",
"x@	c #2C284E",
"y@	c #98283B",
"z@	c #D2251C",
"A@	c #16142D",
"B@	c #0692CE",
"C@	c #2E3963",
"D@	c #100E23",
"E@	c #353054",
"F@	c #D9B31E",
"G@	c #736149",
"H@	c #211D3D",
"I@	c #352F54",
"J@	c #BA992B",
"K@	c #BB9B29",
"L@	c #322D56",
"M@	c #B32731",
"N@	c #852A43",
"O@	c #2E2A51",
"P@	c #1D1B38",
"Q@	c #302B53",
"R@	c #94293C",
"S@	c #C22626",
"T@	c #0B8DC8",
"U@	c #30325C",
"V@	c #3F3853",
"W@	c #E6BD17",
"X@	c #FBCF00",
"Y@	c #6C5A4B",
"Z@	c #463D53",
"`@	c #9F843C",
" #	c #EFC40E",
".#	c #A88C33",
"+#	c #302C57",
"@#	c #352D56",
"##	c #C2262A",
"$#	c #D02521",
"%#	c #732A49",
"&#	c #3F2C54",
"*#	c #842A44",
"=#	c #D3241E",
"-#	c #B5272E",
";#	c #302B54",
">#	c #04030B",
",#	c #1187C0",
"'#	c #302F59",
")#	c #04040D",
"!#	c #070612",
"~#	c #0E0C1E",
"{#	c #211E3C",
"]#	c #4F4451",
"^#	c #E6BD16",
"/#	c #D0AC24",
"(#	c #F7CB05",
"_#	c #8F7740",
":#	c #2F2C56",
"<#	c #3C2C55",
"[#	c #D8241B",
"}#	c #BB262D",
"|#	c #DF2416",
"1#	c #A1283A",
"2#	c #0B0919",
"3#	c #252144",
"4#	c #242142",
"5#	c #211E3D",
"6#	c #177DB5",
"7#	c #302D57",
"8#	c #252143",
"9#	c #29254A",
"0#	c #2E2F58",
"a#	c #302C55",
"b#	c #4D4252",
"c#	c #E7BF16",
"d#	c #7D6847",
"e#	c #3B2C55",
"f#	c #C52627",
"g#	c #902940",
"h#	c #265584",
"i#	c #265786",
"j#	c #2A4875",
"k#	c #2B4571",
"l#	c #2C436F",
"m#	c #294A77",
"n#	c #167EB6",
"o#	c #2D406B",
"p#	c #2B4672",
"q#	c #275381",
"r#	c #245E8E",
"s#	c #1C76AC",
"t#	c #1F679A",
"u#	c #816C45",
"v#	c #EBC112",
"w#	c #62534D",
"x#	c #662B4C",
"y#	c #CF2522",
"z#	c #742A47",
"A#	c #191731",
"B#	c #2E345F",
"C#	c #098FCA",
"D#	c #0695D2",
"E#	c #0794D1",
"F#	c #0892CF",
"G#	c #0A8FCB",
"H#	c #0990CC",
"I#	c #0A8FCA",
"J#	c #0794D0",
"K#	c #0498D4",
"L#	c #1286BE",
"M#	c #826C44",
"N#	c #ECC212",
"O#	c #F1C70C",
"P#	c #504550",
"Q#	c #100E21",
"R#	c #672B4B",
"S#	c #E32313",
"T#	c #602B4B",
"U#	c #1F1C3B",
"V#	c #2D3863",
"W#	c #0595D2",
"X#	c #2F345E",
"Y#	c #16142B",
"Z#	c #836E44",
"`#	c #17152D",
" $	c #DC2417",
".$	c #492C51",
"+$	c #2B436F",
"@$	c #0298D6",
"#$	c #0595D1",
"$$	c #2D3D68",
"%$	c #846E44",
"&$	c #F9CC03",
"*$	c #ECC213",
"=$	c #B8982F",
"-$	c #342F54",
";$	c #692B4B",
">$	c #E42312",
",$	c #DA241A",
"'$	c #B6262E",
")$	c #3A2C54",
"!$	c #17142D",
"~$	c #284C7A",
"{$	c #0299D6",
"]$	c #2A4774",
"^$	c #312C51",
"/$	c #866F43",
"($	c #EAC113",
"_$	c #CAA629",
":$	c #9B813E",
"<$	c #65554C",
"[$	c #3E3652",
"}$	c #110E23",
"|$	c #6A2B4B",
"1$	c #D02520",
"2$	c #D9241B",
"3$	c #BE262B",
"4$	c #96293F",
"5$	c #642B4C",
"6$	c #402B52",
"7$	c #2A264C",
"8$	c #265382",
"9$	c #019BD8",
"0$	c #245787",
"a$	c #17142C",
"b$	c #867043",
"c$	c #E9C014",
"d$	c #C8A52A",
"e$	c #987E3F",
"f$	c #2C284C",
"g$	c #211E3F",
"h$	c #070614",
"i$	c #6B2B4A",
"j$	c #D02421",
"k$	c #D8241C",
"l$	c #BC262D",
"m$	c #622B4D",
"n$	c #16132B",
"o$	c #2B4673",
"p$	c #206C9E",
"q$	c #206C9F",
"r$	c #312D51",
"s$	c #6E5D4A",
"t$	c #60524D",
"u$	c #3D3551",
"v$	c #2B274B",
"w$	c #15122A",
"x$	c #5F2B4D",
"y$	c #602B4D",
"z$	c #3E2B52",
"A$	c #2C274C",
"B$	c #15132A",
"C$	c #262345",
"D$	c #2D2A51",
"E$	c #2C2A51",
"F$	c #282549",
"G$	c #29264B",
"H$	c #110F24",
"I$	c #292549",
"J$	c #141229",
". . . . . . . + @ # $ % & * = - ; > , ' . . . . . . . . ' ) ! ~ { ] ^ / ( _ . . . . . . . . : < [ } | 1 2 = 3 4 : . . . . ",
". . . . . 5 6 7 8 9 0 a b c d e f g h i . . . . . . . 5 j k l m n o p q r s t . . . . . . u 4 v w x y z A B C D E . . . . ",
". . . F t G H I J K L L M N O K P Q = R . . . . . . S T U V W X X Y Z `  ...+.@.. . . . #.$.%.&.*.=.-.;.>.,.'.).= !.. . . ",
". . ~.{.& ].^./.(.(.(.(.(.(.(.(.M _.:.' . . . . . <.G [.}.|.1.1.1.1.1.1.2.3.4.; S . . R @ 5.B 6.7.7.7.7.7.7.7.8.9.0.a.. . ",
"b.c.- d.e.f.M (.(.(.(.(.(.(.(.(.K g.h.: . . . . i.j.k.l.m.1.1.1.1.1.1.1.1.n.o.p.q.b.#.r.s.t.u.7.7.7.7.7.7.7.7.=.v.w.x.R . ",
"q.y.z.A.P (.(.(.(.(.(.(.(.(.(.(.B.C.D.. . . . . E.F.G.` 1.1.1.1.1.1.1.1.1.1.H.I.J.$.<.K.L.M.7.7.7.7.7.7.7.7.7.7.;.N.O.P.#.",
"+.Q.R.S.(.(.(.(.(.(.(.(.(.(.(.(.T.U.V.. . . . . W.X.Y.1.1.1.1.1.1.1.1.1.1.1.1.Z.`. +$..+++7.7.7.7.7.7.7.7.7.7.7.7.,.@+#+$+",
"_ # %+K (.(.(.(.(.(.(.(.(.(.(.(.&+*+_ . . . . . =+4.-+1.1.1.1.1.;+1.1.1.1.1.1.1.>+,+'+)+!+7.7.7.7.7.;.7.7.7.7.7.7.7.~+{+'+",
": {.]+^+L (.(.(./+(+S.(.(.(.(.(._+:+<+. . . . . [+}+|+1.1.1.1.1+2+3+4+1.1.1.1.1.X 5+6+7+8+7.7.7.7.9+0+a+b+=.7.7.7.7.7.c+y.",
". R ; d+e+(.M f.f+g+h+(.(.(.(.(.i+# j+. . . . . k+l+m+1.1.1.1.n+o+p+q+r+1.1.1.1.Z s+t+u+v+7.7.7.7.w+x+y+z+A+7.7.7.7.7.B+& ",
". . C+s I D+E+F+G+H+I+(.(.(.(.(.J+% i . . . . #.K+L+;+1.1.1.1.M+N+O+o+P+1.1.1.1.Q+R+6+S+T+7.7.7.7.U+V+W+X+Y+7.7.7.7.Z+`++.",
". . .  @y..@+@h.G @@I+(.(.(.(.#@$@%@5 . . . . &@*@=@-@1.1.1.1.;@>@c.,@'@1.1.1.1.)@!@~@{@;.7.7.7.7.]@^@E./@(@7.7.7.7.,._@h.",
". . . u :@7 <@R D.@@I+(.(.(.(.[@}@- ' . . . . |@1@2@1.1.1.1.X 3@4@<+5@6@1.1.1.1.7@8@6+9@7.7.7.7.7.0@a@|@h b@c@7.7.7.d@e@f@",
". . . . #.g@: . D.@@I+(.(.(.(.h@i@j@: . . . . k@N+l@1.1.1.1.m@n@o@p@{ q@r@1.1.1.s@t@u@v@c@7.7.7.=.w@%@i x@y@7.7.7.7.z@y+A@",
". . . . . . . . D.@@I+(.(.(.(.B@C@f@. . . . . D@E@F@1.1.1.1.m+G@x@H@I@J@r@1.1.1.K@u@L@M@7.7.7.7.-.N@O@P@Q@R@c@7.7.7.S@V+< ",
". . . . . . . . D.@@I+(.(.(.(.T@U@$+. . . . . ) V@W@1.1.1.1.X@n+Y@Z@`@ #1.1.1.1..#+#@###7.7.7.7.7.$#%#&#*#=#7.7.7.7.-#;#!.",
": >#i.R 5 b.#.F D.@@I+(.(.(.(.,#'#_ R )#!#~#c.{#]#)@1.1.1.1.1.1.^#/#(#1.1.1.1.X _#:#<#A+7.7.7.7.7.7.[#}#|#7.7.7.7.7.1#a@)#",
"2#+.+.3#4#; 5#T 0.H+I+(.(.(.(.6#7#4#8#9#*@$ 0#a#b#c#1.1.1.1.1.1.1.1.1.1.1.1.1.Z d#^@e#f#7.7.7.7.7.7.7.7.7.7.7.7.7.7.g#= #.",
"<@'#h#i#f j#k#l#i@m#h+(.(.(.(.n#o#p#q#r#^.s#t#7#5@u#v#1.1.1.1.1.1.1.1.1.1.1.1.Q+w#- 2 x#y#7.7.7.7.7.7.7.7.7.7.7.7.Z+z#3 u ",
"A#B#C#O P D#E#F#G#H##@(.(.(.(.K I#J#K#N L (.L#]+T  +M#N#1.1.1.1.1.1.1.1.1.1.1.O#P#@ Q#2 R#y#7.7.7.7.7.7.7.7.7.7.7.S#T#j@: ",
"U#V#W#(.(.(.(.(.(.(.(.(.(.(.(.(.(.(.(.(.(.(.G#X#V.Y# +Z#N#1.1.1.1.1.1.1.1.1.1.^#[.`#: _ ^ w A+7.7.7.7.7.7.7.7.7.7. $.$P.. ",
"j@+$@$(.(.(.(.(.(.(.(.(.(.(.(.(.(.(.(.(.(.(.#$$$r.F )  +%$>+1.1.1.1.1.1.1.&$*$=$-$_ . : _ x@;$$#7.7.7.7.7.7.7.>$,$'$)$!$. ",
"0.~$L (.(.(.(.(.(.(.(.(.(.(.(.(.(.(.(.(.(.(.{$]$0.u F ) ^$/$-+1.1.1.` ($_$:$<$[$= C+. . : }$x@|$1$7.7.7.>.2$3$4$5$6$* E.. ",
"7$8$9$L L L L L L L L L L L L L L L L L L L M 0$7$R . F a$^$b$v#c$d$e$w#[$f$g$<@h$: . . . : < 1 i$j$k$l$t.m$6$2 h.n$C+: . ",
"& o$p$p$p$p$p$p$p$p$p$p$p$p$p$p$p$p$p$p$p$p$q$}@a@a.. . u !$r$s$t$u$v$G w$|@#.. . . . . . . : < 1 x$y$z$A$j@B$h$b.. . . . ",
"C$D$E$E$E$E$E$E$E$E$E$E$E$E$E$E$E$E$E$E$E$E$E$D$F$i . . . u `#G$G 4 !##.. . . . . . . . . . . : H$I$G J$|@#.. . . . . . . "};
