/* XPM */
static char * C:\Users\joaoc\Downloads\MINIX_LCOM\MINIX_LCOM\shared\proj\screens\XPM\Score\score_200_XPM[] = {
"61 26 520 2",
"  	c None",
". 	c #000000",
"+ 	c #05040E",
"@ 	c #1B1833",
"# 	c #29264B",
"$ 	c #2A284D",
"% 	c #282549",
"& 	c #16142B",
"* 	c #020206",
"= 	c #010002",
"- 	c #100E22",
"; 	c #2A274C",
"> 	c #332E55",
", 	c #302C53",
"' 	c #2E2A50",
") 	c #2C284D",
"! 	c #2B274C",
"~ 	c #17152E",
"{ 	c #010103",
"] 	c #000001",
"^ 	c #0F0D20",
"/ 	c #29254A",
"( 	c #322B53",
"_ 	c #2F2A51",
": 	c #2D284E",
"< 	c #2C274D",
"[ 	c #2A264B",
"} 	c #262346",
"| 	c #16142C",
"1 	c #252243",
"2 	c #2E335C",
"3 	c #265786",
"4 	c #21679A",
"5 	c #21689A",
"6 	c #226799",
"7 	c #294F7D",
"8 	c #2D2D55",
"9 	c #1E1B38",
"0 	c #060511",
"a 	c #131128",
"b 	c #2D294C",
"c 	c #6A594B",
"d 	c #AE9038",
"e 	c #AF903A",
"f 	c #A98C3B",
"g 	c #A0843D",
"h 	c #927940",
"i 	c #6E5C4A",
"j 	c #312C4F",
"k 	c #131127",
"l 	c #010102",
"m 	c #121025",
"n 	c #2C264B",
"o 	c #632B4D",
"p 	c #A0283B",
"q 	c #A0283D",
"r 	c #9B293E",
"s 	c #932940",
"t 	c #872A43",
"u 	c #662B4C",
"v 	c #30284E",
"w 	c #1A1833",
"x 	c #2B2950",
"y 	c #2B446F",
"z 	c #1A77AC",
"A 	c #0596D3",
"B 	c #019AD8",
"C 	c #0991CD",
"D 	c #216698",
"E 	c #2E355F",
"F 	c #252244",
"G 	c #0D0C1E",
"H 	c #020105",
"I 	c #17142D",
"J 	c #302B4F",
"K 	c #786449",
"L 	c #DDB61E",
"M 	c #FACE02",
"N 	c #FBCE01",
"O 	c #FACE01",
"P 	c #F9CD02",
"Q 	c #F8CC04",
"R 	c #E4BC19",
"S 	c #796548",
"T 	c #2C284B",
"U 	c #0E0C1F",
"V 	c #010104",
"W 	c #16132B",
"X 	c #2E284E",
"Y 	c #6F2B4A",
"Z 	c #CA2525",
"` 	c #E42311",
" .	c #E52311",
"..	c #E42312",
"+.	c #E32313",
"@.	c #D02521",
"#.	c #702B4A",
"$.	c #2B264A",
"%.	c #0D0B1D",
"&.	c #252143",
"*.	c #255D8D",
"=.	c #0E8BC5",
"-.	c #019BD9",
";.	c #009CDA",
">.	c #0398D5",
",.	c #1A79AF",
"'.	c #2C426D",
").	c #020207",
"!.	c #1A1732",
"~.	c #342F50",
"{.	c #877045",
"].	c #E4BB19",
"^.	c #FCCF01",
"/.	c #FCCF00",
"(.	c #DBB41F",
"_.	c #65554D",
":.	c #272447",
"<.	c #090817",
"[.	c #181630",
"}.	c #332950",
"|.	c #7D2A47",
"1.	c #D02522",
"2.	c #E62310",
"3.	c #C82527",
"4.	c #5E2B4E",
"5.	c #262245",
"6.	c #080715",
"7.	c #019BD8",
"8.	c #1188C1",
"9.	c #285280",
"0.	c #2C2950",
"a.	c #1C1935",
"b.	c #393251",
"c.	c #947B41",
"d.	c #EBC113",
"e.	c #FBCE02",
"f.	c #CCA829",
"g.	c #554850",
"h.	c #232041",
"i.	c #05040F",
"j.	c #372A51",
"k.	c #882A43",
"l.	c #D7241D",
"m.	c #BB262E",
"n.	c #502B50",
"o.	c #221F3F",
"p.	c #04040D",
"q.	c #2D2951",
"r.	c #2C416D",
"s.	c #1187C0",
"t.	c #1285BE",
"u.	c #2D3761",
"v.	c #18162F",
"w.	c #05050F",
"x.	c #2A264A",
"y.	c #8C7543",
"z.	c #EEC410",
"A.	c #F9CC03",
"B.	c #BB9A31",
"C.	c #453C51",
"D.	c #1F1C3A",
"E.	c #070613",
"F.	c #292549",
"G.	c #812A45",
"H.	c #DA241A",
"I.	c #E32312",
"J.	c #AB2736",
"K.	c #422B51",
"L.	c #1E1B39",
"M.	c #2E365F",
"N.	c #187CB3",
"O.	c #0793CF",
"P.	c #2A4773",
"Q.	c #211E3D",
"R.	c #0A0818",
"S.	c #B49536",
"T.	c #F6CA07",
"U.	c #A98C39",
"V.	c #3B3451",
"W.	c #2F284E",
"X.	c #A5283A",
"Y.	c #E02315",
"Z.	c #9B283C",
"`.	c #392A51",
" +	c #242042",
".+	c #060512",
"++	c #2A4774",
"@+	c #0C8DC8",
"#+	c #009CD9",
"$+	c #0299D6",
"%+	c #255C8C",
"&+	c #393250",
"*+	c #C5A32B",
"=+	c #FBCF00",
"-+	c #F0C50E",
";+	c #8D7543",
">+	c #392C54",
",+	c #B52731",
"'+	c #DB2419",
")+	c #322D56",
"!+	c #110E23",
"~+	c #2C2A51",
"{+	c #246090",
"]+	c #0497D4",
"^+	c #0399D6",
"/+	c #1581B8",
"(+	c #187BB1",
"_+	c #009BD9",
":+	c #1D72A7",
"<+	c #2C2B53",
"[+	c #0B0A1B",
"}+	c #151229",
"|+	c #413952",
"1+	c #D1AC24",
"2+	c #BA9931",
"3+	c #C6A32C",
"4+	c #EDC311",
"5+	c #B29337",
"6+	c #332F56",
"7+	c #3F2D54",
"8+	c #BF262B",
"9+	c #E12315",
"0+	c #AA2735",
"a+	c #D9241B",
"b+	c #A3283B",
"c+	c #332D57",
"d+	c #1C1934",
"e+	c #2E335D",
"f+	c #1A78AD",
"g+	c #2E3862",
"h+	c #2F345E",
"i+	c #226597",
"j+	c #0694D0",
"k+	c #1383BC",
"l+	c #2E345E",
"m+	c #504550",
"n+	c #DFB81B",
"o+	c #E9BF15",
"p+	c #5D4F4F",
"q+	c #3F3754",
"r+	c #746149",
"s+	c #DAB31F",
"t+	c #A3863C",
"u+	c #322E56",
"v+	c #4C2C52",
"w+	c #CC2523",
"x+	c #D5241E",
"y+	c #572C50",
"z+	c #3D2C54",
"A+	c #6C2B4B",
"B+	c #C72527",
"C+	c #95293F",
"D+	c #322D57",
"E+	c #2C436E",
"F+	c #1B74A9",
"G+	c #1F1C3B",
"H+	c #1E1C39",
"I+	c #2E3059",
"J+	c #1B77AC",
"K+	c #0991CC",
"L+	c #2B426E",
"M+	c #1D1B38",
"N+	c #5C4E4E",
"O+	c #E9C015",
"P+	c #DBB51E",
"Q+	c #4C4151",
"R+	c #332E52",
"S+	c #B99933",
"T+	c #F7CB06",
"U+	c #887143",
"V+	c #302C56",
"W+	c #562C50",
"X+	c #C82525",
"Y+	c #482B51",
"Z+	c #221F3E",
"`+	c #322A51",
" @	c #AA2837",
".@	c #E52310",
"+@	c #E22314",
"@@	c #7E2A45",
"#@	c #302C55",
"$@	c #2B284E",
"%@	c #2F305A",
"&@	c #141229",
"*@	c #265988",
"=@	c #265685",
"-@	c #272346",
";@	c #03030A",
">@	c #211E3E",
",@	c #6F5D49",
"'@	c #F1C60E",
")@	c #CDA927",
"!@	c #3D3652",
"~@	c #17152D",
"{@	c #2E2A4E",
"]@	c #B19239",
"^@	c #F3C80B",
"/@	c #776348",
"(@	c #302C57",
"_@	c #672B4B",
":@	c #DC2419",
"<@	c #BB262D",
"[@	c #3B2A51",
"}@	c #2D274D",
"|@	c #A2283C",
"1@	c #DE2417",
"2@	c #6E2B49",
"3@	c #2E2B53",
"4@	c #15132B",
"5@	c #110F24",
"6@	c #2A274D",
"7@	c #2A4A77",
"8@	c #0794D0",
"9@	c #206DA0",
"0@	c #020208",
"a@	c #252144",
"b@	c #806B45",
"c@	c #BC9B31",
"d@	c #AB8D3A",
"e@	c #ECC213",
"f@	c #61524E",
"g@	c #772A47",
"h@	c #AC2736",
"i@	c #33294F",
"j@	c #9D283D",
"k@	c #5A2B4E",
"l@	c #18152E",
"m@	c #2A4976",
"n@	c #1482BA",
"o@	c #226596",
"p@	c #2E2C55",
"q@	c #967D3F",
"r@	c #AA8D3A",
"s@	c #2D284D",
"t@	c #0C0A1B",
"u@	c #9F843D",
"v@	c #E2BA19",
"w@	c #544851",
"x@	c #312C56",
"y@	c #8A2942",
"z@	c #9C283D",
"A@	c #0B0919",
"B@	c #2A2549",
"C@	c #922940",
"D@	c #CF2521",
"E@	c #4F2B50",
"F@	c #2D2E56",
"G@	c #265887",
"H@	c #0D8CC6",
"I@	c #275786",
"J@	c #060612",
"K@	c #AC8E3A",
"L@	c #FACD02",
"M@	c #A5893A",
"N@	c #332E51",
"O@	c #312C51",
"P@	c #9C813D",
"Q@	c #D3AE23",
"R@	c #443B54",
"S@	c #322C56",
"T@	c #9E283D",
"U@	c #98293D",
"V@	c #1F1D3B",
"W@	c #302950",
"X@	c #902940",
"Y@	c #C12629",
"Z@	c #402B51",
"`@	c #0A0919",
" #	c #242141",
".#	c #2E345D",
"+#	c #216799",
"@#	c #1D71A5",
"##	c #2C3F6A",
"$#	c #18152F",
"%#	c #332E50",
"&#	c #BB9A32",
"*#	c #FBCF01",
"=#	c #E6BE17",
"-#	c #8B7443",
";#	c #463D53",
">#	c #E1B91B",
",#	c #C7A42A",
"'#	c #3C3555",
")#	c #352C55",
"!#	c #AB2737",
"~#	c #D32420",
"{#	c #802A46",
"]#	c #432C53",
"^#	c #CE2523",
"/#	c #B62730",
"(#	c #382A50",
"_#	c #110F23",
":#	c #2D3D68",
"<#	c #1B76AB",
"[#	c #2F315B",
"}#	c #272448",
"|#	c #191630",
"1#	c #100F23",
"2#	c #3C3551",
"3#	c #CAA728",
"4#	c #D0AB25",
"5#	c #F0C60E",
"6#	c #B59635",
"7#	c #342F55",
"8#	c #3C2C55",
"9#	c #B9262E",
"0#	c #BE262C",
"a#	c #A62839",
"b#	c #100E23",
"c#	c #197AB0",
"d#	c #2D3F6A",
"e#	c #312E58",
"f#	c #302E57",
"g#	c #2E2D55",
"h#	c #2F325B",
"i#	c #3C3553",
"j#	c #C2A02C",
"k#	c #A5883B",
"l#	c #312C54",
"m#	c #3B2C54",
"n#	c #B22732",
"o#	c #98293E",
"p#	c #090818",
"q#	c #275887",
"r#	c #187CB2",
"s#	c #246091",
"t#	c #21699C",
"u#	c #1D72A6",
"v#	c #167EB5",
"w#	c #1284BD",
"x#	c #1D6EA1",
"y#	c #2D2E57",
"z#	c #D5AF24",
"A#	c #F7CC05",
"B#	c #8A7342",
"C#	c #2A264C",
"D#	c #C3262A",
"E#	c #802A45",
"F#	c #232040",
"G#	c #029AD8",
"H#	c #0E8AC4",
"I#	c #2D3A64",
"J#	c #0E0C1E",
"K#	c #2A2649",
"L#	c #67564C",
"M#	c #D6B023",
"N#	c #F4C80A",
"O#	c #786547",
"P#	c #231F41",
"Q#	c #292448",
"R#	c #602B4D",
"S#	c #C42629",
"T#	c #DF2417",
"U#	c #702A49",
"V#	c #030208",
"W#	c #080614",
"X#	c #2B274D",
"Y#	c #275281",
"Z#	c #0695D1",
"`#	c #294C79",
" $	c #020205",
".$	c #69584C",
"+$	c #D7B122",
"@$	c #EDC313",
"#$	c #63534D",
"$$	c #612B4D",
"%$	c #C52628",
"&$	c #D8241C",
"*$	c #5C2B4E",
"=$	c #2D3C66",
"-$	c #1187C1",
";$	c #029AD7",
">$	c #236293",
",$	c #060510",
"'$	c #0E0C20",
")$	c #2A274A",
"!$	c #D9B221",
"~$	c #EFC410",
"{$	c #C6A32A",
"]$	c #C62628",
"^$	c #B52730",
"/$	c #2B294F",
"($	c #2B274A",
"_$	c #6D5B4B",
":$	c #DAB320",
"<$	c #F9CD03",
"[$	c #D2AD25",
"}$	c #A6893B",
"|$	c #6F5D4A",
"1$	c #2A254A",
"2$	c #652B4C",
"3$	c #C72627",
"4$	c #DA241B",
"5$	c #C0262B",
"6$	c #422B52",
"7$	c #2B264C",
"8$	c #1087C0",
"9$	c #2D3862",
"0$	c #0F0D21",
"a$	c #D1AC25",
"b$	c #6E5D4A",
"c$	c #232042",
"d$	c #97293E",
"e$	c #221F40",
"f$	c #080716",
"g$	c #285382",
"h$	c #206B9E",
"i$	c #206C9E",
"j$	c #2E3660",
"k$	c #221E3E",
"l$	c #5F504D",
"m$	c #443B51",
"n$	c #2E2A4D",
"o$	c #592B4F",
"p$	c #632B4C",
"q$	c #412B51",
"r$	c #1D1A37",
"s$	c #242142",
"t$	c #100D21",
"u$	c #222040",
". . . . . + @ # $ $ $ $ $ % & * . . . . . . . . . . . . = - ; > , ' ) ! % ~ { . . . . . . . ] ^ / ( _ : < [ } | { . . . . ",
". . . { ^ 1 2 3 4 5 5 5 6 7 8 9 0 . . . . . . . . . . { a b c d e f g h i j k ] . . . . . l m n o p q r s t u v m ] . . . ",
". . + w x y z A B B B B B C D E F G = . . . . . . . H I J K L M N O P Q R S T U . . . . V W X Y Z `  .` ..+.@.#.$.%.. . . ",
"{ ^ &.2 *.=.-.;.;.;.;.;.;.;.>.,.'.$ & V . . . . . ).!.~.{.].^./././././.^.(._.:.<.. . * [.}.|.1.2.2.2.2.2.2.2.3.4.5.6.. . ",
"@ x y z A ;.;.;.;.;.;.;.;.;.;.7.8.9.0.%.. . . . V a.b.c.d././././././././.e.f.g.h.i.V @ j.k.l.2.2.2.2.2.2.2.2. .m.n.o.p.. ",
"q.r.s.-.;.;.;.;.;.;.;.;.;.;.;.;.;.t.u.v.. . . . w.x.y.z././././././././././.A.B.C.D.E.F.G.H.2.2.2.2.2.2.2.2.2.2.I.J.K.9 + ",
"L.M.N.-.;.;.;.;.;.;.;.;.;.;.;.;.;.O.P.Q.V . . . R.J S.N /././././././././././.T.U.V.9 W.X. .2.2.2.2.2.2.2.2.2.2.2.Y.Z.`. +",
".+} ++@+;.;.;.;.;.#+;.;.;.;.;.;.;.$+%+% p.. . . U &+*+/././././.N =+/./././././.-+;+, >+,+2.2.2.2.2. .2.2.2.2.2.2.2.'+G.)+",
". !+~+{+]+;.;.^+/+(+]+;.;.;.;.;.;._+:+<+[+. . . }+|+1+/./././.T.2+3+4+N /./././.N 5+6+7+8+2.2.2.2.9+0+,+a+ .2.2.2.2. .b+c+",
". { d+e+f+B C 5 g+h+i+j+;.;.;.;.;.;.k+l+& . . . [.m+n+/./././.o+p+q+r+s+/./././.P t+u+v+w+2.2.2.2.x+y+z+A+B+2.2.2.2.` C+D+",
". . + F E+F+7 8 G+H+I+J+_+;.;.;.;.;.K+L+D.l . ] M+N+O+/./././.P+Q+h.R+S+N /././.T+U+V+W+x+2.2.2.2.X+Y+Z+`+ @.@2.2.2.+@@@#@",
". . . U $@%@# &@* i.% *@>.;.;.;.;.;.>.=@-@;@. { >@,@'@/./././.)@!@~@{@]@N /././.^@/@(@_@:@2.2.2.2.<@[@&@}@|@.@2.2.2.1@2@3@",
". . . l 4@L.R.] l 5@6@7@8@;.;.;.;.;.-.9@x <.. 0@a@b@T./././.=+c@~.- T d@O /././.e@f@V+g@9+2.2.2..@h@i@^ $.j@ .2.2.2.l.k@6@",
". . . . ] { . ).l@x m@n@7.;.;.;.;.;.j+o@p@5@. p.F.q@Q /././.O r@s@t@x.u@P /././.v@w@x@y@+.2.2.2.` z@n A@B@C@..2.2.2.D@E@F ",
". . . . . . + 9 F@G@H@_+;.;.;.;.B s.I@I+o.J@. E.) K@O /././.L@M@N@>@O@P@A./././.Q@R@S@T@` 2.2.2...U@`+V@W@X@I.2.2.2.Y@Z@D.",
". . . . ] `@ #.#+#O.;.;.;.;.;.j+@###$ $#;@. . [+%#&#*#/./././.=#-#;#-#>#/./././.,#'#)#!#.@2.2.2.2.~#{#]#{#^#2.2.2.2./#(#I ",
". . . { _#% :#<#>.;.;.;.;.B s.I@[#}#~ &@|#m l 1#2#3#/./././././.z.4#5#/./././.N 6#7#8#9#2.2.2.2.2.2.H.0#:@2.2.2.2..@a#W.b#",
". . ).l@x m@n@B ;.;.;.;.-.c#d#e#f#g#I+.#h## J@W i#j#N /./././././././././././.L@k#l#m#n# .2.2.2.2.2.2.2.2.2.2.2.2.` o#x.p#",
". i.L.F@q#H@_+;.;.;.;.;.-.r#s#t#u#J+v#w#x#y#b#`@F._.z#N /././././././././././.A#B#C#F.4.D# .2.2.2.2.2.2.2.2.2.2.2.+@E#} 0 ",
"p.F#.#+#O.;.;.;.;.;.;.;.;.-.G#7._+;.;.;.H#I#w ] J#K#L#M#N /./././././././././.N#O#P#U Q#R#S# .2.2.2.2.2.2.2.2.2.2.T#U#o.V#",
"W#X#Y#Z#;.;.;.;.;.;.;.;.;.;.;.;.;.;.;.;.Z#`#F# $] U x..$+$N /././././././././.@$#$G+{ %.F.$$%$ .2.2.2.2.2.2.2.2.2.&$*$L.{ ",
"{ L.=$-$;.;.;.;.;.;.;.;.;.;.;.;.;.;.;.;.;$>$# ,$. ] '$)$c !$N /./././././.L@~${$Q+!.. ] J#B@o ]$ .2.2.2.2.2.2...H.^$Y+|#. ",
". t@/$>$$+;.;.;.;.;.;.;.;.;.;.;.;.;.;.;.;.f+8 ^ . . ] ^ ($_$:$N /./.<$z.[$}$|$C.) _#. . ] U 1$2$3$ .2.2.I.4$5$o#_@6$7$- . ",
". V H+=$s.-.-.-.-.-.-.-.-.-.-.-.-.-.-.-.-.8$9$|#. . . ] 0$($i :$4+a$k#b$C.{@c$$#R.{ . . . ] ^ $.u B+a+8+d$u K.}@e$| f$l . ",
". . t@/$g$h$i$i$i$i$i$i$i$i$i$i$i$i$i$i$i$o@j$k$V . . . ] - T l$c m$n$h.~ R.).] . . . . . . ] ^ $.o$p$q$}@o.| f$* . . . . ",
". . V r$0.~+~+~+~+~+~+~+~+~+~+~+~+~+~+~+~+~+0.D.V . . . . ] 1#}#s$~@<.).. . . . . . . . . . . ] t$-@u$4@6.H . . . . . . . "};
