/* XPM */
static char * C:\Users\joaoc\Downloads\MINIX_LCOM\MINIX_LCOM\shared\proj\screens\XPM\Score\score_000_XPM[] = {
"56 26 499 2",
"  	c None",
". 	c #000000",
"+ 	c #04030C",
"@ 	c #232041",
"# 	c #312D57",
"$ 	c #302C56",
"% 	c #2E2A52",
"& 	c #2C284F",
"* 	c #2B274D",
"= 	c #2A274C",
"- 	c #232040",
"; 	c #03030A",
"> 	c #010103",
", 	c #1B1833",
"' 	c #2F2B55",
") 	c #302C55",
"! 	c #2A264C",
"~ 	c #262245",
"{ 	c #090817",
"] 	c #000001",
"^ 	c #110F23",
"/ 	c #2F2B54",
"( 	c #2D2951",
"_ 	c #2B284E",
": 	c #29264B",
"< 	c #110F24",
"[ 	c #060612",
"} 	c #2F325D",
"| 	c #216597",
"1 	c #1F6DA0",
"2 	c #206A9D",
"3 	c #226697",
"4 	c #235E8F",
"5 	c #275280",
"6 	c #2F315B",
"7 	c #221F3F",
"8 	c #020105",
"9 	c #020206",
"0 	c #1E1B39",
"a 	c #332E55",
"b 	c #877142",
"c 	c #AC8E38",
"d 	c #A78A3B",
"e 	c #A0843C",
"f 	c #937A3F",
"g 	c #816B43",
"h 	c #483E52",
"i 	c #282449",
"j 	c #05040F",
"k 	c #141229",
"l 	c #652B4B",
"m 	c #9F283B",
"n 	c #9A293E",
"o 	c #95293F",
"p 	c #8B2941",
"q 	c #7C2A45",
"r 	c #552C4F",
"s 	c #0B0A1A",
"t 	c #0A0818",
"u 	c #292549",
"v 	c #2F3560",
"w 	c #1879B0",
"x 	c #019BD9",
"y 	c #009CDA",
"z 	c #019CDA",
"A 	c #019BD8",
"B 	c #1D6DA0",
"C 	c #302E58",
"D 	c #1C1935",
"E 	c #010102",
"F 	c #363055",
"G 	c #A18539",
"H 	c #F6CA05",
"I 	c #FCCF00",
"J 	c #FCCF01",
"K 	c #FBCF02",
"L 	c #CAA725",
"M 	c #423A53",
"N 	c #242041",
"O 	c #020207",
"P 	c #191731",
"Q 	c #302B53",
"R 	c #752A48",
"S 	c #D8241A",
"T 	c #E62310",
"U 	c #E62311",
"V 	c #D0241F",
"W 	c #562C4F",
"X 	c #29254A",
"Y 	c #060512",
"Z 	c #0F0D20",
"` 	c #2D3C67",
" .	c #1480B9",
"..	c #009CD9",
"+.	c #0299D6",
"@.	c #226091",
"#.	c #2F2C55",
"$.	c #16142C",
"%.	c #060510",
"&.	c #252244",
"*.	c #3D3654",
"=.	c #B09133",
"-.	c #F9CC03",
";.	c #FBCE01",
">.	c #B8982F",
",.	c #373254",
"'.	c #010104",
").	c #1C1A36",
"!.	c #332C54",
"~.	c #852943",
"{.	c #DC2417",
"].	c #C42526",
"^.	c #462C52",
"/.	c #242143",
"(.	c #030309",
"_.	c #100E22",
":.	c #2D2950",
"<.	c #2C426E",
"[.	c #0E88C2",
"}.	c #0496D2",
"|.	c #2D2A52",
"1.	c #100E21",
"2.	c #282549",
"3.	c #443B53",
"4.	c #C09E2B",
"5.	c #FACE02",
"6.	c #F9CD03",
"7.	c #A0843A",
"8.	c #322E55",
"9.	c #181630",
"0.	c #010105",
"a.	c #201D3C",
"b.	c #352C54",
"c.	c #94293D",
"d.	c #E12314",
"e.	c #B32730",
"f.	c #3B2C54",
"g.	c #221F40",
"h.	c #2D3C68",
"i.	c #0B8DC8",
"j.	c #0891CC",
"k.	c #2B4470",
"l.	c #2C284E",
"m.	c #16132B",
"n.	c #393354",
"o.	c #C8A526",
"p.	c #F6CA06",
"q.	c #867043",
"r.	c #2F2A53",
"s.	c #121025",
"t.	c #070614",
"u.	c #98283B",
"v.	c #E32312",
"w.	c #E52311",
"x.	c #9F2839",
"y.	c #332C55",
"z.	c #1A1833",
"A.	c #282448",
"B.	c #284F7E",
"C.	c #019CD9",
"D.	c #0E8AC4",
"E.	c #2D3C66",
"F.	c #1F1C3A",
"G.	c #4B4152",
"H.	c #F2C70E",
"I.	c #EFC40E",
"J.	c #705E49",
"K.	c #342B54",
"L.	c #C52529",
"M.	c #E22313",
"N.	c #8A2940",
"O.	c #151229",
"P.	c #236192",
"Q.	c #157EB6",
"R.	c #2F325C",
"S.	c #2E2B53",
"T.	c #65554D",
"U.	c #FDCF00",
"V.	c #E3BB17",
"W.	c #544850",
"X.	c #3F2C55",
"Y.	c #D1241F",
"Z.	c #E72310",
"`.	c #DD2416",
" +	c #6F2B49",
".+	c #206B9F",
"++	c #0E89C3",
"@+	c #1779AF",
"#+	c #0694D0",
"$+	c #0595D1",
"%+	c #2E3B66",
"&+	c #75624A",
"*+	c #ECC20F",
"=+	c #B5962F",
"-+	c #E5BC16",
";+	c #FACD01",
">+	c #FACD02",
",+	c #7B6748",
"'+	c #462C54",
")+	c #E12313",
"!+	c #A82733",
"~+	c #C82526",
"{+	c #9F283A",
"]+	c #2F2B53",
"^+	c #080715",
"/+	c #1878AE",
"(+	c #225E8F",
"_+	c #312E58",
":+	c #2D3E69",
"<+	c #1A72A8",
"[+	c #2F3660",
"}+	c #8C7540",
"|+	c #FDD000",
"1+	c #BE9D2A",
"2+	c #322E56",
"3+	c #483F53",
"4+	c #947B3C",
"5+	c #F8CB04",
"6+	c #6C5A4C",
"7+	c #582C4F",
"8+	c #DE2414",
"9+	c #CE251F",
"0+	c #392D55",
"a+	c #3C2C55",
"b+	c #712A47",
"c+	c #D5241B",
"d+	c #91293F",
"e+	c #302D56",
"f+	c #1381B9",
"g+	c #274F7D",
"h+	c #2A264B",
"i+	c #2B274C",
"j+	c #2A4A77",
"k+	c #029AD8",
"l+	c #1089C3",
"m+	c #30305A",
"n+	c #302C57",
"o+	c #9F8338",
"p+	c #A38734",
"q+	c #252144",
"r+	c #463C53",
"s+	c #EBC113",
"t+	c #F3C80C",
"u+	c #504550",
"v+	c #652B4A",
"w+	c #E32311",
"x+	c #BC2628",
"y+	c #BA262D",
"z+	c #722A47",
"A+	c #0C8AC4",
"B+	c #0298D5",
"C+	c #2C3F6B",
"D+	c #2C416D",
"E+	c #0399D7",
"F+	c #1581B9",
"G+	c #B5962C",
"H+	c #856F41",
"I+	c #17152E",
"J+	c #3B3554",
"K+	c #E7BD19",
"L+	c #433B53",
"M+	c #312D56",
"N+	c #7C2A42",
"O+	c #E52310",
"P+	c #0D0B1E",
"Q+	c #2F2A52",
"R+	c #B22733",
"S+	c #E32313",
"T+	c #602B4B",
"U+	c #2E355F",
"V+	c #0692CE",
"W+	c #2E3762",
"X+	c #2C3E6A",
"Y+	c #0398D5",
"Z+	c #1B71A6",
"`+	c #332E56",
" @	c #CDA921",
".@	c #F8CC03",
"+@	c #262346",
"@@	c #120F24",
"#@	c #393353",
"$@	c #E2BA1C",
"%@	c #D8B21D",
"&@	c #363155",
"*@	c #95283B",
"=@	c #2C2850",
"-@	c #070612",
";@	c #AD2735",
">@	c #DB2417",
",@	c #482C51",
"'@	c #1D1A38",
")@	c #211E3D",
"!@	c #2C3E69",
"~@	c #0497D4",
"{@	c #0C8BC5",
"]@	c #30315A",
"^@	c #17152D",
"/@	c #1B1934",
"(@	c #2D3A66",
"_@	c #0595D2",
":@	c #1F6597",
"<@	c #393355",
"[@	c #DDB61A",
"}@	c #F3C808",
"|@	c #5A4C51",
"1@	c #201E3D",
"2@	c #0D0C1D",
"3@	c #363153",
"4@	c #D8B21F",
"5@	c #C7A524",
"6@	c #A82734",
"7@	c #7F2A46",
"8@	c #272448",
"9@	c #03030B",
"0@	c #A22838",
"a@	c #D3241C",
"b@	c #3D2C54",
"c@	c #17142D",
"d@	c #294A78",
"e@	c #1085BE",
"f@	c #211D3D",
"g@	c #0792CE",
"h@	c #009BD9",
"i@	c #265281",
"j@	c #453C52",
"k@	c #EDC311",
"l@	c #EEC40E",
"m@	c #504451",
"n@	c #1E1B38",
"o@	c #342F55",
"p@	c #CDA924",
"q@	c #AA8D32",
"r@	c #342D56",
"s@	c #BF262B",
"t@	c #E42312",
"u@	c #712B49",
"v@	c #95293C",
"w@	c #C22626",
"x@	c #352C55",
"y@	c #265584",
"z@	c #216395",
"A@	c #303059",
"B@	c #2E3660",
"C@	c #1B6FA4",
"D@	c #0299D7",
"E@	c #2A4875",
"F@	c #F4C80B",
"G@	c #BA992E",
"H@	c #423A54",
"I@	c #8F773E",
"J@	c #F2C60B",
"K@	c #FCCE00",
"L@	c #987E3B",
"M@	c #2F2C56",
"N@	c #382C55",
"O@	c #CA2526",
"P@	c #C32627",
"Q@	c #522C50",
"R@	c #322C55",
"S@	c #6A2B4A",
"T@	c #CF2520",
"U@	c #B6262D",
"V@	c #302B54",
"W@	c #090818",
"X@	c #2C2950",
"Y@	c #216799",
"Z@	c #177AB1",
"`@	c #0F87C1",
" #	c #0495D1",
".#	c #2E3C67",
"+#	c #6E5C4C",
"@#	c #F8CC04",
"##	c #D2AD22",
"$#	c #C6A327",
"%#	c #7E6946",
"&#	c #432C55",
"*#	c #D5241C",
"=#	c #D02520",
"-#	c #DD2417",
";#	c #A22839",
">#	c #2D2A51",
",#	c #1F6A9D",
"'#	c #74624A",
")#	c #6D5B4C",
"!#	c #472C54",
"~#	c #D6241B",
"{#	c #922940",
"]#	c #2E3964",
"^#	c #1382BA",
"/#	c #0F8AC3",
"(#	c #3A3354",
"_#	c #AF9133",
":#	c #534750",
"<#	c #272447",
"[#	c #312B53",
"}#	c #812A43",
"|#	c #DE2416",
"1#	c #752A47",
"2#	c #2E3A64",
"3#	c #1283BB",
"4#	c #1482BA",
"5#	c #2F2D55",
"6#	c #0E0D1F",
"7#	c #211E3E",
"8#	c #B19232",
"9#	c #ECC212",
"0#	c #433B52",
"a#	c #18162F",
"b#	c #312B54",
"c#	c #832A42",
"d#	c #DF2415",
"e#	c #E42313",
"f#	c #612B4B",
"g#	c #080714",
"h#	c #2D3A65",
"i#	c #1183BC",
"j#	c #1B72A8",
"k#	c #020208",
"l#	c #3B3454",
"m#	c #B39431",
"n#	c #DAB31C",
"o#	c #373154",
"p#	c #121026",
"q#	c #010002",
"r#	c #191630",
"s#	c #852A42",
"t#	c #DC2416",
"u#	c #4A2C51",
"v#	c #2D3B66",
"w#	c #1184BD",
"x#	c #206193",
"y#	c #2C294F",
"z#	c #030208",
"A#	c #3C3554",
"B#	c #B59530",
"C#	c #FACD04",
"D#	c #BF9E28",
"E#	c #312D54",
"F#	c #0C0B1D",
"G#	c #872941",
"H#	c #DF2414",
"I#	c #CB2521",
"J#	c #3C2C54",
"K#	c #080716",
"L#	c #29264A",
"M#	c #1185BE",
"N#	c #0399D6",
"O#	c #1F6B9E",
"P#	c #2F305A",
"Q#	c #B69730",
"R#	c #F9CD04",
"S#	c #E2BA15",
"T#	c #786447",
"U#	c #3F3853",
"V#	c #1A1732",
"W#	c #322B54",
"X#	c #892941",
"Y#	c #E02414",
"Z#	c #D7241A",
"`#	c #B02730",
" $	c #7D2A46",
".$	c #472C51",
"+$	c #100F23",
"@$	c #0398D6",
"#$	c #0E86C0",
"$$	c #2A4774",
"%$	c #1A1731",
"&$	c #080614",
"*$	c #030209",
"=$	c #F9CC04",
"-$	c #E0B916",
";$	c #B29332",
">$	c #756247",
",$	c #403853",
"'$	c #302C54",
")$	c #0C0A1B",
"!$	c #1A1832",
"~$	c #322C54",
"{$	c #AF2731",
"]$	c #7B2A46",
"^$	c #462C51",
"/$	c #312C54",
"($	c #2D3D68",
"_$	c #226496",
":$	c #2A4572",
"<$	c #262345",
"[$	c #3E3654",
"}$	c #997F3D",
"|$	c #726048",
"1$	c #2F2C54",
"2$	c #0C0A1C",
"3$	c #7F2A45",
"4$	c #792A46",
"5$	c #442C52",
"6$	c #1D1B38",
"7$	c #0E0C1F",
"8$	c #080615",
"9$	c #0B091A",
"0$	c #1D1A37",
". . . . . + @ # $ % & * = - ; . . . . . . . . > , ' ) % & * ! ~ { . . . . . . . . ] ^ & / ( _ * : ~ < . . . . . ",
". . . . [ ~ } | 1 2 3 4 5 6 7 8 . . . . . . 9 0 a b c d e f g h i j . . . . . . ] k % l m n o p q r & s . . . . ",
". . . t u v w x y y y z A B C D E . . . . ; 7 F G H I I J J K L M N O . . . . > P Q R S T T T T U V W X Y . . . ",
". . Z * `  ...y y y y y y +.@.#.$.] . . %.&.*.=.-.I I I I I I ;.>.,.0 > . . '.).!.~.{.T T T T T T T ].^./.(.. . ",
". _.:.<.[.y y y y y y y y y }.5 |.1.. [ 2.3.4.5.I I I I I I I I 6.7.8.9.] 0.a.b.c.d.T T T T T T T T T e.f.a.> . ",
"] g.h.i.y y y y y y y y y y y j.k.l.t m.n.o.;.I I I I I I I I I I p.q.r.s.t.r.u.v.T T T T T T T T T T w.x.y.z.] ",
"> A.B.C.y y y y y y y y y y y y D.E.i F.G.H.I I I I I I I I I I I I I.J.:.$.K.L.T T T T T T T T T T T T M.N.Q O.",
"'.! P.y y y y y y y y y y y y y y Q.R.S.T.p.I I I I I U.I I I I I I I V.W.% X.Y.T T T T T Z.T T T T T T T `. +% ",
"j ( .+y y y y y ++@+#+y y y y y y $+%+# &+-.I I I I *+=+-+;+I I I I I >+,+$ '+S T T T T )+!+~+M.T T T T T T {+]+",
"^+/ /+y y y y y (+_+:+<+y y y y y j.[+# }+;.I I I |+1+2+3+4+H I I I I 5+6+# 7+8+T T T T 9+0+a+b+c+T T T T T d+_ ",
"< e+f+y y y y A g+h+i+j+k+y y y y l+m+n+o+I I I I I p+% q+r+s+I I I I t+u+$ v+w+T T T T x+y.a.y.y+T T T T U z+A.",
"m.6 A+y y y y B+C+- @ D+E+y y y y F+_+# G+I I I I ;.H+! I+J+K+I I I I s+L+M+N+O+T T T T !+% P+Q+R+T T T T S+T+g.",
"D U+V+y y y y V+W+).F.X+Y+y y y y Z+# `+ @I I I I .@J.+@@@#@$@I I I I %@&@# *@Z.T T T T c.=@-@( ;@T T T T >@,@'@",
")@!@~@y y y y {@]@^@/@(@_@y y y y :@# <@[@I I I I }@|@1@2@3@4@I I I I 5@2+M+6@Z.T T T w.7@8@9@:.0@T T T T a@b@c@",
"&.d@A y y y y e@m+f@&.W+g@y y y h@i@# j@k@I I I I l@m@+@n@o@p@I I I I q@$ r@s@T T T T t@u@* $.S.v@Z.T T T w@x@s.",
"= y@z y y y y B+z@A@B@C@A y y y D@E@M+W.F@I I I I ;+G@H@<@I@J@I I I K@L@M@N@O@T T T T T P@Q@R@S@T@T T T T U@V@W@",
"X@Y@y y y y y y D@Z@`@h@y y y y  #.#M++#@#I I I I I ;.##$#.@I I I I >+%#$ &#*#T T T T T T =#!+-#T T T T T ;#>#j ",
"$ ,#y y y y y y y y y y y y y y j.[+$ '#@#I I I I I I I I I I I I I 5+)#/ !#~#T T T T T T T Z.T T T T T T {#! '.",
"X ]#^#y y y y y y y y y y y y y /#]@8@(#_#>+I I I I I I I I I I I I t+:#<#[#}#|#T T T T T T T T T T T T U 1#<#E ",
"t.2.2#3#y y y y y y y y y y y y 4#5#6#7#(#8#>+I I I I I I I I I I I 9#0#a#a#b#c#d#T T T T T T T T T T T e#f#7 ] ",
". g#X h#i#y y y y y y y y y y y j#S.Y k#7 l#m#5.I I I I I I I I I I n#o#p#q#r#b#s#d#T T T T T T T T T T t#u#n@. ",
". . ^+X v#w#y y y y y y y y y D@x#y#+ . z#7 A#B#5.I I I I I I I I C#D#E#F#. E P b#G#H#T T T T T T T T w.I#J#I+. ",
". . . K#L#` M#y y y y y N#[.O#E@P#8@8 . . z#g.A#Q#5.I I I I R#S#m#T#U#:.-@. . E V#W#X#Y#T T T T w.Z#`# $.$/ +$. ",
". . . . { : ` e@y @$#$,#$$6 % +@%$&$. . . . *$- *.>.5.=$-$;$>$,$'$2.D )$] . . . E !$~$N.Y#w.c+{$]$^$/$: n@Z q#. ",
". . . . . { h+($_$:$]@% <$r#K#E . . . . . . . (.@ [$}$|$U#1$A.D 2$'.. . . . . . . E z.~$3$4$5$V@X 6$7$9 ] . . . ",
". . . . . . t * / +@9.8$E . . . . . . . . . . . ; /.) 2./@9$'.. . . . . . . . . . . E /@) : 0$P+8 ] . . . . . . "};
