/* XPM */
static char * C:\Users\joaoc\Downloads\MINIX_LCOM\MINIX_LCOM\shared\proj\screens\XPM\Score\score_050_XPM[] = {
"59 26 566 2",
"  	c None",
". 	c #000000",
"+ 	c #070613",
"@ 	c #252244",
"# 	c #302D56",
"$ 	c #302C55",
"% 	c #2E2A52",
"& 	c #2C284E",
"* 	c #2B274D",
"= 	c #2A264C",
"- 	c #1E1B38",
"; 	c #020207",
"> 	c #141228",
", 	c #191630",
"' 	c #1B1834",
") 	c #1D1B37",
"! 	c #1F1C3A",
"~ 	c #201D3C",
"{ 	c #211E3D",
"] 	c #211E3E",
"^ 	c #221F3F",
"/ 	c #242041",
"( 	c #272347",
"_ 	c #282549",
": 	c #2A274C",
"< 	c #2B274E",
"[ 	c #2C284F",
"} 	c #2D2950",
"| 	c #262346",
"1 	c #050510",
"2 	c #0C0B1C",
"3 	c #292549",
"4 	c #2F2B54",
"5 	c #2D2A51",
"6 	c #29264B",
"7 	c #262345",
"8 	c #151229",
"9 	c #010002",
"0 	c #0B0919",
"a 	c #272447",
"b 	c #2E3963",
"c 	c #206799",
"d 	c #206DA0",
"e 	c #206A9D",
"f 	c #226596",
"g 	c #245D8D",
"h 	c #284C7A",
"i 	c #2F2F58",
"j 	c #1C1935",
"k 	c #010104",
"l 	c #0E0C1E",
"m 	c #2E2A51",
"n 	c #3C3554",
"o 	c #423A53",
"p 	c #463E51",
"q 	c #4F444F",
"r 	c #584B4C",
"s 	c #5F514B",
"t 	c #655649",
"u 	c #6A5A49",
"v 	c #6E5D49",
"w 	c #705E48",
"x 	c #736147",
"y 	c #7E6945",
"z 	c #897241",
"A 	c #92793F",
"B 	c #9A7F3E",
"C 	c #9D833D",
"D 	c #61524D",
"E 	c #2A264B",
"F 	c #060510",
"G 	c #000001",
"H 	c #0F0E21",
"I 	c #2B264C",
"J 	c #5A2B4E",
"K 	c #9B283C",
"L 	c #9B293D",
"M 	c #96293F",
"N 	c #8C2941",
"O 	c #7E2A44",
"P 	c #5B2B4D",
"Q 	c #2E284F",
"R 	c #100E22",
"S 	c #0D0C1E",
"T 	c #2D3D68",
"U 	c #167EB6",
"V 	c #019BD9",
"W 	c #009CDA",
"X 	c #019CDA",
"Y 	c #0497D4",
"Z 	c #236090",
"` 	c #2D2C54",
" .	c #15132B",
"..	c #383250",
"+.	c #BA9A2D",
"@.	c #ECC20E",
"#.	c #EDC30E",
"$.	c #EFC40C",
"%.	c #F1C70A",
"&.	c #F4C908",
"*.	c #F6CA06",
"=.	c #F8CC04",
"-.	c #F9CD03",
";.	c #FBCE03",
">.	c #FBCF03",
",.	c #FBCF02",
"'.	c #FCCF01",
").	c #F4C80B",
"!.	c #786547",
"~.	c #242142",
"{.	c #141128",
"].	c #672B4C",
"^.	c #CB2523",
"/.	c #E62310",
"(.	c #E62311",
"_.	c #D22520",
":.	c #692B4C",
"<.	c #0B091A",
"[.	c #110F24",
"}.	c #2B436F",
"|.	c #1384BC",
"1.	c #0793CF",
"2.	c #275382",
"3.	c #2C2950",
"4.	c #373150",
"5.	c #C2A02C",
"6.	c #FCCF00",
"7.	c #E7BE16",
"8.	c #594C4F",
"9.	c #1D1A37",
"0.	c #010103",
"a.	c #16142C",
"b.	c #2F2951",
"c.	c #732B48",
"d.	c #D12520",
"e.	c #C82526",
"f.	c #562B4F",
"g.	c #262245",
"h.	c #060511",
"i.	c #131127",
"j.	c #2A4976",
"k.	c #0E8AC3",
"l.	c #0C8CC6",
"m.	c #2A4774",
"n.	c #29264A",
"o.	c #342F50",
"p.	c #BD9C30",
"q.	c #D1AC24",
"r.	c #423952",
"s.	c #15122A",
"t.	c #191731",
"u.	c #312A52",
"v.	c #7F2A45",
"w.	c #D7241B",
"x.	c #E52311",
"y.	c #B8262F",
"z.	c #472C52",
"A.	c #030209",
"B.	c #020105",
"C.	c #232040",
"D.	c #2B4571",
"E.	c #0C8DC7",
"F.	c #1284BD",
"G.	c #2D3C67",
"H.	c #29254A",
"I.	c #322D52",
"J.	c #B69635",
"K.	c #FBCE01",
"L.	c #FBCF01",
"M.	c #B89834",
"N.	c #322D50",
"O.	c #0B0A1B",
"P.	c #04040D",
"Q.	c #7D2A46",
"R.	c #DB2419",
"S.	c #E42312",
"T.	c #A72837",
"U.	c #3B2B53",
"V.	c #04030B",
"W.	c #282448",
"X.	c #265988",
"Y.	c #0299D7",
"Z.	c #187AB0",
"`.	c #2F3660",
" +	c #332E56",
".+	c #B19239",
"++	c #F9CD02",
"@+	c #DBB41E",
"#+	c #CFAA26",
"$+	c #CCA927",
"%+	c #846E45",
"&+	c #292649",
"*+	c #080715",
"=+	c #2E284D",
"-+	c #A4283B",
";+	c #E52310",
">+	c #E12315",
",+	c #93293E",
"'+	c #342A51",
")+	c #05040F",
"!+	c #21679A",
"~+	c #019AD8",
"{+	c #029AD7",
"]+	c #1F6C9F",
"^+	c #323159",
"/+	c #B09139",
"(+	c #EBC114",
"_+	c #61524E",
":+	c #353056",
"<+	c #342F55",
"[+	c #312D55",
"}+	c #010105",
"|+	c #0D0B1D",
"1+	c #372A50",
"2+	c #B42731",
"3+	c #7A2A47",
"4+	c #2F2A52",
"5+	c #0A0818",
"6+	c #2C2A51",
"7+	c #1F70A4",
"8+	c #009BD9",
"9+	c #1184BD",
"0+	c #157EB6",
"a+	c #0595D1",
"b+	c #1284BC",
"c+	c #31365F",
"d+	c #AD8E39",
"e+	c #F0C60E",
"f+	c #6D5C4A",
"g+	c #302C56",
"h+	c #2F2B55",
"i+	c #0F0D20",
"j+	c #04040E",
"k+	c #121025",
"l+	c #3D2A51",
"m+	c #BE262B",
"n+	c #E22313",
"o+	c #B3272F",
"p+	c #C22629",
"q+	c #E02315",
"r+	c #A4283A",
"s+	c #312B53",
"t+	c #0D0B1E",
"u+	c #2D2E56",
"v+	c #187AB1",
"w+	c #0399D6",
"x+	c #265786",
"y+	c #303059",
"z+	c #2B4471",
"A+	c #157EB5",
"B+	c #167EB5",
"C+	c #31335C",
"D+	c #A78B3B",
"E+	c #FACE01",
"F+	c #F9CC03",
"G+	c #B8982F",
"H+	c #8C7541",
"I+	c #8B7441",
"J+	c #897242",
"K+	c #5F514E",
"L+	c #312D53",
"M+	c #17152E",
"N+	c #4B2B51",
"O+	c #CB2524",
"P+	c #D5241E",
"Q+	c #572C50",
"R+	c #3B2C55",
"S+	c #6D2B49",
"T+	c #E42311",
"U+	c #98293E",
"V+	c #141229",
"W+	c #2E325B",
"X+	c #1482BA",
"Y+	c #0596D2",
"Z+	c #294C79",
"`+	c #245F8F",
" @	c #009CD9",
".@	c #1D73A7",
"+@	c #312F58",
"@@	c #9F833D",
"#@	c #EDC310",
"$@	c #A78B36",
"%@	c #504551",
"&@	c #1C1A36",
"*@	c #552B4F",
"=@	c #D4241E",
"-@	c #CA2524",
";@	c #4A2B51",
">@	c #232041",
",@	c #332A52",
"'@	c #AB2837",
")@	c #E22314",
"!@	c #18152F",
"~@	c #2D3963",
"{@	c #0E89C3",
"]@	c #0991CD",
"^@	c #2C406C",
"/@	c #282447",
"(@	c #216B9D",
"_@	c #312D57",
":@	c #66564C",
"<@	c #E8BF15",
"[@	c #E2BA19",
"}@	c #8F7740",
"|@	c #423953",
"1@	c #030208",
"2@	c #201D3D",
"3@	c #652B4C",
"4@	c #DB241A",
"5@	c #BD262C",
"6@	c #3C2A51",
"7@	c #15132A",
"8@	c #2D274D",
"9@	c #A2283C",
"0@	c #DF2417",
"a@	c #702A49",
"b@	c #222041",
"c@	c #2C3F6A",
"d@	c #0A90CC",
"e@	c #242143",
"f@	c #275483",
"g@	c #0398D6",
"h@	c #255B8B",
"i@	c #2D2951",
"j@	c #332E52",
"k@	c #A88B39",
"l@	c #D2AD22",
"m@	c #736148",
"n@	c #302C52",
"o@	c #752A48",
"p@	c #AE2734",
"q@	c #342950",
"r@	c #2B264A",
"s@	c #9E283D",
"t@	c #D8241C",
"u@	c #5C2B4E",
"v@	c #1E1C39",
"w@	c #221E3E",
"x@	c #2A4874",
"y@	c #0694D1",
"z@	c #1481B9",
"A@	c #221E3F",
"B@	c #284F7D",
"C@	c #0496D3",
"D@	c #0398D5",
"E@	c #275280",
"F@	c #554850",
"G@	c #DCB51E",
"H@	c #CDAA26",
"I@	c #3E3752",
"J@	c #872A43",
"K@	c #E32313",
"L@	c #9F283D",
"M@	c #2C274B",
"N@	c #0A0919",
"O@	c #2A2549",
"P@	c #94293F",
"Q@	c #502B50",
"R@	c #262244",
"S@	c #275381",
"T@	c #187BB2",
"U@	c #2F305A",
"V@	c #2A4A76",
"W@	c #0695D1",
"X@	c #201E3C",
"Y@	c #0C0A1C",
"Z@	c #2D294E",
"`@	c #907841",
" #	c #EDC311",
".#	c #F1C60D",
"+#	c #F1C70D",
"@#	c #F7CC05",
"##	c #CFAB25",
"$#	c #3F3752",
"%#	c #17142D",
"&#	c #9C293D",
"*#	c #E32312",
"=#	c #912940",
"-#	c #2D294F",
";#	c #8A2A42",
">#	c #C32628",
",#	c #422B51",
"'#	c #2A274D",
")#	c #245C8D",
"!#	c #0694D0",
"~#	c #30305A",
"{#	c #2D3E69",
"]#	c #177AB1",
"^#	c #0B8FCA",
"/#	c #2C3E68",
"(#	c #363054",
"_#	c #4D4251",
":#	c #504451",
"<#	c #514551",
"[#	c #8B7442",
"}#	c #EBC113",
"|#	c #181630",
"1#	c #30284F",
"2#	c #A82838",
"3#	c #CC2523",
"4#	c #672B4B",
"5#	c #342C55",
"6#	c #C52527",
"7#	c #B9262E",
"8#	c #392A51",
"9#	c #0E0C1F",
"0#	c #206B9D",
"a#	c #0497D3",
"b#	c #1779B0",
"c#	c #0D8CC6",
"d#	c #1186BF",
"e#	c #2E365F",
"f#	c #17152D",
"g#	c #0C0A1B",
"h#	c #302C51",
"i#	c #7B6747",
"j#	c #EAC012",
"k#	c #1A1833",
"l#	c #392A50",
"m#	c #B8272F",
"n#	c #D5241D",
"o#	c #AB2732",
"p#	c #302D57",
"q#	c #1F6EA1",
"r#	c #157FB7",
"s#	c #2E3059",
"t#	c #201D3B",
"u#	c #342F54",
"v#	c #060512",
"w#	c #0B0A1A",
"x#	c #594C50",
"y#	c #DFB81B",
"z#	c #3C2B52",
"A#	c #BB262D",
"B#	c #E72310",
"C#	c #9B293E",
"D#	c #2D3E6A",
"E#	c #1382BB",
"F#	c #019CD9",
"G#	c #1C75AA",
"H#	c #302B50",
"I#	c #997F3E",
"J#	c #C5A32A",
"K#	c #816C43",
"L#	c #483F52",
"M#	c #2F2B52",
"N#	c #302B53",
"O#	c #4C4252",
"P#	c #C7A42A",
"Q#	c #2C274D",
"R#	c #6B2B4B",
"S#	c #D12420",
"T#	c #832A44",
"U#	c #03030A",
"V#	c #2C406B",
"W#	c #206C9F",
"X#	c #2A284E",
"Y#	c #090716",
"Z#	c #5A4C4F",
"`#	c #E1B91A",
" $	c #E4BC16",
".$	c #C6A32B",
"+$	c #C09F2E",
"@$	c #D6B022",
"#$	c #FACD02",
"$$	c #CCA828",
"%$	c #3D3552",
"&$	c #121126",
"*$	c #110F23",
"=$	c #2D284E",
"-$	c #6E2B4A",
";$	c #D2241F",
">$	c #E02416",
",$	c #732A48",
"'$	c #222040",
")$	c #2C416D",
"!$	c #1185BE",
"~$	c #245E8E",
"{$	c #322C50",
"]$	c #FDCF00",
"^$	c #F5C909",
"/$	c #8C7542",
"($	c #2C294D",
"_$	c #2D284F",
":$	c #712A49",
"<$	c #D9241B",
"[$	c #5F2B4D",
"}$	c #1F1C3B",
"|$	c #010102",
"1$	c #2C436F",
"2$	c #1187C0",
"3$	c #0794D0",
"4$	c #28507E",
"5$	c #C5A22C",
"6$	c #403852",
"7$	c #1A1832",
"8$	c #2E2950",
"9$	c #742A49",
"0$	c #4F2B50",
"a$	c #0F88C2",
"b$	c #0496D4",
"c$	c #1183BC",
"d$	c #216596",
"e$	c #2F2E58",
"f$	c #3E3754",
"g$	c #8C7442",
"h$	c #D4AF20",
"i$	c #E9C014",
"j$	c #6C5B4B",
"k$	c #272346",
"l$	c #05040E",
"m$	c #2F2950",
"n$	c #772A47",
"o$	c #D6241C",
"p$	c #D8241A",
"q$	c #B4272F",
"r$	c #822A44",
"s$	c #4B2C51",
"t$	c #2B4672",
"u$	c #0F89C3",
"v$	c #216597",
"w$	c #080714",
"x$	c #3E3654",
"y$	c #846E44",
"z$	c #CFAB23",
"A$	c #F7CB05",
"B$	c #F8CB05",
"C$	c #F1C60B",
"D$	c #E9C010",
"E$	c #DAB418",
"F$	c #CBA822",
"G$	c #BF9E2A",
"H$	c #AC8E37",
"I$	c #766347",
"J$	c #322D51",
"K$	c #000002",
"L$	c #4C2C51",
"M$	c #322C54",
"N$	c #1F1C39",
"O$	c #0E0D20",
"P$	c #236091",
"Q$	c #302F59",
"R$	c #242042",
"S$	c #060612",
"T$	c #070512",
"U$	c #3B3454",
"V$	c #776447",
"W$	c #8E7641",
"X$	c #746147",
"Y$	c #64554A",
"Z$	c #4E434F",
"`$	c #413953",
" %	c #3A3454",
".%	c #302C54",
"+%	c #302A51",
"@%	c #702B49",
"#%	c #802A44",
"$%	c #4C2C50",
"%%	c #0F0D21",
"&%	c #2B284E",
"*%	c #2E2A53",
"=%	c #1A1732",
"-%	c #16132B",
";%	c #090817",
">%	c #16142D",
",%	c #020208",
". . . . . + @ # $ % & * = - ; . . ; > , ' ) ! ~ { ] ^ / @ ( _ = : * < [ } | 1 . . . . . . 2 3 4 5 & * 6 7 8 9 . . . . ",
". . . . 0 a b c d e f g h i j k . l m n o o p q r s t u v w x y z A B C D E F . . . . G H I J K L M N O P Q R . . . . ",
". . G S 6 T U V W W W X Y Z `  .G S ..+.@.#.$.%.&.*.=.-.;.;.>.,.'.'.'.).!.~.; . . . 9 {.& ].^././././.(._.:.E <.. . . ",
". G [.* }.|.V W W W W W W 1.2.3.R 2 4.5.6.6.6.6.6.6.6.6.6.6.6.6.6.6.6.7.8.9.G . . 0.a.b.c.d./././././././.e.f.g.h.. . ",
"G i.3.j.k.W W W W W W W W W l.m.n.i.o.p.6.6.6.6.6.6.6.6.6.6.6.6.6.6.6.q.r.s.. . 0.t.u.v.w././././././././.x.y.z.] A.. ",
"B.C.D.E.W W W W W W W W W W W F.G.H.I.J.K.6.6.6.6.6.6.6.6.6.6.6.6.6.L.M.N.O.. . P.3 Q.R././././././././././.S.T.U.j k ",
"V.W.X.Y.W W W W W W W W W W W V Z.`. +.+K.6.6.6.6.++@+#+#+#+#+#+#+#+$+%+&+P.. . *+=+-+;+/././././././././././.>+,+'+a.",
")+6 !+~+W W W W W W W W W W W W {+]+^+/+K.6.6.6.6.(+_+:+:+:+:+:+<+<+<+[+{ }+. . |+1+2+/././././././././././././.R.3+4+",
"5+6+7+8+W W W 8+9+0+a+W W W W W W b+c+d+K.6.6.6.6.e+f+g+h+h+h+h+= t.i+l j+. . . k+l+m+/./././.n+o+p+q+/././././.x.r+s+",
"t+u+v+W W W W w+x+y+z+A+8+W W W W B+C+D+E+6.6.6.6.F+G+H+I+I+I+J+K+L+^ <.G . . . M+N+O+/./././.P+Q+R+S+^././././.T+U+& ",
"V+W+X+W W W W Y+Z+W.3.`+{+W W W  @.@+@@@++6.6.6.6.6.6.K.K.K.K.E+#@$@%@} &@h.. G ' *@=@/./././.-@;@>@,@'@;+/././.)@v.W.",
"!@~@{@W W W W ]@^@! /@x+w+W W W V (@_@:@<@6.6.6.6.6.6.6.6.6.6.6.6.E+[@}@|@: a.1@2@3@4@/./././.5@6@7@8@9@;+/././.0@a@b@",
"9.c@d@W W W W {@~@t.e@f@g@W W W {+h@i@j@k@-.6.6.6.6.6.6.6.6.6.6.6.6.6.=.l@m@n@i.>@o@>+/./././.p@q@H r@s@x./././.t@u@v@",
"w@x@y@W W W W z@W+V+A@B@C@W W W D@E@~.] F@G@6.6.6.6.6.6.6.6.6.6.6.6.6.6.6.H@I@a.W.J@K@/././.T+L@M@N@O@P@S./././.d.Q@, ",
"R@S@D@W W W W T@U@! 3 V@W@W W W 1.D.X@Y@Z@`@ #.#.#.#.#.#+#@#6.6.6.6.6.6.6.##$#%#r@&#T+/././.*#=#-#t.[ ;#K@/././.>#,#s.",
"'#)#{+W W W W !#g ~#{#]#~+W W W ^#/#' 0.j (#_#:#:#:#:#:#<#[#}#6.6.6.6.6.6.##$#|#1#2#;+/./././.3#4#5#3@6#;+/././.7#8#9#",
"6+0#V W W W W W a#b#c#8+W W W W d#e#f#. g#( C.&@' ' ' ' ! h#i#j#6.6.6.6.6.##$#k#l#m#/./././././.n#o#w././././.;+2#1#5+",
"p#q#V W W W W W W W W W W W W W r#s#[.k t#<+u#: - 2 v#v#w#_ x#y#6.6.6.6.6.##$#- z#A#/././././././.B#/././././.T+C#r@)+",
"n.D#E#F#W W W W W W W W W W W W G#` g#l H#I#J#K#L#L+M#M#N#O#P#E+6.6.6.6.6.##$#t.Q#R#S#/./././././././././././.n+T#( U#",
"N@_ V#F.W W W W W W W W W W W V W#X#Y#] Z#`#6.++ $.$+$+$+$@$#$6.6.6.6.6.6.$$%$&$*$=$-$;$/././././././././././.>$,$'$B.",
". <.H.)$!$W W W W W W W W W W {+~$_ k+{$k@-.6.6.6.6.]$]$]$6.6.6.6.6.6.6.^$/$($5+G k+_$:$=@/./././././././././.<$[$}$|$",
". . g#H.1$2$W W W W W W W W X 3$4$@ >@8.[@6.6.6.6.6.6.6.6.6.6.6.6.6.6.K.5$6$7$9 . G i.8$9$n#/./././././././.x.O+0$t.. ",
". . . |+6 D.a$W W W W W b$c$d$1$e$~ a f$g$h$=.6.6.6.6.6.6.6.6.6.6.6.'.i$j$k$l$. . . G {.m$n$o$/./././.x.p$q$r$s$4+> . ",
". . . . l = t$u$F#C@c$v$}.y+} ~.a.j+w$9.[ x$y$z$A$'.;.B$C$D$E$F$G$H$C I$J$k+. . . . . K$s.b.3+w.x.p$q$r$L$M$6 N$H k . ",
". . . . . O$: D.P$}.Q$} R$a.S$|$. . . G T$' * U$V$W$X$Y$Z$`$ % +.%% * _ j B.. . . . . . 9  .+%@%#%$%M$6 N$R 1@G . . . ",
". . . . . G %%&%*%e@a.v#|$. . . . . . . . G l$t.H.* W.C.t#=%-%*$;%h.; 0.G . . . . . . . . |$>%% * ! H ,%G . . . . . . "};
