/* XPM */
static char * C:\Users\joaoc\Downloads\MINIX_LCOM\MINIX_LCOM\shared\proj\screens\XPM\Level\level_1_XPM[] = {
"25 26 195 2",
"  	c None",
". 	c #000000",
"+ 	c #04040E",
"@ 	c #151532",
"# 	c #24254D",
"$ 	c #262751",
"% 	c #25264F",
"& 	c #24254E",
"* 	c #23234B",
"= 	c #202046",
"- 	c #1E1E42",
"; 	c #1D1D3F",
"> 	c #1C1C3E",
", 	c #14142E",
"' 	c #010105",
") 	c #010106",
"! 	c #0E0E24",
"~ 	c #202045",
"{ 	c #27325E",
"] 	c #20598A",
"^ 	c #1B6DA1",
"/ 	c #1C6A9E",
"( 	c #1D6497",
"_ 	c #1F5C8E",
": 	c #215485",
"< 	c #215282",
"[ 	c #224E7D",
"} 	c #273966",
"| 	c #040410",
"1 	c #000002",
"2 	c #070718",
"3 	c #1A1A3B",
"4 	c #262A54",
"5 	c #234B79",
"6 	c #147BB2",
"7 	c #0397D4",
"8 	c #019BD9",
"9 	c #019AD8",
"0 	c #019AD7",
"a 	c #0299D6",
"b 	c #0298D6",
"c 	c #0495D2",
"d 	c #1F5F91",
"e 	c #222249",
"f 	c #03030C",
"g 	c #14142F",
"h 	c #23244C",
"i 	c #263B68",
"j 	c #1A6B9F",
"k 	c #0791CC",
"l 	c #009BD9",
"m 	c #009CDA",
"n 	c #215585",
"o 	c #1F1F44",
"p 	c #020208",
"q 	c #0D0D22",
"r 	c #1F1F43",
"s 	c #27305C",
"t 	c #0E87C0",
"u 	c #0496D3",
"v 	c #234B7A",
"w 	c #1C1B3D",
"x 	c #010103",
"y 	c #181836",
"z 	c #262852",
"A 	c #244876",
"B 	c #1579B0",
"C 	c #0792CE",
"D 	c #25416F",
"E 	c #191838",
"F 	c #000001",
"G 	c #273663",
"H 	c #1081BA",
"I 	c #0A8CC7",
"J 	c #273965",
"K 	c #0C0C21",
"L 	c #252750",
"M 	c #1F5D8F",
"N 	c #0E85BF",
"O 	c #27335F",
"P 	c #111129",
"Q 	c #010102",
"R 	c #141430",
"S 	c #272F5A",
"T 	c #1872A7",
"U 	c #098EC9",
"V 	c #019BD8",
"W 	c #137DB4",
"X 	c #272C57",
"Y 	c #0C0C20",
"Z 	c #020209",
"` 	c #1083BC",
" .	c #0D88C1",
"..	c #244978",
"+.	c #0791CD",
"@.	c #1776AC",
"#.	c #262953",
"$.	c #070716",
"%.	c #234D7C",
"&.	c #0D87C1",
"*.	c #196FA4",
"=.	c #263D6A",
"-.	c #272853",
";.	c #273C69",
">.	c #098ECA",
",.	c #050511",
"'.	c #0E0E25",
").	c #252852",
"!.	c #263B69",
"~.	c #262C57",
"{.	c #1B1B3D",
"].	c #1A1A3A",
"^.	c #263C68",
"/.	c #1E6193",
"(.	c #212248",
"_.	c #03030B",
":.	c #010104",
"<.	c #151531",
"[.	c #101028",
"}.	c #020207",
"|.	c #161633",
"1.	c #215383",
"2.	c #234978",
"3.	c #1B1B3C",
"4.	c #25406D",
"5.	c #181837",
"6.	c #0B8BC6",
"7.	c #273864",
"8.	c #13132E",
"9.	c #0E84BD",
"0.	c #101029",
"a.	c #02020A",
"b.	c #080819",
"c.	c #09091C",
"d.	c #1F1E43",
"e.	c #1E1E41",
"f.	c #1C1B3C",
"g.	c #191938",
"h.	c #171735",
"i.	c #1F1F42",
"j.	c #263C69",
"k.	c #147CB3",
"l.	c #282D58",
"m.	c #1D1D40",
"n.	c #212147",
"o.	c #272B57",
"p.	c #22234A",
"q.	c #050512",
"r.	c #12122B",
"s.	c #282E5A",
"t.	c #205686",
"u.	c #224F7E",
"v.	c #244775",
"w.	c #254371",
"x.	c #25416E",
"y.	c #263E6B",
"z.	c #0692CE",
"A.	c #137EB5",
"B.	c #26406E",
"C.	c #254471",
"D.	c #215180",
"E.	c #1B6A9E",
"F.	c #1775AB",
"G.	c #1B6599",
"H.	c #262B55",
"I.	c #0A0A1D",
"J.	c #263A66",
"K.	c #0A8BC6",
"L.	c #0594D0",
"M.	c #088FCB",
"N.	c #0298D5",
"O.	c #0890CB",
"P.	c #0F83BC",
"Q.	c #27315D",
"R.	c #253F6C",
"S.	c #098DC8",
"T.	c #263B67",
"U.	c #1C1C3D",
"V.	c #234877",
"W.	c #0693D0",
"X.	c #244573",
"Y.	c #225080",
"Z.	c #0398D5",
"`.	c #201F44",
" +	c #222248",
".+	c #205787",
"++	c #1E6194",
"@+	c #24244D",
"#+	c #25254D",
"$+	c #244675",
"%+	c #1C699D",
"&+	c #1B6B9E",
"*+	c #272753",
"=+	c #25264E",
"-+	c #22224A",
". . . . . . . + @ # $ % & * = - ; > , ' . . . . . ",
". . . . . ) ! ~ { ] ^ / ( _ : < [ } * | . . . . . ",
". . . 1 2 3 4 5 6 7 8 8 9 0 a b c d e f . . . . . ",
". . f g h i j k l m m m m m m m a n o p . . . . . ",
"' q r s ] t 0 m m m m m m m m m u v w x . . . . . ",
"y z A B u m m m m m m m m m m m C D E F . . . . . ",
"~ G H 8 m m m m m m m m m m m m I J g . . . . . . ",
"K L M u m m m m m m m m m m m m N O P . . . . . . ",
"Q R S T 9 m m m u U V m m m m m W X Y . . . . . . ",
". Z > i ` m 9  .] ..+.m m m m m @.#.2 . . . . . . ",
". . $.e %.&.*.=.-.;.>.m m m m 8 / # ,.. . . . . . ",
". . F '.).!.~.{.].^.>.m m m m 9 /.(._.. . . . . . ",
". . . :.<.r [.}.|.^.>.m m m m b 1.r }.. . . . . . ",
". . . . x Z F . |.^.>.m m m m u 2.3.x . . . . . . ",
". . . . . . . . |.^.>.m m m m +.4.5.F . . . . . . ",
". . . . . . . . |.^.>.m m m m 6.7.8.. . . . . . . ",
"F p p ) ' x 1 F |.^.>.m m m m 9.{ 0.' a.| b.q c.1 ",
"b.- o d.e.f.g.h.i.j.>.m m m m k.l.m.e.n.# z o.p.q.",
"r.s.< t.u.v.w.x.y.%.z.m m m m A.B.C.D._ E.F.G.H.I.",
"R J.K.a 7 c L.z.M.+.8 m m m m N.O.L.7 0 8 m P.Q.[.",
"y R.+.m m m m m m m m m m m m m m m m m m m S.T.<.",
"U.V.c m m m m m m m m m m m m m m m m m m m W.X.3.",
"e.Y.Z.m m m m m m m m m m m m m m m m m m m N.< `.",
" +.+N.8 8 8 8 8 8 8 8 8 8 8 8 8 8 8 8 8 8 8 a ++@+",
"#+$+%+&+&+&+&+&+&+&+&+&+&+&+&+&+&+&+&+&+&+&+/ %.*+",
"i.=+% % % % % % % % % % % % % % % % % % % % % =+-+"};
