/* XPM */
static char * C:\Users\joaoc\Downloads\MINIX_LCOM\MINIX_LCOM\shared\proj\screens\XPM\Level\level_3_XPM[] = {
"19 26 224 2",
"  	c None",
". 	c #000000",
"+ 	c #020207",
"@ 	c #1B1833",
"# 	c #2B284E",
"$ 	c #2B274D",
"% 	c #262244",
"& 	c #201D3C",
"* 	c #191630",
"= 	c #131127",
"- 	c #0A0918",
"; 	c #04040D",
"> 	c #010102",
", 	c #070614",
"' 	c #231F40",
") 	c #2E3059",
"! 	c #265988",
"~ 	c #236091",
"{ 	c #284E7C",
"] 	c #2C406C",
"^ 	c #2E355F",
"/ 	c #2F2F59",
"( 	c #2F2B54",
"_ 	c #2C2950",
": 	c #1E1B38",
"< 	c #020105",
"[ 	c #000001",
"} 	c #100E22",
"| 	c #29254A",
"1 	c #2E3A65",
"2 	c #1A75AA",
"3 	c #0298D6",
"4 	c #009CDA",
"5 	c #019BD9",
"6 	c #0397D4",
"7 	c #0791CD",
"8 	c #0F86BF",
"9 	c #157BB2",
"0 	c #245D8D",
"a 	c #2D2C54",
"b 	c #110F24",
"c 	c #020206",
"d 	c #191731",
"e 	c #2D2A52",
"f 	c #2A4A77",
"g 	c #1186BF",
"h 	c #0892CD",
"i 	c #2A4976",
"j 	c #252244",
"k 	c #04030B",
"l 	c #232040",
"m 	c #2E2F59",
"n 	c #245E8E",
"o 	c #009BD9",
"p 	c #1979AF",
"q 	c #2E315A",
"r 	c #17152D",
"s 	c #2E2A53",
"t 	c #275180",
"u 	c #0595D2",
"v 	c #0596D3",
"w 	c #275685",
"x 	c #070613",
"y 	c #1C1A36",
"z 	c #2E3660",
"A 	c #1580B7",
"B 	c #0299D6",
"C 	c #1384BC",
"D 	c #2E3862",
"E 	c #1D1A36",
"F 	c #010103",
"G 	c #050510",
"H 	c #272448",
"I 	c #294D7B",
"J 	c #0793CF",
"K 	c #019AD7",
"L 	c #0F89C4",
"M 	c #226092",
"N 	c #284F7E",
"O 	c #0E8BC5",
"P 	c #0299D7",
"Q 	c #236293",
"R 	c #2B2950",
"S 	c #0B091A",
"T 	c #121126",
"U 	c #2D2D55",
"V 	c #1E6EA1",
"W 	c #1285BE",
"X 	c #255888",
"Y 	c #2F355F",
"Z 	c #2E2A52",
"` 	c #2F2C55",
" .	c #28517F",
"..	c #0398D5",
"+.	c #245E8F",
"@.	c #2C294F",
"#.	c #0C0A1B",
"$.	c #2E3661",
"%.	c #294977",
"&.	c #2F325C",
"*.	c #221F3F",
"=.	c #2A274C",
"-.	c #1F6B9E",
";.	c #1978AF",
">.	c #2E325B",
",.	c #1A1732",
"'.	c #090717",
").	c #282549",
"!.	c #201D3B",
"~.	c #2E2C54",
"{.	c #294B78",
"].	c #1284BC",
"^.	c #019AD8",
"/.	c #0E8CC6",
"(.	c #2C426E",
"_.	c #242142",
":.	c #03030B",
"<.	c #04030C",
"[.	c #030209",
"}.	c #16142C",
"|.	c #206698",
"1.	c #0694D0",
"2.	c #1C74AA",
"3.	c #30305A",
"4.	c #1A1833",
"5.	c #2D3C67",
"6.	c #0C8EC9",
"7.	c #1D6EA2",
"8.	c #2E3761",
"9.	c #0E0C1E",
"0.	c #2B426E",
"a.	c #0B8FCA",
"b.	c #019BD8",
"c.	c #1381BA",
"d.	c #010002",
"e.	c #05040F",
"f.	c #1D1A37",
"g.	c #2F2E58",
"h.	c #2A4875",
"i.	c #1D6B9F",
"j.	c #0D8BC6",
"k.	c #0399D6",
"l.	c #226495",
"m.	c #2A284E",
"n.	c #1F1C3A",
"o.	c #17152E",
"p.	c #252144",
"q.	c #2F345E",
"r.	c #294D7A",
"s.	c #167CB2",
"t.	c #21679A",
"u.	c #18162F",
"v.	c #2C3F6B",
"w.	c #2E305A",
"x.	c #1F1C3B",
"y.	c #090716",
"z.	c #18152F",
"A.	c #2C284E",
"B.	c #255B8B",
"C.	c #216A9D",
"D.	c #010104",
"E.	c #2D2C55",
"F.	c #245C8D",
"G.	c #0890CC",
"H.	c #1E6EA2",
"I.	c #2E325C",
"J.	c #201E3C",
"K.	c #0D0C1E",
"L.	c #2B274E",
"M.	c #245F90",
"N.	c #029AD7",
"O.	c #206C9F",
"P.	c #2B294F",
"Q.	c #2E2D56",
"R.	c #245F8F",
"S.	c #0595D1",
"T.	c #1C71A6",
"U.	c #2F2D56",
"V.	c #2F3660",
"W.	c #177BB2",
"X.	c #206EA1",
"Y.	c #0792CE",
"Z.	c #1480B8",
"`.	c #167DB4",
" +	c #0A8FCA",
".+	c #1F6A9D",
"++	c #0398D6",
"@+	c #206CA0",
"#+	c #2E2B53",
"$+	c #1D1B37",
"%+	c #272447",
"&+	c #2E3159",
"*+	c #1F6CA0",
"=+	c #0E8AC4",
"-+	c #2B4672",
";+	c #0A0819",
">+	c #030208",
",+	c #1E1C3A",
"'+	c #1F6B9F",
")+	c #088FCB",
"!+	c #0594D1",
"~+	c #019CD9",
"{+	c #0B8EC9",
"]+	c #2A4A78",
"^+	c #2A264C",
"/+	c #0D0B1D",
"(+	c #2E335E",
"_+	c #2D3762",
":+	c #2B426F",
"<+	c #294B79",
"[+	c #265483",
"}+	c #226394",
"|+	c #206B9E",
"1+	c #1C72A6",
"2+	c #28507E",
"3+	c #2B284F",
"4+	c #121025",
"5+	c #1C1935",
"6+	c #211E3D",
"7+	c #242041",
"8+	c #282548",
"9+	c #2D2950",
"0+	c #302C55",
"a+	c #141229",
". . . . + @ # $ % & * = - ; > . . . . ",
". . . , ' ) ! ~ { ] ^ / ( _ : < . . . ",
". [ } | 1 2 3 4 5 6 7 8 9 0 a b . . . ",
"c d e f g 5 4 4 4 4 4 4 4 h i j k . . ",
"l m n h 4 4 4 4 4 4 4 4 4 o p q r [ . ",
"s t u 4 4 4 4 4 4 4 4 4 4 4 v w | x . ",
"y z A 4 4 4 4 4 5 B 4 4 4 4 4 C D E F ",
"G H I J 4 4 K L M N O 4 4 4 4 P Q R S ",
". T U V 6 W X Y Z `  .u 4 4 4 ..+.@.#.",
". < & $.%.&.$ *.=.$.-.3 4 4 5 ;.>.,.> ",
". . '.).| ,.!.~.{.].^.4 4 4 /.(._.:.. ",
". . [ <.[.}./ |.1.4 4 4 4 o 2.3.*.G . ",
". . . . . 4.5.6.4 4 4 4 4 4 6 7.8.H 9.",
". . . . [ : 0.a.4 4 4 4 4 4 4 b.c.(.).",
". . . d.e.f.g.h.i.j.k.4 4 4 4 4 ^.l.m.",
". . F r # n.o.p.Z q.r.s.5 4 4 4 ^.t.# ",
". F u.~.v.w.x.<.y.z.A.B.P 4 4 4 b.C.# ",
"D.* E.F.G.H.I.J.K.,.L.M.N.4 4 4 5 O.P.",
"4.Q.R.S.4 P T.q.U.V.i W.5 4 4 4 5 X._ ",
"( {.Y.4 4 4 N.Z.`. +3 4 4 4 4 4 5 X.e ",
": ) .+++4 4 4 4 4 4 4 4 4 4 4 4 5 @+#+",
"c $+) -.B 4 4 4 4 4 4 4 4 4 4 4 g ] %+",
". + : &+*+B 4 4 4 4 4 4 4 4 4 =+-+| ;+",
". . >+,+q '+)+!+..b.~+4 4 4 {+]+^+/+. ",
". . . >+x.U.(+_+:+<+[+}+|+1+2+3+} . . ",
". . . . + 4+r 5+6+7+8+$ 9+0+Z a+[ . . "};
