/* XPM */
static char * C:\Users\joaoc\Downloads\MINIX_LCOM\MINIX_LCOM\shared\proj\screens\XPM\Cannon\Pos3_XPM[] = {
"50 41 381 2",
"  	c None",
". 	c #000000",
"+ 	c #010101",
"@ 	c #070707",
"# 	c #040404",
"$ 	c #13100F",
"% 	c #403836",
"& 	c #1D1918",
"* 	c #120E0D",
"= 	c #604C45",
"- 	c #866A60",
"; 	c #6A564F",
"> 	c #020101",
", 	c #302825",
"' 	c #897269",
") 	c #8C6E63",
"! 	c #8B6E63",
"~ 	c #3B312E",
"{ 	c #020202",
"] 	c #6B5952",
"^ 	c #8C6F64",
"/ 	c #735D55",
"( 	c #030202",
"_ 	c #423935",
": 	c #5E473F",
"< 	c #8B6E64",
"[ 	c #856A5F",
"} 	c #493C37",
"| 	c #211917",
"1 	c #392D28",
"2 	c #7E6860",
"3 	c #7C5F54",
"4 	c #6E4F44",
"5 	c #7F6055",
"6 	c #8D6F64",
"7 	c #675149",
"8 	c #16110F",
"9 	c #251E1B",
"0 	c #54433C",
"a 	c #735C53",
"b 	c #8A6D62",
"c 	c #85675C",
"d 	c #735349",
"e 	c #725248",
"f 	c #886A5F",
"g 	c #896D62",
"h 	c #41342E",
"i 	c #100D0C",
"j 	c #54423C",
"k 	c #725A52",
"l 	c #7C5D53",
"m 	c #6F5045",
"n 	c #7E5F54",
"o 	c #745E56",
"p 	c #070504",
"q 	c #040303",
"r 	c #100B09",
"s 	c #534642",
"t 	c #7E645B",
"u 	c #866A5F",
"v 	c #896B60",
"w 	c #705146",
"x 	c #735449",
"y 	c #8A6D63",
"z 	c #38302E",
"A 	c #1B1E20",
"B 	c #545C5F",
"C 	c #3E4446",
"D 	c #090706",
"E 	c #2E2420",
"F 	c #4E403B",
"G 	c #82685E",
"H 	c #6E4E43",
"I 	c #7D5E53",
"J 	c #8B6D62",
"K 	c #7A6158",
"L 	c #43494C",
"M 	c #ACBBC2",
"N 	c #89959A",
"O 	c #010202",
"P 	c #392E2B",
"Q 	c #5F4B43",
"R 	c #745C53",
"S 	c #795A50",
"T 	c #6F5249",
"U 	c #6D544C",
"V 	c #6B544C",
"W 	c #705950",
"X 	c #81685F",
"Y 	c #614D45",
"Z 	c #272A2C",
"` 	c #ACBBC1",
" .	c #A1AFB5",
"..	c #565F62",
"+.	c #312925",
"@.	c #6A564E",
"#.	c #7C635A",
"$.	c #78594E",
"%.	c #84675C",
"&.	c #715A51",
"*.	c #40312C",
"=.	c #181311",
"-.	c #151211",
";.	c #413633",
">.	c #050303",
",.	c #747E83",
"'.	c #ABBAC1",
").	c #A5B4BA",
"!.	c #4E5559",
"~.	c #120E0C",
"{.	c #2B2320",
"].	c #75615A",
"^.	c #83675D",
"/.	c #806156",
"(.	c #705045",
"_.	c #76574D",
":.	c #876A60",
"<.	c #50403A",
"[.	c #251D19",
"}.	c #1A1D1E",
"|.	c #717B7F",
"1.	c #A6B3B9",
"2.	c #A2A9AC",
"3.	c #66534C",
"4.	c #8B6F65",
"5.	c #816257",
"6.	c #886B61",
"7.	c #745D55",
"8.	c #372D29",
"9.	c #14100F",
"0.	c #564B47",
"a.	c #8D8583",
"b.	c #917A73",
"c.	c #6F4F44",
"d.	c #76574C",
"e.	c #82685F",
"f.	c #5A4741",
"g.	c #1C1816",
"h.	c #0D0807",
"i.	c #4B3F3C",
"j.	c #765E55",
"k.	c #856A60",
"l.	c #876A5F",
"m.	c #6E5249",
"n.	c #644942",
"o.	c #644B43",
"p.	c #76584D",
"q.	c #816358",
"r.	c #6B554E",
"s.	c #3F3330",
"t.	c #332926",
"u.	c #46342F",
"v.	c #6A4F47",
"w.	c #896C61",
"x.	c #765A51",
"y.	c #4F3630",
"z.	c #4E342E",
"A.	c #5A3D36",
"B.	c #694A41",
"C.	c #765D54",
"D.	c #4F413C",
"E.	c #3D2B26",
"F.	c #6C534B",
"G.	c #7A5B50",
"H.	c #6E534B",
"I.	c #664B44",
"J.	c #7A5B4A",
"K.	c #B9833E",
"L.	c #9B6E39",
"M.	c #715446",
"N.	c #503630",
"O.	c #3C2C28",
"P.	c #050504",
"Q.	c #594037",
"R.	c #6E544B",
"S.	c #4F352F",
"T.	c #563A30",
"U.	c #735547",
"V.	c #9E7961",
"W.	c #FFB74D",
"X.	c #CB9452",
"Y.	c #8D6E60",
"Z.	c #6A5149",
"`.	c #3C2722",
" +	c #4B322C",
".+	c #301F1B",
"++	c #1B1614",
"@+	c #5E443B",
"#+	c #77584D",
"$+	c #7C6056",
"%+	c #513731",
"&+	c #533830",
"*+	c #CB934A",
"=+	c #D09756",
"-+	c #927162",
";+	c #987560",
">+	c #EBA94A",
",+	c #C79257",
"'+	c #624D45",
")+	c #705025",
"!+	c #E7A646",
"~+	c #A9783B",
"{+	c #53382E",
"]+	c #452E29",
"^+	c #1E1310",
"/+	c #18100E",
"(+	c #5D4239",
"_+	c #715147",
":+	c #84665B",
"<+	c #8A6C62",
"[+	c #543B34",
"}+	c #694D43",
"|+	c #E3A452",
"1+	c #F5B04B",
"2+	c #CB9457",
"3+	c #B3844F",
"4+	c #AD7B32",
"5+	c #090501",
"6+	c #AB7A31",
"7+	c #EDAA47",
"8+	c #C78F3B",
"9+	c #61432A",
"0+	c #33211D",
"a+	c #050202",
"b+	c #150F0E",
"c+	c #5C4239",
"d+	c #795A4F",
"e+	c #8A6C61",
"f+	c #563C35",
"g+	c #84675D",
"h+	c #927160",
"i+	c #B88857",
"j+	c #E5A550",
"k+	c #6F5440",
"l+	c #865F2A",
"m+	c #956A2A",
"n+	c #A3742E",
"o+	c #E4A344",
"p+	c #896126",
"q+	c #1E120F",
"r+	c #472F2A",
"s+	c #170D0A",
"t+	c #0D0908",
"u+	c #4F3E38",
"v+	c #6B4E44",
"w+	c #705046",
"x+	c #83655A",
"y+	c #6C5148",
"z+	c #8C6D62",
"A+	c #8D6F63",
"B+	c #745B51",
"C+	c #76542B",
"D+	c #9A6E2D",
"E+	c #33220A",
"F+	c #3B290D",
"G+	c #714F1D",
"H+	c #6A4A1B",
"I+	c #050301",
"J+	c #211410",
"K+	c #1C110E",
"L+	c #4C3C37",
"M+	c #6D4E43",
"N+	c #634840",
"O+	c #B88340",
"P+	c #F9B34E",
"Q+	c #F8B34E",
"R+	c #BF893B",
"S+	c #36250C",
"T+	c #2A1B0D",
"U+	c #392621",
"V+	c #0E0706",
"W+	c #402C0F",
"X+	c #BF8939",
"Y+	c #F6B04A",
"Z+	c #E0A145",
"`+	c #53382D",
" @	c #65514B",
".@	c #60453D",
"+@	c #986B35",
"@@	c #CA903B",
"#@	c #B58135",
"$@	c #5A3F16",
"%@	c #1F150B",
"&@	c #3C2723",
"*@	c #402B23",
"=@	c #1D120C",
"-@	c #5D4119",
";@	c #C18A39",
">@	c #B98439",
",@	c #52372E",
"'@	c #3A2F2C",
")@	c #6E534A",
"!@	c #6E4F45",
"~@	c #543C34",
"{@	c #705248",
"]@	c #6A4D43",
"^@	c #3B2722",
"/@	c #060303",
"(@	c #A97830",
"_@	c #3D2A0F",
":@	c #38270D",
"<@	c #473213",
"[@	c #B07D33",
"}@	c #3E2B10",
"|@	c #060403",
"1@	c #2E231F",
"2@	c #2F201B",
"3@	c #160E0C",
"4@	c #45352F",
"5@	c #6B4F46",
"6@	c #6C5249",
"7@	c #3E2D28",
"8@	c #1C100E",
"9@	c #281B08",
"0@	c #A47530",
"a@	c #ECA947",
"b@	c #422D0E",
"c@	c #8C6327",
"d@	c #A0722E",
"e@	c #67481B",
"f@	c #DD9F42",
"g@	c #100902",
"h@	c #1F1310",
"i@	c #422C27",
"j@	c #130A08",
"k@	c #1F1B19",
"l@	c #5C4B46",
"m@	c #62473E",
"n@	c #503B34",
"o@	c #070303",
"p@	c #412B26",
"q@	c #412C21",
"r@	c #F9B34B",
"s@	c #F0AC48",
"t@	c #896125",
"u@	c #1B1103",
"v@	c #A77730",
"w@	c #010100",
"x@	c #825D25",
"y@	c #FEB64D",
"z@	c #AD7B35",
"A@	c #50362C",
"B@	c #2D1C19",
"C@	c #190E0C",
"D@	c #432C27",
"E@	c #53372F",
"F@	c #C98F41",
"G@	c #B07E34",
"H@	c #4B3311",
"I@	c #E8A646",
"J@	c #5A3E16",
"K@	c #C28A3C",
"L@	c #885F35",
"M@	c #452E28",
"N@	c #1D110E",
"O@	c #261815",
"P@	c #4A322C",
"Q@	c #654530",
"R@	c #74512F",
"S@	c #221411",
"T@	c #593D15",
"U@	c #BE8838",
"V@	c #32220A",
"W@	c #1B100D",
"X@	c #48302A",
"Y@	c #040202",
"Z@	c #221614",
"`@	c #4A312B",
" #	c #4E342B",
".#	c #755133",
"+#	c #664630",
"@#	c #4B322B",
"##	c #49312B",
"$#	c #4D332D",
"%#	c #201310",
"&#	c #412B25",
"*#	c #4D332E",
"=#	c #080404",
"-#	c #040302",
";#	c #32201C",
">#	c #35221E",
". . . . . . . . . . . . . . . . . . . . . . . . . . . . . . . . . . . . . . . . . . . . . . . . . . ",
". . . . . . . . . . . . . . . . . . . . . . . . . . . . . . . . . . . . . . . . . . . . . . . . . . ",
". . . . . . . . . . . . . . . . . . . . . . . . . . . . . . . . . . . . . . . . . . . . . . . . . . ",
". . . . . . . . . . . . . . . . . . . . . . . . . . . . . . . . . . . . . . . . . . . . . . . . . . ",
". . . . . . . . . . . . . . . . . . . . . . . . . . . . . . . . + @ . . . . . . . . . . . . . . . . ",
". . . . . . . . . . . . . . . . . . . . . . . . . . . . . . . . . . . . . . . # + . . . . . . . . . ",
". . . . . . . . . . . . . . . . . . . . . . . . . . . . . . . . . . . . . . $ % & . . . . . . . . . ",
". . . . . . . . . . . . . . . . . . . . . . . . . . . . . . . . . . . . . * = - ; > . . . . . . . . ",
". . . . . . . . . . . . . . . . . . . . . . . . . . . . . . . . . . . . . , ' ) ! ~ . . . . . . . . ",
". . . . . . . . . . . . . . . . . . . . . . . . . . . . . . . . . . . . { ] ^ ) ) / ( . . . . . . . ",
". . . . . . . . . . . . . . . . . . . . . . . . . . . . . . . . . . > _ : < ) ) ) [ } . . . . . . . ",
". . . . . . . . . . . . . . . . . . . . . . . . . . . . . . . + | 1 2 3 4 5 ) ) 6 ) 7 8 . . . . . . ",
". . . . . . . . . . . . . . . . . . . . . . . . . . . . . . 9 0 a b ) c d e f ) ) ) g h . . . . . . ",
". . . . . . . . . . . . . . . . . . . . . . . . . . . . i j k b ) ) ) ) l m n ) ) ) ) o p . . . . . ",
". . . . . . . . . . . . . + . . . . . . . . . . . q r s t u ) ) ) ) ) ) v w x c ) ) ) y z . . . . . ",
". . . . . . . . . . . . A B C . . . . . . . . D E F G ! ) ) ) ) ) ) ) ) ) 5 H I J ) ) ) K . . . . . ",
". . . . . . . . . . . . L M N O . . . . . { P Q R m S J ) ) ) ) ) ) ) ) ) v x T U V W X Y . . . . . ",
". . . . . . . . . . . . Z `  ...+ . . . +.@.#.! v $.4 %.) ) ) ) ) ) ) ) ) ! &.*.=.. -.;.>.. . . . . ",
". . . . . . . . . . . . + ,.'.).!.~.{.].^.! ) ) ) /.(._.J ) ) ) ) ) ) ) :.<.[.> . . . . . . . . . . ",
". . . . . . . . . . . . . }.|.1.2.3.4.) ) ) ) ) ) ) $.(.5.) ) ) ) ) 6.7.8.. . . . . . . . . . . . . ",
". . . . . . . . . . . . . 9.0.a.b.) ) ) ) ) ) ) ) ) c c.d.f ) ) ) e.f.g.. . . . . . . . . . . . . . ",
". . . . . . . . . . ( h.i.j.k.^ ) ) ) ) ) b l.m.n.n.o.p.4 q.) y r.s.+ . . . . . . . . . . . . . . . ",
". . . . . . . . { t.u.v.c ) ) ) ) ) ) w.x.y.z.z.z.z.z.z.A.B.C.D.+ . . . . . . . . . . . . . . . . . ",
". . . . . . . . E.F.H H G.J ) ) ) ) %.H.z.z.I.J.K.L.M.N.z.z.O.. . . . . . . . . . . . . . . . . . . ",
". . . . . . . P.Q.H H H H v ) ) ) w.R.S.T.U.l.V.W.X.Y.Z.`.z. +.+. . . . . . . . . . . . . . . . . . ",
". . . . . . . ++@+c.H H H #+) ) ) $+%+&+*+=+-+;+>+,+'+)+!+~+{+]+^+. . . . . . . . . . . . . . . . . ",
". . . . . . . /+(+H H H H _+:+) <+[+z.}+|+1+2+Y.3+4+5+6+7+8+9+z.0+a+. . . . . . . . . . . . . . . . ",
". . . . . . . b+c+H H H H H d+e+e+z.f+g+h+i+j+k+l+m+n+o+p+. q+z.r+s+. . . . . . . . . . . . . . . . ",
". . . . . { t+u+v+H H H H H w+x+e+z.y+z+A+B+C+D+E+F+G+H+I+5+J+z.z.K+. . . . . . . . . . . . . . . . ",
". . . . . . L+M+H H H H H H H $.N+z.O+P+Q+R+S+T+ +U+V+W+X+Y+Z+`+z.K+. . . . . . . . . . . . . . . . ",
". . . . . .  @H H H H H H H H H .@z.+@@@@@#@$@%@&@*@=@-@;@@@>@,@z.K+. . . . . . . . . . . . . . . . ",
". . . . . . '@)@!@~@{@H H H H H ]@z.^@/@. . (@_@:@<@[@}@. . q+z.z.K+. . . . . . . . . . . . . . . . ",
". . . . . . |@1@2@3@4@5@H c.M+6@7@z. +8@9@0@a@b@c@d@e@f@[@g@h@z.i@j@. . . . . . . . . . . . . . . . ",
". . . . . . . . . . + k@l@m@n@* o@p@z.q@r@s@t@u@v@4+w@x@y@z@A@z.B@. . . . . . . . . . . . . . . . . ",
". . . . . . . . . . . . . . . . . C@D@E@F@G@. H@I@4+. J@K@L@z.M@N@. . . . . . . . . . . . . . . . . ",
". . . . . . . . . . . . . . . . . . O@P@Q@R@S@T@W.U@V@W@M@z.X@S@. . . . . . . . . . . . . . . . . . ",
". . . . . . . . . . . . . . . . . . Y@Z@ +z.`@ #.#+#@###$# +%#. . . . . . . . . . . . . . . . . . . ",
". . . . . . . . . . . . . . . . . . . . N@&#p@$#z.z.*#p@0+=#. . . . . . . . . . . . . . . . . . . . ",
". . . . . . . . . . . . . . . . . . . . . . -#;#>#>#0+> . . . . . . . . . . . . . . . . . . . . . . ",
". . . . . . . . . . . . . . . . . . . . . . . . . . . . . . . . . . . . . . . . . . . . . . . . . . ",
". . . . . . . . . . . . . . . . . . . . . . . . . . . . . . . . . . . . . . . . . . . . . . . . . . "};
