/* XPM */
static char * C:\Users\joaoc\Downloads\MINIX_LCOM\MINIX_LCOM\shared\proj\screens\XPM\Cannon\Pos5_XPM[] = {
"50 41 386 2",
"  	c None",
". 	c #000000",
"+ 	c #060606",
"@ 	c #020202",
"# 	c #151819",
"$ 	c #737C81",
"% 	c #4C5255",
"& 	c #040404",
"* 	c #2F2F2F",
"= 	c #1B1B1B",
"- 	c #383D3F",
"; 	c #ADBCC3",
"> 	c #8D999E",
", 	c #222627",
"' 	c #050505",
") 	c #0D0D0D",
"! 	c #101010",
"~ 	c #4F5659",
"{ 	c #AFBEC5",
"] 	c #828D92",
"^ 	c #030303",
"/ 	c #373C3F",
"( 	c #909CA1",
"_ 	c #25292A",
": 	c #010101",
"< 	c #080504",
"[ 	c #080605",
"} 	c #040303",
"| 	c #030202",
"1 	c #020101",
"2 	c #212426",
"3 	c #A1AEB4",
"4 	c #A7B5BC",
"5 	c #43494C",
"6 	c #0B0706",
"7 	c #070606",
"8 	c #392B26",
"9 	c #644F48",
"0 	c #63514B",
"a 	c #53423C",
"b 	c #4F3F39",
"c 	c #4C3D37",
"d 	c #473833",
"e 	c #473A35",
"f 	c #7C7D7F",
"g 	c #A8AFB4",
"h 	c #5D5958",
"i 	c #3E312C",
"j 	c #3D312C",
"k 	c #372C28",
"l 	c #312824",
"m 	c #2F2824",
"n 	c #28211F",
"o 	c #1C1716",
"p 	c #14100E",
"q 	c #0F0D0C",
"r 	c #080606",
"s 	c #0A0807",
"t 	c #4B3C36",
"u 	c #776159",
"v 	c #534540",
"w 	c #3D302C",
"x 	c #6B4E44",
"y 	c #6E4E43",
"z 	c #79594F",
"A 	c #8C6E63",
"B 	c #8D7066",
"C 	c #8C6F64",
"D 	c #8A6F64",
"E 	c #896E64",
"F 	c #83695F",
"G 	c #7C645B",
"H 	c #7A645B",
"I 	c #735E56",
"J 	c #6A554E",
"K 	c #5C4740",
"L 	c #503B34",
"M 	c #5A453D",
"N 	c #5F4A42",
"O 	c #5F4A43",
"P 	c #5D4942",
"Q 	c #5D4A44",
"R 	c #5B4943",
"S 	c #55443D",
"T 	c #4F3F3A",
"U 	c #4A3D38",
"V 	c #463C39",
"W 	c #3B322F",
"X 	c #322C29",
"Y 	c #382F2C",
"Z 	c #5C4A44",
"` 	c #85695F",
" .	c #6A534B",
"..	c #0D0B0A",
"+.	c #191311",
"@.	c #5E473E",
"#.	c #6E4F44",
"$.	c #795A4F",
"%.	c #7E6055",
"&.	c #826459",
"*.	c #8B6E64",
"=.	c #886C61",
"-.	c #856A60",
";.	c #83685F",
">.	c #81685F",
",.	c #71574F",
"'.	c #654B43",
").	c #7B6259",
"!.	c #896D63",
"~.	c #080808",
"{.	c #100D0C",
"].	c #170F0D",
"^.	c #402F2A",
"/.	c #6C4E44",
"(.	c #7A5B50",
"_.	c #7B5C51",
":.	c #6F4F44",
"<.	c #8A6C61",
"[.	c #69534A",
"}.	c #080706",
"|.	c #221B19",
"1.	c #4E3C36",
"2.	c #644B43",
"3.	c #664F48",
"4.	c #7F6055",
"5.	c #8B6D62",
"6.	c #7A5C51",
"7.	c #69524A",
"8.	c #493832",
"9.	c #6E5147",
"0.	c #7B5C52",
"a.	c #0B0808",
"b.	c #493630",
"c.	c #6E5046",
"d.	c #7C5D52",
"e.	c #8A6D62",
"f.	c #876A5F",
"g.	c #6E5249",
"h.	c #644942",
"i.	c #7B5D53",
"j.	c #8D6F64",
"k.	c #060505",
"l.	c #171312",
"m.	c #4E3931",
"n.	c #60443B",
"o.	c #694E44",
"p.	c #7D5E54",
"q.	c #896C61",
"r.	c #765A51",
"s.	c #4F3630",
"t.	c #4E342E",
"u.	c #5A3D36",
"v.	c #775A50",
"w.	c #8A6C62",
"x.	c #070505",
"y.	c #010000",
"z.	c #110E0C",
"A.	c #4B3831",
"B.	c #7E5F54",
"C.	c #84675C",
"D.	c #6E534B",
"E.	c #664B44",
"F.	c #7A5B4A",
"G.	c #B9833E",
"H.	c #9B6E39",
"I.	c #715446",
"J.	c #503630",
"K.	c #755950",
"L.	c #050404",
"M.	c #3B2D28",
"N.	c #6B4E45",
"O.	c #6E544B",
"P.	c #4F352F",
"Q.	c #563A30",
"R.	c #735547",
"S.	c #9E7961",
"T.	c #FFB74D",
"U.	c #CB9452",
"V.	c #8D6E60",
"W.	c #76594F",
"X.	c #5C4037",
"Y.	c #533933",
"Z.	c #775C53",
"`.	c #8A6E64",
" +	c #866B62",
".+	c #7F675F",
"++	c #755E57",
"@+	c #68534C",
"#+	c #5D4A43",
"$+	c #57453E",
"%+	c #4B3933",
"&+	c #43302A",
"*+	c #5A4841",
"=+	c #7E645A",
"-+	c #685249",
";+	c #030302",
">+	c #0D0908",
",+	c #58413A",
"'+	c #816257",
")+	c #8B6E63",
"!+	c #886A60",
"~+	c #7C5F56",
"{+	c #513731",
"]+	c #533830",
"^+	c #CB934A",
"/+	c #CF9755",
"(+	c #896B5C",
"_+	c #8B6A56",
":+	c #E9A746",
"<+	c #B88542",
"[+	c #463630",
"}+	c #7C5A35",
"|+	c #EAA849",
"1+	c #A9783B",
"2+	c #53382E",
"3+	c #4B342E",
"4+	c #352722",
"5+	c #241C19",
"6+	c #201A17",
"7+	c #1B1513",
"8+	c #130E0D",
"9+	c #0B0807",
"0+	c #050403",
"a+	c #090706",
"b+	c #2D2420",
"c+	c #644F47",
"d+	c #120F0F",
"e+	c #563F38",
"f+	c #5C4239",
"g+	c #5A4037",
"h+	c #5B4239",
"i+	c #6A534C",
"j+	c #6B574F",
"k+	c #43332D",
"l+	c #4A322D",
"m+	c #4C352B",
"n+	c #D69940",
"o+	c #F1AD49",
"p+	c #B07D33",
"q+	c #1A1003",
"r+	c #986C2B",
"s+	c #AD7B32",
"t+	c #090401",
"u+	c #AB7A31",
"v+	c #EDAA47",
"w+	c #C78F3B",
"x+	c #61432A",
"y+	c #33211D",
"z+	c #050202",
"A+	c #332C29",
"B+	c #4C3F3A",
"C+	c #272220",
"D+	c #090707",
"E+	c #120F0E",
"F+	c #0B0504",
"G+	c #462E29",
"H+	c #150C09",
"I+	c #34230A",
"J+	c #926829",
"K+	c #D89B40",
"L+	c #3F2B0D",
"M+	c #825C24",
"N+	c #956A2A",
"O+	c #A3742E",
"P+	c #E4A344",
"Q+	c #896126",
"R+	c #1E120F",
"S+	c #472F2A",
"T+	c #170D0A",
"U+	c #3A2621",
"V+	c #0C0602",
"W+	c #090501",
"X+	c #050201",
"Y+	c #6E4D1C",
"Z+	c #9A6E2D",
"`+	c #33220A",
" @	c #3B290D",
".@	c #714F1D",
"+@	c #6A4A1B",
"@@	c #050301",
"#@	c #211410",
"$@	c #1C110E",
"%@	c #0B0A0A",
"&@	c #1F1D1C",
"*@	c #2F1F1B",
"=@	c #B6813D",
"-@	c #F6B04A",
";@	c #F4AF4A",
">@	c #BD8738",
",@	c #36240B",
"'@	c #2A1B0D",
")@	c #4B322C",
"!@	c #392621",
"~@	c #0E0706",
"{@	c #402C0F",
"]@	c #BF8939",
"^@	c #E0A145",
"/@	c #53382D",
"(@	c #141312",
"_@	c #30201A",
":@	c #986B35",
"<@	c #CA903B",
"[@	c #B58135",
"}@	c #5A3F16",
"|@	c #1F150B",
"1@	c #3C2723",
"2@	c #402B23",
"3@	c #1D120C",
"4@	c #5D4119",
"5@	c #C18A39",
"6@	c #B98439",
"7@	c #52372E",
"8@	c #1C110C",
"9@	c #3B2722",
"0@	c #060303",
"a@	c #A97830",
"b@	c #3D2A0F",
"c@	c #38270D",
"d@	c #473213",
"e@	c #3E2B10",
"f@	c #0A0504",
"g@	c #1C100E",
"h@	c #281B08",
"i@	c #A47530",
"j@	c #ECA947",
"k@	c #422D0E",
"l@	c #8C6327",
"m@	c #A0722E",
"n@	c #67481B",
"o@	c #DD9F42",
"p@	c #100902",
"q@	c #1F1310",
"r@	c #422C27",
"s@	c #130A08",
"t@	c #060302",
"u@	c #412B26",
"v@	c #412C21",
"w@	c #F9B34B",
"x@	c #F0AC48",
"y@	c #896125",
"z@	c #1B1103",
"A@	c #A77730",
"B@	c #010100",
"C@	c #825D25",
"D@	c #FEB64D",
"E@	c #AD7B35",
"F@	c #50362C",
"G@	c #2D1C19",
"H@	c #190E0C",
"I@	c #432C27",
"J@	c #53372F",
"K@	c #C98F41",
"L@	c #B07E34",
"M@	c #4B3311",
"N@	c #E8A646",
"O@	c #5A3E16",
"P@	c #C28A3C",
"Q@	c #885F35",
"R@	c #452E28",
"S@	c #1D110E",
"T@	c #261815",
"U@	c #4A322C",
"V@	c #654530",
"W@	c #74512F",
"X@	c #221411",
"Y@	c #593D15",
"Z@	c #BE8838",
"`@	c #32220A",
" #	c #1B100D",
".#	c #48302A",
"+#	c #040202",
"@#	c #221614",
"##	c #4A312B",
"$#	c #4E342B",
"%#	c #755133",
"&#	c #664630",
"*#	c #4B322B",
"=#	c #49312B",
"-#	c #4D332D",
";#	c #201310",
">#	c #412B25",
",#	c #4D332E",
"'#	c #080404",
")#	c #040302",
"!#	c #32201C",
"~#	c #35221E",
". . . . . . . . . . . . . . . . . . . . . . . . . . . . . . . . . . . . . . . . . . . . . . . . . . ",
". . . . . . . . . . . . . . . . . . . . . . . . . . . . . . . . . . . . . . . . . . . . . . . . . . ",
". . . . . . . . . . . . . . . . . . . . . . . . . . . . . . . . . . . . . . . . . . . . . . . . . . ",
". . . . . . . . . . . . . . . . . . . . . . . . . . . . . . . . . . . . . . . . . . . . . . . . . . ",
". . . . . . . . . . . . . . . . . . . . . . . . . . . . . . . . . . . . . . . . . . . . . . . . . . ",
". . . . . . . . . . . . . . . . . . . . . . . . . . . . . . . . . . . . . . . . . . . . . . . . . . ",
". . . . . . . . . . . . . . . . . . . . . . . . . . . . . . . . . . . . . . . . . . . . . . . . . . ",
". . . . . . . . . . . . . . . . . . . . . . . . . . . . . . . . . . . . . . . . . . . . . . . . . . ",
". . . . . . . . . . . . . . . . . . . . . . . . . . . . . . . . . . . . . . . . . . . . . . . . . . ",
". . . . . . . . . . . . . . . . . . . . . . . . . . . . . . . . . . . . . . . + @ . . . . . . . . . ",
". . . . . . . . . . . . . . . . # $ % . . . . . . . . . . . . . . . . . . . . & * = . . . . . . . . ",
". . . . . . . . . . . . . . . . - ; > , . . . . . . . . . . . . . . . . . . . . ' ) ! . . . . . . . ",
". . . . . . . . . . . . . . . . ~ { ] ^ . . . . . . . . . . . . . . . . . . . . . . . . . . . . . . ",
". . . . . . . . . . . . . . . . / { ( _ . . . . . . . . . . . . . . . . . . . . . . . . . . . . . . ",
". . . . . . . . . : < [ } | 1 : 2 3 4 5 . . . . . . . . . . . . . . . . . . . . . . . 1 6 7 @ . . . ",
". . . . . . . . | 8 9 0 a b c d e f g h i j k l m n o p q r | : . . . . . . . . . . s t u v @ . . . ",
". . . . . . . . w x y y y z A A A A B C D E F G H I J K L M N O P Q R S T U V W X Y Z ` A  .... . . ",
". . . . . . . +.@.#.y y y $.A A A A A A A A A A A A A %.y &.A C A C *.=.-.;.>.,.'.).!.A A  .s . . . ",
". . . . ~.{.].^./.y y y y (.A A A A A A A A A A A A A %.y &.A A A A A A A A A _.:.<.A A A [.}.. . . ",
". . . . |.1.2.3.y y y y y _.A A A A A A A A A A A A A 4.y &.A A A A A A A A 5.6.:.5.A A A 7.[ . . . ",
". . . . 8.9.y y y y y y y 0.A A A A A A A A A A A A A 4.y &.A A A A A A A A 5.6.:.5.A A A  .a.. . . ",
". . . . b.c.y y y y y y y d.A A A A A A A e.f.g.h.h.2.i.y &.A A A A A A A A 5.6.:.5.A j.A 7.k.. . . ",
". . . . l.m.n.o.y y y y y p.A A A A A q.r.s.t.t.t.t.t.t.u.v.w.A A A A A A A 5.6.:.5.A j.A 7.x.. . . ",
". . . . . y.z.A.y y y y y B.A A A A C.D.t.t.E.F.G.H.I.J.t.t.K.A A A A A A A 5.6.:.5.A A A 7.L.. . . ",
". . . . . . . M.N.y y y y 4.A A A q.O.P.Q.R.f.S.T.U.V.W.X.t.Y.Z.`. +.+++@+#+$+%+&+*+=+j.A -+;+. . . ",
". . . . . . . >+,+#.y y y '+)+q.!+~+{+]+^+/+(+_+:+<+[+}+|+1+2+3+4+5+6+7+8+9+x.0+^ a+b+).=.c+: . . . ",
". . . . . . . . d+e+f+g+h+i+j+$+k+l+t.m+n+o+p+q+r+s+t+u+v+w+x+t.y+z+. . . . . . . . . A+B+C+. . . . ",
". . . . . . . . . D+E+L.1 . . . F+t.G+H+I+J+K+L+M+N+O+P+Q+. R+t.S+T+. . . . . . . . . . . . . . . . ",
". . . . . . . . . . . . . . @ . F+t.U+V+W+X+Y+Z+`+ @.@+@@@W+#@t.t.$@. . . . . . . . . . . . . . . . ",
". . . . . . . . . . . . . %@&@. *@t.=@-@;@>@,@'@)@!@~@{@]@-@^@/@t.$@. . . . . . . . . . . . . . . . ",
". . . . . . . . . . . . . k.(@. _@t.:@<@<@[@}@|@1@2@3@4@5@<@6@7@t.$@. . . . . . . . . . . . . . . . ",
". . . . . . . . . . . . . : } y.8@t.9@0@. . a@b@c@d@p+e@. . R+t.t.$@. . . . . . . . . . . . . . . . ",
". . . . . . . . . . . . . . . . f@t.)@g@h@i@j@k@l@m@n@o@p+p@q@t.r@s@. . . . . . . . . . . . . . . . ",
". . . . . . . . . . . . . . . . t@u@t.v@w@x@y@z@A@s+B@C@D@E@F@t.G@. . . . . . . . . . . . . . . . . ",
". . . . . . . . . . . . . . . . . H@I@J@K@L@. M@N@s+. O@P@Q@t.R@S@. . . . . . . . . . . . . . . . . ",
". . . . . . . . . . . . . . . . . . T@U@V@W@X@Y@T.Z@`@ #R@t..#X@. . . . . . . . . . . . . . . . . . ",
". . . . . . . . . . . . . . . . . . +#@#)@t.##$#%#&#*#=#-#)@;#. . . . . . . . . . . . . . . . . . . ",
". . . . . . . . . . . . . . . . . . . . S@>#u@-#t.t.,#u@y+'#. . . . . . . . . . . . . . . . . . . . ",
". . . . . . . . . . . . . . . . . . . . . . )#!#~#~#y+1 . . . . . . . . . . . . . . . . . . . . . . ",
". . . . . . . . . . . . . . . . . . . . . . . . . . . . . . . . . . . . . . . . . . . . . . . . . . ",
". . . . . . . . . . . . . . . . . . . . . . . . . . . . . . . . . . . . . . . . . . . . . . . . . . "};
