/* XPM */
static char * C:\Users\joaoc\Downloads\MINIX_LCOM\MINIX_LCOM\shared\proj\screens\XPM\Time\time_1_XPM[] = {
"106 26 716 2",
"  	c None",
". 	c #000000",
"+ 	c #000001",
"@ 	c #0A0919",
"# 	c #262345",
"$ 	c #302E58",
"% 	c #302D57",
"& 	c #2F2C55",
"* 	c #2C2950",
"= 	c #2B284E",
"- 	c #2A274D",
"; 	c #211E3D",
"> 	c #05040D",
", 	c #080716",
"' 	c #252243",
") 	c #332E56",
"! 	c #322E56",
"~ 	c #302C53",
"{ 	c #2D294F",
"] 	c #2B284D",
"^ 	c #2A274C",
"/ 	c #211E3E",
"( 	c #05040F",
"_ 	c #0C0A1B",
": 	c #272448",
"< 	c #312E56",
"[ 	c #2F2C53",
"} 	c #2D2A50",
"| 	c #2B274D",
"1 	c #29254A",
"2 	c #1C1935",
"3 	c #020207",
"4 	c #010102",
"5 	c #221F3F",
"6 	c #2E2A50",
"7 	c #2E2A4F",
"8 	c #2C284D",
"9 	c #2B274C",
"0 	c #282448",
"a 	c #252244",
"b 	c #222041",
"c 	c #211E3F",
"d 	c #1F1C3B",
"e 	c #0C0B1D",
"f 	c #0D0C1E",
"g 	c #2D3C67",
"h 	c #20699C",
"i 	c #1F70A3",
"j 	c #206DA0",
"k 	c #21699B",
"l 	c #236293",
"m 	c #275483",
"n 	c #2E325B",
"o 	c #1E1B39",
"p 	c #030208",
"q 	c #262346",
"r 	c #4F4351",
"s 	c #A2863C",
"t 	c #B09139",
"u 	c #AC8E3A",
"v 	c #A4873C",
"w 	c #977D3F",
"x 	c #806B45",
"y 	c #403852",
"z 	c #1F1D3B",
"A 	c #030209",
"B 	c #0F0D21",
"C 	c #282549",
"D 	c #334652",
"E 	c #3A7848",
"F 	c #3B7C48",
"G 	c #3B7949",
"H 	c #3A734A",
"I 	c #386B4C",
"J 	c #365850",
"K 	c #2F2F52",
"L 	c #191630",
"M 	c #010103",
"N 	c #191732",
"O 	c #2D294C",
"P 	c #5B4D4E",
"Q 	c #9F843E",
"R 	c #AB8D3A",
"S 	c #A3873C",
"T 	c #887143",
"U 	c #7F6A46",
"V 	c #7A6646",
"W 	c #6B5A49",
"X 	c #383254",
"Y 	c #1B1934",
"Z 	c #110F24",
"` 	c #29264B",
" .	c #2C416D",
"..	c #177EB5",
"+.	c #029AD7",
"@.	c #009BD9",
"#.	c #019BD9",
"$.	c #019BD8",
"%.	c #019AD8",
"&.	c #0596D2",
"*.	c #226697",
"=.	c #2E2E57",
"-.	c #191731",
";.	c #010104",
">.	c #0F0D20",
",.	c #292548",
"'.	c #574A50",
").	c #C4A12D",
"!.	c #F7CB05",
"~.	c #FBCE01",
"{.	c #FACE01",
"].	c #FACD02",
"^.	c #F9CC03",
"/.	c #F2C70C",
"(.	c #A4883B",
"_.	c #3A3352",
":.	c #1A1833",
"<.	c #010105",
"[.	c #131126",
"}.	c #2A284C",
"|.	c #344E52",
"1.	c #3F9440",
"2.	c #44AD36",
"3.	c #44AE35",
"4.	c #43AD36",
"5.	c #42A539",
"6.	c #38664D",
"7.	c #2D2C4F",
"8.	c #141228",
"9.	c #020206",
"0.	c #110F25",
"a.	c #443B51",
"b.	c #917841",
"c.	c #DCB51F",
"d.	c #F8CC03",
"e.	c #F7CB06",
"f.	c #F6CB08",
"g.	c #F5C909",
"h.	c #DAB31E",
"i.	c #504450",
"j.	c #18162F",
"k.	c #15122A",
"l.	c #2B294F",
"m.	c #2A4975",
"n.	c #1484BC",
"o.	c #009CDA",
"p.	c #0794D0",
"q.	c #255B8A",
"r.	c #2D2B52",
"s.	c #000002",
"t.	c #131127",
"u.	c #2C284C",
"v.	c #65554D",
"w.	c #CEAA28",
"x.	c #F9CD03",
"y.	c #FCCF00",
"z.	c #F0C50F",
"A.	c #917941",
"B.	c #322D50",
"C.	c #16142C",
"D.	c #2C2A4E",
"E.	c #365750",
"F.	c #40993E",
"G.	c #44AF35",
"H.	c #41A13B",
"I.	c #36594F",
"J.	c #0E0D20",
"K.	c #090818",
"L.	c #352F50",
"M.	c #715F4A",
"N.	c #C6A32C",
"O.	c #F4C80A",
"P.	c #D5AF22",
"Q.	c #453C51",
"R.	c #151229",
"S.	c #15132A",
"T.	c #2C2A51",
"U.	c #294F7D",
"V.	c #0F8AC3",
"W.	c #0C8EC9",
"X.	c #29507D",
"Y.	c #2A284D",
"Z.	c #2E2A4E",
"`.	c #705E4B",
" +	c #D9B221",
".+	c #FBCE02",
"++	c #E7BE16",
"@+	c #7D6847",
"#+	c #2D294D",
"$+	c #100E23",
"%+	c #18152F",
"&+	c #2E2D50",
"*+	c #375F4E",
"=+	c #419F3B",
"-+	c #40993D",
";+	c #344D52",
">+	c #0A0818",
",+	c #04030C",
"'+	c #18152E",
")+	c #2B274A",
"!+	c #55484F",
"~+	c #A98C39",
"{+	c #E9C015",
"]+	c #C9A629",
"^+	c #3A3351",
"/+	c #0E0C1F",
"(+	c #242141",
"_+	c #2B4673",
":+	c #0D8CC7",
"<+	c #1188C1",
"[+	c #2C4470",
"}+	c #0B0A1B",
"|+	c #221E3E",
"1+	c #5E504D",
"2+	c #DDB61F",
"3+	c #DDB61E",
"4+	c #68574C",
"5+	c #2A2649",
"6+	c #42A23A",
"7+	c #3E9041",
"8+	c #324153",
"9+	c #262244",
"0+	c #3D3651",
"a+	c #897244",
"b+	c #D7B122",
"c+	c #F8CC04",
"d+	c #BA9A32",
"e+	c #332E4F",
"f+	c #265988",
"g+	c #0299D7",
"h+	c #1680B7",
"i+	c #2D3D67",
"j+	c #7D6946",
"k+	c #F6CA08",
"l+	c #D0AB27",
"m+	c #584B4F",
"n+	c #070613",
"o+	c #2A274B",
"p+	c #39704B",
"q+	c #3D8644",
"r+	c #323A54",
"s+	c #312D57",
"t+	c #736048",
"u+	c #E9C013",
"v+	c #2B284B",
"w+	c #060510",
"x+	c #060511",
"y+	c #216799",
"z+	c #1C73A8",
"A+	c #2F315B",
"B+	c #302C55",
"C+	c #987E3F",
"D+	c #BB9B31",
"E+	c #3F3753",
"F+	c #100E22",
"G+	c #05040E",
"H+	c #080715",
"I+	c #3C7F47",
"J+	c #43AB37",
"K+	c #3A7549",
"L+	c #313056",
"M+	c #443B54",
"N+	c #BD9C30",
"O+	c #0B091A",
"P+	c #2D2A52",
"Q+	c #1E70A4",
"R+	c #1580B8",
"S+	c #1B75AB",
"T+	c #0B8FCA",
"U+	c #1086C0",
"V+	c #2F3761",
"W+	c #322E57",
"X+	c #A98B3B",
"Y+	c #D0AB26",
"Z+	c #B79733",
"`+	c #E3BB19",
" @	c #F9CC04",
".@	c #DCB61D",
"+@	c #4C4152",
"@@	c #232040",
"#@	c #272346",
"$@	c #302A52",
"%@	c #2E2E51",
"&@	c #3D8844",
"*@	c #3D8943",
"=@	c #44AE36",
"-@	c #3E8D42",
";@	c #303254",
">@	c #5D4F4E",
",@	c #D9B321",
"'@	c #FBCF00",
")@	c #FACE02",
"!@	c #E9BF14",
"~@	c #EDC310",
"{@	c #242143",
"]@	c #2D2E57",
"^@	c #187AB1",
"/@	c #0299D6",
"(@	c #265989",
"_@	c #30305A",
":@	c #2C436F",
"<@	c #1979AE",
"[@	c #1480B8",
"}@	c #30335D",
"|@	c #373156",
"1@	c #907842",
"2@	c #373255",
"3@	c #B99932",
"4@	c #D2AD23",
"5@	c #342C55",
"6@	c #652B4C",
"7@	c #98293E",
"8@	c #642B4D",
"9@	c #342A51",
"0@	c #201D3B",
"a@	c #303653",
"b@	c #3F9240",
"c@	c #43A938",
"d@	c #355450",
"e@	c #313255",
"f@	c #3E8F41",
"g@	c #3D8544",
"h@	c #816B46",
"i@	c #ECC212",
"j@	c #F2C70B",
"k@	c #C09E2F",
"l@	c #6A594C",
"m@	c #A3873B",
"n@	c #F2C70D",
"o@	c #715F48",
"p@	c #201E3D",
"q@	c #16132B",
"r@	c #2E335C",
"s@	c #1482BA",
"t@	c #294C7A",
"u@	c #255B8B",
"v@	c #009CD9",
"w@	c #1B76AB",
"x@	c #312F59",
"y@	c #3C3555",
"z@	c #C9A62A",
"A@	c #796547",
"B@	c #F6CA07",
"C@	c #C2A02F",
"D@	c #383256",
"E@	c #512C51",
"F@	c #C92525",
"G@	c #E42312",
"H@	c #D3241F",
"I@	c #852A44",
"J@	c #2D284E",
"K@	c #313B53",
"L@	c #409A3D",
"M@	c #42A33A",
"N@	c #334752",
"O@	c #252143",
"P@	c #2D2950",
"Q@	c #3A724A",
"R@	c #3A7749",
"S@	c #2B294D",
"T@	c #060512",
"U@	c #141229",
"V@	c #363050",
"W@	c #D7B121",
"X@	c #8E7642",
"Y@	c #413951",
"Z@	c #2F2B54",
"`@	c #937A40",
" #	c #EAC015",
".#	c #1C1A36",
"+#	c #2D3963",
"@#	c #0E8AC4",
"##	c #0992CD",
"$#	c #201D3C",
"%#	c #272447",
"&#	c #275382",
"*#	c #0399D6",
"=#	c #1F6EA1",
"-#	c #312E58",
";#	c #483F53",
">#	c #D7B120",
",#	c #EDC312",
"'#	c #63534D",
")#	c #252245",
"!#	c #736149",
"~#	c #F4C90B",
"{#	c #B39436",
"]#	c #342F56",
"^#	c #4E2C53",
"/#	c #CF2522",
"(#	c #E62310",
"_#	c #E52310",
":#	c #A82838",
"<#	c #30294F",
"[#	c #334552",
"}#	c #42A13A",
"|#	c #409B3C",
"1#	c #323D53",
"2#	c #292549",
"3#	c #386A4C",
"4#	c #396C4C",
"5#	c #282548",
"6#	c #020205",
"7#	c #1D1B38",
"8#	c #3F3852",
"9#	c #514550",
"0#	c #1A1732",
"a#	c #E1BA19",
"b#	c #524650",
"c#	c #1F1C3A",
"d#	c #2C406B",
"e#	c #0A91CC",
"f#	c #252142",
"g#	c #28507E",
"h#	c #0497D4",
"i#	c #245F90",
"j#	c #544752",
"k#	c #E1B91A",
"l#	c #524750",
"m#	c #1B1935",
"n#	c #6E5D49",
"o#	c #9C813E",
"p#	c #312D56",
"q#	c #442C54",
"r#	c #BE262B",
"s#	c #D5241E",
"t#	c #7C2A47",
"u#	c #090817",
"v#	c #344E51",
"w#	c #43A738",
"x#	c #3F9140",
"y#	c #303553",
"z#	c #43AC36",
"A#	c #365A4F",
"B#	c #0B0A1A",
"C#	c #04040C",
"D#	c #D3AE22",
"E#	c #2A4976",
"F#	c #0695D1",
"G#	c #2E325C",
"H#	c #294B78",
"I#	c #0595D2",
"J#	c #0398D5",
"K#	c #275584",
"L#	c #63544D",
"M#	c #D4AF22",
"N#	c #443B52",
"O#	c #17152E",
"P#	c #66564B",
"Q#	c #EDC311",
"R#	c #897243",
"S#	c #2F2950",
"T#	c #5B2B4E",
"U#	c #9D283C",
"V#	c #792A48",
"W#	c #322950",
"X#	c #365C4F",
"Y#	c #43AA37",
"Z#	c #3D8744",
"`#	c #252144",
" $	c #375E4E",
".$	c #355051",
"+$	c #020105",
"@$	c #04030B",
"#$	c #C8A529",
"$$	c #3A3350",
"%$	c #275482",
"&$	c #157FB7",
"*$	c #2E355F",
"=$	c #2B4874",
"-$	c #746148",
";$	c #F4C80B",
">$	c #D0AB24",
",$	c #483E52",
"'$	c #2A264B",
")$	c #67574C",
"!$	c #EBC212",
"~$	c #6F5D49",
"{$	c #242142",
"]$	c #322A52",
"^$	c #2E2950",
"/$	c #3D8444",
"($	c #303153",
"_$	c #2C294E",
":$	c #375D4E",
"<$	c #41A03B",
"[$	c #334353",
"}$	c #B99933",
"|$	c #322D4F",
"1$	c #245F8F",
"2$	c #0497D3",
"3$	c #1F6CA0",
"4$	c #2E3963",
"5$	c #2A4C79",
"6$	c #1581B9",
"7$	c #0A90CB",
"8$	c #2D406C",
"9$	c #877143",
"0$	c #F4C909",
"a$	c #AF9037",
"b$	c #4E4352",
"c$	c #6B5A4C",
"d$	c #CAA62A",
"e$	c #EBC113",
"f$	c #61514D",
"g$	c #1E1C3A",
"h$	c #03030A",
"i$	c #121025",
"j$	c #3A7649",
"k$	c #42A639",
"l$	c #396F4A",
"m$	c #323955",
"n$	c #40963E",
"o$	c #313C53",
"p$	c #17142D",
"q$	c #A98C3B",
"r$	c #2B274B",
"s$	c #050510",
"t$	c #2E2B53",
"u$	c #206C9F",
"v$	c #0398D6",
"w$	c #1384BD",
"x$	c #0F88C1",
"y$	c #2F3863",
"z$	c #A0843E",
"A$	c #D4AE23",
"B$	c #E5BC18",
"C$	c #DEB71B",
"D$	c #1B1833",
"E$	c #2D2C50",
"F$	c #3C8445",
"G$	c #43A937",
"H$	c #42A439",
"I$	c #303353",
"J$	c #967D3F",
"K$	c #04040D",
"L$	c #070614",
"M$	c #100F23",
"N$	c #1481B9",
"O$	c #30345E",
"P$	c #2F2D52",
"Q$	c #3B7D47",
"R$	c #221F40",
"S$	c #1C1936",
"T$	c #29264C",
"U$	c #292649",
"V$	c #2E2A4D",
"W$	c #312C52",
"X$	c #1A77AD",
"Y$	c #1B77AC",
"Z$	c #2F2E56",
"`$	c #272347",
" %	c #483E51",
".%	c #B69733",
"+%	c #C3A12E",
"@%	c #373152",
"#%	c #3A7948",
"$%	c #4F4450",
"%%	c #866F44",
"&%	c #7F6A45",
"*%	c #726048",
"=%	c #66564C",
"-%	c #62534C",
";%	c #5D4F4D",
">%	c #A88B39",
",%	c #F9CD02",
"'%	c #F5CA08",
")%	c #8C7441",
"!%	c #6C5B4A",
"~%	c #9A7F3F",
"{%	c #B39336",
"]%	c #65564B",
"^%	c #080714",
"/%	c #2D3A64",
"(%	c #1978AE",
"_%	c #1F6EA2",
":%	c #4A4051",
"<%	c #B89832",
"[%	c #B59535",
"}%	c #302C4F",
"|%	c #0B0919",
"1%	c #0D0B1C",
"2%	c #3D2C53",
"3%	c #392B52",
"4%	c #334453",
"5%	c #3E8E41",
"6%	c #396D4B",
"7%	c #262245",
"8%	c #856F44",
"9%	c #F5C908",
"0%	c #F0C511",
"a%	c #EEC412",
"b%	c #E9C014",
"c%	c #E4BC17",
"d%	c #F1C60C",
"e%	c #ECC210",
"f%	c #F1C60F",
"g%	c #F6CA06",
"h%	c #8A7343",
"i%	c #030309",
"j%	c #2D3A65",
"k%	c #1979AF",
"l%	c #029AD8",
"m%	c #246091",
"n%	c #070612",
"o%	c #232041",
"p%	c #4B4051",
"q%	c #BA9932",
"r%	c #F8CB05",
"s%	c #9E823E",
"t%	c #2B284C",
"u%	c #2A264A",
"v%	c #562B4F",
"w%	c #AF2734",
"x%	c #602B4E",
"y%	c #0A0918",
"z%	c #927941",
"A%	c #A78A3B",
"B%	c #2D3B66",
"C%	c #197AB0",
"D%	c #019AD7",
"E%	c #1088C2",
"F%	c #294D7A",
"G%	c #4C4151",
"H%	c #BB9A31",
"I%	c #F4C90A",
"J%	c #DBB51E",
"K%	c #786548",
"L%	c #211F3E",
"M%	c #4F2C51",
"N%	c #BF262C",
"O%	c #9E283C",
"P%	c #2E284E",
"Q%	c #43A838",
"R%	c #3F943F",
"S%	c #344852",
"T%	c #231F40",
"U%	c #2C284B",
"V%	c #A6893B",
"W%	c #BB9A32",
"X%	c #090816",
"Y%	c #2D3C66",
"Z%	c #187BB1",
"`%	c #0F89C3",
" &	c #1D72A7",
".&	c #2D3B65",
"+&	c #2E2C54",
"@&	c #1D1A37",
"#&	c #4D4251",
"$&	c #BC9B30",
"%&	c #F7CB04",
"&&	c #DDB61D",
"*&	c #B79734",
"=&	c #826C45",
"-&	c #332E51",
";&	c #5D2B4D",
">&	c #D8241C",
",&	c #AA2737",
"'&	c #312950",
")&	c #40973E",
"!&	c #3B7B47",
"~&	c #36584F",
"{&	c #2C2A4F",
"]&	c #B59536",
"^&	c #CDA927",
"/&	c #3E3651",
"(&	c #0695D2",
"_&	c #1089C2",
":&	c #1D71A6",
"<&	c #2D2D55",
"[&	c #4E4351",
"}&	c #BE9C30",
"|&	c #F0C60E",
"1&	c #DCB51E",
"2&	c #806B46",
"3&	c #352F51",
"4&	c #03030B",
"5&	c #482C51",
"6&	c #AC2734",
"7&	c #CA2525",
"8&	c #7A2A48",
"9&	c #0E0C1E",
"0&	c #3E9141",
"a&	c #42A738",
"b&	c #40963F",
"c&	c #3B7A48",
"d&	c #2D2B4F",
"e&	c #0C0B1C",
"f&	c #0D0B1E",
"g&	c #BD9C31",
"h&	c #DBB51D",
"i&	c #4E4350",
"j&	c #2D2C54",
"k&	c #1D1A36",
"l&	c #100E21",
"m&	c #726049",
"n&	c #342F50",
"o&	c #2C274D",
"p&	c #3A2B52",
"q&	c #502C51",
"r&	c #2F284F",
"s&	c #334253",
"t&	c #355250",
"u&	c #313A53",
"v&	c #0C0A1C",
"w&	c #342F52",
"x&	c #877043",
"y&	c #A88B3B",
"z&	c #A88C3B",
"A&	c #9B813E",
"B&	c #443B53",
"C&	c #010002",
"D&	c #232042",
"E&	c #090716",
"F&	c #2D294E",
"G&	c #1A1731",
". . . . + @ # $ % & * = - ; > . . . . . . . . , ' ) ! ~ { ] ^ / ( . . . . . . . . . . . . . . . . . + _ : < [ } = | 1 2 3 . . . . . . . . . 4 _ 5 6 7 8 9 0 a b c d e . . . . . . . . . . . . . . . . . . . . . . . ",
". . . + f : g h i j k l m n o p . . . . . + _ q r s t u v w x y z A . . . . . . . . . . . . . . . + B C D E F G H I J K L M . . . . . . . ( N O P Q R S w T U V W X Y + . . . . . . . . . . . . . . . . . . . . . . ",
". . 4 Z `  ...+.@.#.$.%.&.*.=.-.;.. . . + >.,.'.).!.~.{.].^./.(._.:.<.. . . . . . . . . . . . . M [.}.|.1.2.3.3.2.4.5.6.7.8.+ . . . . 9.0.# a.b.c.d.{.].^.e.f.g.h.i.j.. . . . . . . . . . . . . . . . . . . . . . . ",
". M k.l.m.n.$.o.o.o.o.o.o.p.q.r.k.s.. 4 t.u.v.w.x.y.y.y.y.y.y.z.A.B.C.4 . . . . . . . . . . . ;.C.D.E.F.3.G.G.G.G.G.G.H.I.}.J.+ . + K.d L.M.N.O.y.y.y.y.y.y.y.y.P.Q.R.. . . . . . . . . . . . . . . . . . . . . . . ",
"+ S.T.U.V.#.o.o.o.o.o.o.o.o.W.X.Y.>.+ t.Z.`. +.+y.y.y.y.y.y.y.y.++@+#+$++ . . . . . . . . . 4 %+&+*+=+G.G.G.G.G.G.G.G.G.-+;+: >+,+'+)+!+~+{+~.y.y.y.y.y.y.y.y.y.]+^+/+. . . . . . . . . . . . . . . . . . . . . . . ",
"9.(+_+:+o.o.o.o.o.o.o.o.o.o.o.<+[+C }+|+1+2+~.y.y.y.y.y.y.y.y.y.y.3+4+5+}+. . . . . . . . . A # E.6+G.G.G.G.G.G.G.G.G.G.3.7+8+9+' 0+a+b+c+y.y.y.y.y.y.y.y.y.y.~.d+e+@ . . . . . . . . . . . . . . . . . . . . . . . ",
",+C f+g+o.o.o.o.o.o.o.o.o.o.o.#.h+i+a C j+k+y.y.y.y.y.y.y.y.y.y.y.~.l+m+a n+. . . . . . . . ( o+p+2.G.G.G.G.G.G.G.G.G.G.G.2.q+r+s+t+u+y.y.y.y.y.y.y.y.y.y.y.y.{.R v+w+. . . . . . . . . . . . . . . . . . . . . . . ",
"x+^ y+%.o.o.o.o.@.@.o.o.o.o.o.o.%.z+A+B+C+^.y.y.y.y.~.~.y.y.y.y.y.y.x.D+E+-.( F+G+. . . . . H+D.I+3.G.G.G.G.3.3.G.G.G.G.G.G.J+K+L+M+N+].y.y.y.y.y.y.y.y.y.y.y.^.C+,.,+. . . . . . . . . . . . . . . . . . . . . . . ",
"O+P+Q+#.o.o.o.#.R+S+T+%.o.o.o.o.o.U+V+W+X+{.y.y.y.~.Y+Z+`+ @y.y.y.y.y..@+@@@#@$@# t.3 . . . >.%@&@G.G.G.G.2.*@q+6+=@G.G.G.G.G.-@;@1 >@,@'@y.y.)@!@~@y.y.y.y.y.f.x {@3 . . . . . . . . . . . . . . . . . . . . . . . ",
"J.]@^@o.o.o.o./@(@_@:@<@#.o.o.o.o.[@}@|@D+'@y.y.y.c+1@2@>@3@].y.y.y.y.4@M+5@6@7@8@9@0@p . . [.a@b@G.G.G.G.c@d@e@;+f@G.G.G.G.G.g@&+t.)+h@i@y.j@k@l@m@x.y.y.y.y.n@o@p@M . . . . . . . . . . . . . . . . . . . . . . . ",
"q@r@s@o.o.o.o.&.t@0 = u@+.o.o.o.v@w@x@y@z@y.y.y.y.O.A@C - x B@y.y.y.y.C@D@E@F@G@H@I@J@n+. . j.K@L@G.G.G.G.M@N@O@P@Q@2.G.G.G.=@R@S@T@U@V@(.W@X@Y@Z@`@c+y.y.y.y. #>@.#+ . . . . . . . . . . . . . . . . . . . . . . . ",
"L +#@#o.o.o.o.## .$#%#&#*#o.o.o.#.=#-#;#>#y.y.y.y.,#'#/ )#!#~#y.y.y.~.{#]#^#/#(#_#:#<#K.. + .#[#}#G.G.G.G.|#1#:.2#3#4.G.G.G.2.4#5#,+6#7#8#9#O 0#2#`@c+y.y.y.y.a#b#%+. . . . . . . . . . . . . . . . . . . . . . . . ",
"c#d#e#o.o.o.o.@#+#:.f#g#h#o.o.o.+.i#s+j#`+y.y.y.y.k#l#m#5 n#n@y.y.y.x.o#p#q#r#G@s#t#8 u#. ;.; v#w#G.G.G.G.x#y#S.# 6.z#G.G.G.J+A#a p . G+/ p@B#C#0 `@c+y.y.y.y.D#a.U@. . . . . . . . . . . . . . . . . . . . . . . . ",
"5 E#F#o.o.o.o.s@G#C.|+H#I#o.o.o.J#K#s+L#i@y.y.y.y.M#N#O#d P#Q#y.y.y.e.R#= S#T#U#V#W#L ;.. 3 a X#Y#G.G.G.G.Z#%@B `# $J+G.G.G.w#.$$#4 . . 3 +$. @$0 `@c+y.y.y.y.#$$$/+. . . . . . . . . . . . . . . . . . . . . . . . ",
"0 %$J#o.o.o.o.&$*$' | H#F#o.o.o.F#=$s+-$;$y.y.y.y.>$,$a '$)$!$y.y.y.n@~${@Z {$]$^$O#;.. . ,+5#3#4.G.G.G.3./$($5 _$:$Y#G.G.G.<$[$2 . . . . . . @$0 `@c+y.y.y.~.}$|$>+. . . . . . . . . . . . . . . . . . . . . . . . ",
"] 1$+.o.o.o.o.2$3$4$5$6$$.o.o.o.7$8$s+9$e.y.y.y.y.0$a$b$c$d$x.y.y.y.e$f$g$4 h$t.i$M . . . x+] j$3.G.G.G.G.k$l$m$A#n$3.G.G.G.L@o$p$. . . . . . @$0 `@c+y.y.y.{.q$r$s$. . . . . . . . . . . . . . . . . . . . . . . . ",
"t$u$#.o.o.o.o.o.v$w$7$@.o.o.o.o.x$y$W+z$].y.y.y.y.y.e.A$B$~.y.y.y.y.C$r D$. . . . . . . . @ E$F$G.G.G.G.G.G.G$b@H$G.G.G.G.G.f@I$t.p 3 9.;.4 . @$0 `@c+y.y.y.c+J$5#G+3 K$L$f M$G+. . . . . . . . . . . . . . . . . . ",
"% y+/@o.o.o.o.o.o.o.o.o.o.o.o.o.N$O$p#C+B@y.y.y.y.y.y.y.y.y.y.y.y.y.D#N#S.. . 4 + . . . . F+P$Q$2.G.G.G.G.G.G.G.G.G.G.G.G.G.q+&+2 )#`#{@R$d S$S$= `@c+y.y.y.k+U T$/ `#U$V$L.W$:.+ . . . . . . . . . . . . . . . . . ",
"a +#X$g+o.o.o.o.o.o.o.o.o.o.o.v@Y$Z$`$ %.%e.y.y.y.y.y.y.y.y.y.y.y.y.+%@%M$. L$.#C.( + . . T@a [$-@2.G.G.G.G.G.G.G.G.G.G.G.=@#%_$a $%%%&%*%=%-%;%'.>%,%y.y.y.'%)%>@!%%%~%{%D+]%/ ;.. . . . . . . . . . . . . . . . . ",
"^%{$/%(%+.o.o.o.o.o.o.o.o.o.o.#._%* /+@@:%<%!.y.y.y.y.y.y.y.y.y.y.~.[%}%|%1%# 2%3%%#S.M . . >+# 4%5%2.G.G.G.G.G.G.G.G.G.G.2.6%2#7%8%j@9%/.0%a%b%c%d%y.y.y.y.~.e%b%f%g%x.~.e.h%# i%. . . . . . . . . . . . . . . . . ",
". H+O@j%k%+.o.o.o.o.o.o.o.o.o.l%m%'$( n%o%p%q%r%y.y.y.y.y.y.y.y.y.x.s%t%8.u%v%w%w%x%'$( . . . y%q [#5%2.G.G.G.G.G.G.G.G.G.J+X#q 0 z%c+y.y.y.y.y.y.y.y.y.y.y.y.y.y.y.y.y.y.].A%r$s$. . . . . . . . . . . . . . . . . ",
". . , a B%C%D%o.o.o.o.o.o.#.h#E%F%# i%. n+o%G%H%!.y.y.y.y.y.y.~.I%J%K%%#L%M%N%G@G@O%P%n+. . . . @ #@[#f@=@G.G.G.G.G.G.=@Q%R%S%T%U%V%].y.y.y.y.y.y.y.y.y.y.y.y.y.y.y.y.y.y.'@W%e+B#. . . . . . . . . . . . . . . . . ",
". . . X%a Y%Z%%.o.o.#.h#`% &m .&+&@&M . . n+{$#&$&%&y.y.~.O.&&*&=&b#-&o g$;&>&(#_#,&'&_ . . . . . O+%#D 7+=@G.G.=@Q%)&!&~&K@{&D$V$]&~.y.y.y.y.y.y.y.y.y.y.y.y.y.y.y.y.y.y.y.^&/&i$. . . . . . . . . . . . . . . . . ",
". . . . u#)#g Z%(&_&:&&#j%<&0 @&F+h$. . . . L${$[&}&|&1&[%2&9#3&0 7#$+4&@&5&6&/#7&8&^$9&. . . . . . B#%#N@0&a&b&c&E.K@d&a 0#e&f&e+g&].{.{.{.{.{.{.{.{.{.{.{.{.{.{.{.{.{.{.{.h&i&L . . . . . . . . . . . . . . . . . ",
". . . . . >+# j%F%/%j&%#k&l&K$4 . . . . . . . H+{@:%m&i.n&%#@&F+> 4 . . t.o&p&M%q&r&0#3 . . . . . . . _ %#s&t&u&d&`#N v&A + . l&w&x&y&z&z&z&z&z&z&z&z&z&z&z&z&z&z&z&z&z&z&z&A&B&7#. . . . . . . . . . . . . . . . . ",
". . . . . . @ `#0 k&B C#C&. . . . . . . . . . . , D&C @&B K$C&. . . . . M E&t.@&; F+M . . . . . . . . . _ 7%)#-.}+A + . . . . B#C _$F&F&F&F&F&F&F&F&F&F&F&F&F&F&F&F&F&F&F&F&F&] G&. . . . . . . . . . . . . . . . . "};
