/* XPM */
static char * C:\Users\joaoc\Downloads\MINIX_LCOM\MINIX_LCOM\shared\proj\screens\XPM\Time\time_0_XPM[] = {
"100 26 657 2",
"  	c None",
". 	c #000000",
"+ 	c #050510",
"@ 	c #252244",
"# 	c #312D57",
"$ 	c #312D56",
"% 	c #2F2B54",
"& 	c #2C284F",
"* 	c #2B274D",
"= 	c #2A274D",
"- 	c #211E3E",
"; 	c #020206",
"> 	c #03030B",
", 	c #231F40",
"' 	c #302C56",
") 	c #2C2850",
"! 	c #2A274C",
"~ 	c #232041",
"{ 	c #03030A",
"] 	c #04040D",
"^ 	c #242243",
"/ 	c #2D2951",
"( 	c #2B284E",
"_ 	c #29264B",
": 	c #1E1B39",
"< 	c #020105",
"[ 	c #020207",
"} 	c #201E3C",
"| 	c #2F2C54",
"1 	c #2E2A52",
"2 	c #2B274E",
"3 	c #282448",
"4 	c #1F1C3A",
"5 	c #080716",
"6 	c #2F345F",
"7 	c #20689A",
"8 	c #206DA0",
"9 	c #206A9D",
"0 	c #226597",
"a 	c #235D8E",
"b 	c #274F7D",
"c 	c #302F59",
"d 	c #010103",
"e 	c #060510",
"f 	c #252245",
"g 	c #3B3554",
"h 	c #9A803C",
"i 	c #AB8D39",
"j 	c #A6893B",
"k 	c #9D823D",
"l 	c #8F7740",
"m 	c #786546",
"n 	c #393355",
"o 	c #010105",
"p 	c #070614",
"q 	c #262346",
"r 	c #323755",
"s 	c #3A7449",
"t 	c #3A7848",
"u 	c #3A7549",
"v 	c #396F4A",
"w 	c #38664C",
"x 	c #365650",
"y 	c #312F55",
"z 	c #1C1934",
"A 	c #010002",
"B 	c #04030C",
"C 	c #3C3554",
"D 	c #9D823B",
"E 	c #A5893B",
"F 	c #383254",
"G 	c #1D1A37",
"H 	c #010102",
"I 	c #0C0A1C",
"J 	c #2A264B",
"K 	c #2E3762",
"L 	c #167DB4",
"M 	c #019CD9",
"N 	c #009CDA",
"O 	c #019CDA",
"P 	c #029AD7",
"Q 	c #216394",
"R 	c #2F2D56",
"S 	c #18162F",
"T 	c #000001",
"U 	c #090716",
"V 	c #272448",
"W 	c #403854",
"X 	c #BB9B2E",
"Y 	c #FACE02",
"Z 	c #FCCF00",
"` 	c #FCCF01",
" .	c #F9CD04",
"..	c #A58937",
"+.	c #342F55",
"@.	c #1B1834",
"#.	c #0B091A",
"$.	c #323B55",
"%.	c #3E8D41",
"&.	c #44AE35",
"*.	c #44AF35",
"=.	c #43AC36",
"-.	c #386A4B",
";.	c #15132A",
">.	c #070613",
",.	c #262345",
"'.	c #413953",
").	c #BD9D2C",
"!.	c #A28739",
"~.	c #322E54",
"{.	c #17152E",
"].	c #110E23",
"^.	c #2C3E6A",
"/.	c #1283BC",
"(.	c #0397D4",
"_.	c #265584",
":.	c #2E2A53",
"<.	c #121026",
"[.	c #0D0B1D",
"}.	c #4C4251",
"|.	c #C7A428",
"1.	c #FBCE01",
"2.	c #F6CB05",
"3.	c #8D7640",
"4.	c #302C54",
"5.	c #0F0D20",
"6.	c #334353",
"7.	c #3F933F",
"8.	c #43A937",
"9.	c #365A4F",
"0.	c #2D2A51",
"a.	c #0A0818",
"b.	c #29254A",
"c.	c #4D4351",
"d.	c #C9A626",
"e.	c #FBCF01",
"f.	c #F6CA06",
"g.	c #8A7341",
"h.	c #110F23",
"i.	c #120F24",
"j.	c #2B4470",
"k.	c #0D8AC4",
"l.	c #0791CD",
"m.	c #2A4874",
"n.	c #2C284E",
"o.	c #0D0C1E",
"p.	c #564950",
"q.	c #D4AF1F",
"r.	c #EFC40C",
"s.	c #736148",
"t.	c #0E0C1F",
"u.	c #100F23",
"v.	c #344952",
"w.	c #419B3C",
"x.	c #42A239",
"y.	c #344B52",
"z.	c #0B0A1B",
"A.	c #564A4F",
"B.	c #D6B11F",
"C.	c #EEC40D",
"D.	c #715F49",
"E.	c #0A0919",
"F.	c #242041",
"G.	c #0A8EC9",
"H.	c #0D8AC5",
"I.	c #2D3B66",
"J.	c #29264A",
"K.	c #060511",
"L.	c #1F1D3B",
"M.	c #494052",
"N.	c #DCB51B",
"O.	c #E6BD15",
"P.	c #5A4C4F",
"Q.	c #080715",
"R.	c #334454",
"S.	c #41A03B",
"T.	c #419A3D",
"U.	c #333E54",
"V.	c #272347",
"W.	c #04030D",
"X.	c #1F1C39",
"Y.	c #4B4152",
"Z.	c #DDB61A",
"`.	c #E3BB15",
" +	c #594B4F",
".+	c #282449",
"++	c #05040F",
"@+	c #275280",
"#+	c #1481B8",
"$+	c #242143",
"%+	c #272346",
"&+	c #69584B",
"*+	c #D7B120",
"=+	c #4A4052",
"-+	c #010104",
";+	c #44AE36",
">+	c #323655",
",+	c #221F3F",
"'+	c #67574B",
")+	c #F8CB03",
"!+	c #D3AE20",
"~+	c #483F52",
"{+	c #2B274C",
"]+	c #226395",
"^+	c #009CD9",
"/+	c #1B72A7",
"(+	c #302E58",
"_+	c #2F2B55",
":+	c #867044",
"<+	c #FBCE02",
"[+	c #FDCF00",
"}+	c #C09F2B",
"|+	c #1B1934",
"1+	c #020205",
"2+	c #030209",
"3+	c #2B274F",
"4+	c #396B4A",
"5+	c #3B7C46",
"6+	c #312E56",
"7+	c #836D40",
"8+	c #BD9C2D",
"9+	c #363155",
"0+	c #1F6EA1",
"a+	c #1086BF",
"b+	c #167BB3",
"c+	c #0595D1",
"d+	c #0B8DC7",
"e+	c #30325C",
"f+	c #987E3F",
"g+	c #DCB51A",
"h+	c #BE9D2C",
"i+	c #EDC30E",
"j+	c #FBCF00",
"k+	c #EBC211",
"l+	c #483E54",
"m+	c #221F3E",
"n+	c #2E2B54",
"o+	c #262245",
"p+	c #0F0D1F",
"q+	c #000002",
"r+	c #070612",
"s+	c #3B7846",
"t+	c #3F943E",
"u+	c #3E8B42",
"v+	c #43A738",
"w+	c #419F3B",
"x+	c #323256",
"y+	c #302C57",
"z+	c #967D39",
"A+	c #FDD000",
"B+	c #DAB31C",
"C+	c #C09E2C",
"D+	c #EEC30E",
"E+	c #EBC110",
"F+	c #413952",
"G+	c #191630",
"H+	c #090818",
"I+	c #2F2C55",
"J+	c #1779B0",
"K+	c #255585",
"L+	c #312F58",
"M+	c #2C416D",
"N+	c #167AB0",
"O+	c #0F87C1",
"P+	c #31305A",
"Q+	c #AE9032",
"R+	c #8F783C",
"S+	c #332E56",
"T+	c #554850",
"U+	c #B3942F",
"V+	c #E4BB18",
"W+	c #3F3755",
"X+	c #302C55",
"Y+	c #482C52",
"Z+	c #872941",
"`+	c #512C50",
" @	c #2F2B53",
".@	c #1F1C3B",
"+@	c #020106",
"@@	c #2F2C53",
"#@	c #3E8A41",
"$@	c #44AD36",
"%@	c #312F56",
"&@	c #344653",
"*@	c #3E8842",
"=@	c #40963D",
"-@	c #322D57",
";@	c #B5962F",
">@	c #907842",
",@	c #332F56",
"'@	c #574A50",
")@	c #B6962D",
"!@	c #DFB816",
"~@	c #393354",
"{@	c #141229",
"]@	c #131127",
"^@	c #1182BB",
"/@	c #0299D7",
"(@	c #294775",
"_@	c #282549",
":@	c #275583",
"<@	c #187CB3",
"[@	c #312E58",
"}@	c #BF9E28",
"|@	c #FACD01",
"1@	c #766344",
"2@	c #6D5C4B",
"3@	c #F9CC04",
"4@	c #D4AE24",
"5@	c #353056",
"6@	c #3E2C54",
"7@	c #C82525",
"8@	c #E52311",
"9@	c #D7241C",
"0@	c #802A41",
"a@	c #2F2A52",
"b@	c #0F0D21",
"c@	c #302E54",
"d@	c #40973E",
"e@	c #43AB36",
"f@	c #344D52",
"g@	c #375B4E",
"h@	c #3D8343",
"i@	c #CBA729",
"j@	c #FACD03",
"k@	c #796548",
"l@	c #29254B",
"m@	c #695948",
"n@	c #F8CC03",
"o@	c #C8A523",
"p@	c #312D55",
"q@	c #16142C",
"r@	c #2F315C",
"s@	c #0B8BC5",
"t@	c #0496D2",
"u@	c #2D3965",
"v@	c #211E3D",
"w@	c #294B78",
"x@	c #019BD9",
"y@	c #1C73A7",
"z@	c #D2AD1D",
"A@	c #F5C904",
"B@	c #5B4D4E",
"C@	c #242142",
"D@	c #5D4F4F",
"E@	c #F7CB07",
"F@	c #C3A12B",
"G@	c #322E57",
"H@	c #392D55",
"I@	c #D02521",
"J@	c #E62310",
"K@	c #B8262D",
"L@	c #302B52",
"M@	c #090816",
"N@	c #15122A",
"O@	c #323555",
"P@	c #43A838",
"Q@	c #333E55",
"R@	c #355151",
"S@	c #3B7747",
"T@	c #312C57",
"U@	c #DAB31F",
"V@	c #5D4F4E",
"W@	c #1F1B39",
"X@	c #201E3D",
"Y@	c #F6CA04",
"Z@	c #B9992C",
"`@	c #1E1B38",
" #	c #2E3660",
".#	c #0693CF",
"+#	c #088EC9",
"@#	c #2F345E",
"##	c #1A1731",
"$#	c #2A4875",
"%#	c #019BD8",
"&#	c #225F90",
"*#	c #E5BC14",
"=#	c #ECC20D",
"-#	c #4C4152",
";#	c #1D1B37",
">#	c #201D3B",
",#	c #584B4F",
"'#	c #F6CA08",
")#	c #A18635",
"!#	c #352D56",
"~#	c #C42527",
"{#	c #E12313",
"]#	c #8D293E",
"^#	c #1B1833",
"/#	c #323C55",
"(#	c #42A13B",
"_#	c #15132B",
":#	c #232040",
"<#	c #354E52",
"[#	c #38654C",
"}#	c #413955",
"|#	c #E7BE15",
"1#	c #EEC40F",
"2#	c #494051",
"3#	c #191731",
"4#	c #F4C805",
"5#	c #A1863B",
"6#	c #2B284F",
"7#	c #211F3E",
"8#	c #2C3F6B",
"9#	c #0F86BF",
"0#	c #201D3C",
"a#	c #2B426F",
"b#	c #0298D6",
"c#	c #009BD9",
"d#	c #255383",
"e#	c #493F51",
"f#	c #EFC40E",
"g#	c #E2BA18",
"h#	c #3D3655",
"i#	c #181630",
"j#	c #4F4450",
"k#	c #F1C60C",
"l#	c #8C753C",
"m#	c #2D2952",
"n#	c #572C4F",
"o#	c #AB2731",
"p#	c #8B293F",
"q#	c #342C54",
"r#	c #1E1C39",
"s#	c #334753",
"t#	c #43AA37",
"u#	c #201D3D",
"v#	c #344953",
"w#	c #4E4352",
"x#	c #EEC30D",
"y#	c #E2BA17",
"z#	c #1C1936",
"A#	c #504551",
"B#	c #EFC509",
"C#	c #907742",
"D#	c #284B79",
"E#	c #1480B7",
"F#	c #2C3D69",
"G#	c #0497D3",
"H#	c #0299D6",
"I#	c #2B436F",
"J#	c #5E504D",
"K#	c #F7CB06",
"L#	c #D8B21F",
"M#	c #3A3355",
"N#	c #473E51",
"O#	c #EDC210",
"P#	c #F9CC02",
"Q#	c #6F5D48",
"R#	c #110F24",
"S#	c #322C55",
"T#	c #312C55",
"U#	c #252144",
"V#	c #355451",
"W#	c #43AD36",
"X#	c #3E8C41",
"Y#	c #302E55",
"Z#	c #1C1A36",
"`#	c #334453",
" $	c #43A837",
".$	c #5F514E",
"+$	c #EAC10E",
"@$	c #FACE03",
"#$	c #255786",
"$$	c #0497D4",
"%$	c #235E8E",
"&$	c #312F59",
"*$	c #2E3964",
"=$	c #1876AC",
"-$	c #0495D2",
";$	c #F6CA05",
">$	c #9B803A",
",$	c #373255",
"'$	c #443B53",
")$	c #F9CD03",
"!$	c #F5C905",
"~$	c #5F504E",
"{$	c #030208",
"]$	c #18152F",
"^$	c #2A264C",
"/$	c #375F4E",
"($	c #38644C",
"_$	c #323C54",
":$	c #3D8543",
"<$	c #333F54",
"[$	c #F5CA06",
"}$	c #987E3C",
"|$	c #463C53",
"1$	c #B19332",
"2$	c #F9CD02",
"3$	c #5D4F4D",
"4$	c #21689A",
"5$	c #1777AD",
"6$	c #0D8BC5",
"7$	c #098EC9",
"8$	c #30345E",
"9$	c #8F7642",
"0$	c #C09F2A",
"a$	c #4B4153",
"b$	c #04030B",
"c$	c #3A7048",
"d$	c #43AB37",
"e$	c #3D8344",
"f$	c #419C3C",
"g$	c #41A13A",
"h$	c #323455",
"i$	c #8B743D",
"j$	c #F8CB04",
"k$	c #BF9D2B",
"l$	c #D9B31E",
"m$	c #EDC30F",
"n$	c #453D51",
"o$	c #1A1732",
"p$	c #1F6C9F",
"q$	c #0E88C2",
"r$	c #957C40",
"s$	c #E5BC16",
"t$	c #3B7547",
"u$	c #40983D",
"v$	c #937A3A",
"w$	c #E2BA15",
"x$	c #2E3A65",
"y$	c #1283BB",
"z$	c #167EB5",
"A$	c #302D56",
"B$	c #443C53",
"C$	c #C5A328",
"D$	c #D6B023",
"E$	c #363055",
"F$	c #100E22",
"G$	c #3D8642",
"H$	c #453C52",
"I$	c #C9A526",
"J$	c #CCA821",
"K$	c #322E55",
"L$	c #1184BD",
"M$	c #1C74A9",
"N$	c #463D52",
"O$	c #C8A526",
"P$	c #C6A42A",
"Q$	c #312C53",
"R$	c #40953E",
"S$	c #3B7946",
"T$	c #2E2951",
"U$	c #473E52",
"V$	c #CBA725",
"W$	c #BB9B2B",
"X$	c #090817",
"Y$	c #2D3C67",
"Z$	c #216294",
"`$	c #272447",
" %	c #483E52",
".%	c #CAA725",
"+%	c #A68A34",
"@%	c #2E2A51",
"#%	c #362C55",
"$%	c #8F293E",
"%%	c #99283A",
"&%	c #472C52",
"*%	c #05040E",
"=%	c #334054",
"-%	c #40963E",
";%	c #38684C",
">%	c #020208",
",%	c #493F52",
"'%	c #CEA924",
")%	c #A48839",
"!%	c #0A0918",
"~%	c #2D3D68",
"{%	c #0F87C0",
"]%	c #0398D5",
"^%	c #265281",
"/%	c #CDA923",
"(%	c #F6CB07",
"_%	c #88723E",
":%	c #382C55",
"<%	c #A62735",
"[%	c #E32312",
"}%	c #A22835",
"|%	c #334253",
"1%	c #365850",
"2%	c #D0AB23",
"3%	c #FCCE01",
"4%	c #F5CA07",
"5%	c #8B7343",
"6%	c #0F85BE",
"7%	c #216799",
"8%	c #302E59",
"9%	c #4C4151",
"0%	c #CFAB23",
"a%	c #F6CA07",
"b%	c #D7B11C",
"c%	c #65554B",
"d%	c #1A1833",
"e%	c #492C52",
"f%	c #DC2419",
"g%	c #B9262D",
"h%	c #312B53",
"i%	c #344353",
"j%	c #40993D",
"k%	c #3F933E",
"l%	c #39714A",
"m%	c #344852",
"n%	c #211D3C",
"o%	c #4D4251",
"p%	c #D2AD22",
"q%	c #D6B01C",
"r%	c #64554B",
"s%	c #0C0A1B",
"t%	c #0E89C3",
"u%	c #0397D5",
"v%	c #1085BE",
"w%	c #30305A",
"x%	c #4E4351",
"y%	c #D1AD21",
"z%	c #A58839",
"A%	c #3D2C54",
"B%	c #C52525",
"C%	c #E22314",
"D%	c #E12314",
"E%	c #98293B",
"F%	c #312C54",
"G%	c #344553",
"H%	c #409A3C",
"I%	c #3A714A",
"J%	c #313056",
"K%	c #2D2950",
"L%	c #4F4451",
"M%	c #D4AF21",
"N%	c #D5B01D",
"O%	c #63544B",
"P%	c #232042",
"Q%	c #16142B",
"R%	c #2C406C",
"S%	c #226495",
"T%	c #2B4370",
"U%	c #9C813D",
"V%	c #121025",
"W%	c #302B54",
"X%	c #5F2B4C",
"Y%	c #692B4A",
"Z%	c #342C55",
"`%	c #232142",
" &	c #396D4B",
".&	c #344752",
"+&	c #504450",
"@&	c #9A803D",
"#&	c #61534B",
"$&	c #383255",
"%&	c #16132B",
"&&	c #0E0C1E",
"*&	c #191631",
"=&	c #1B1935",
"-&	c #1A1832",
";&	c #080714",
">&	c #05050F",
". . . . . + @ # $ % & * = - ; . . . . . . . . > , # ' % ) * ! ~ { . . . . . . . . . . . . . . . . . . ] ^ $ % / ( * _ : < . . . . . . . . [ } | 1 ) 2 = 3 4 [ . . . . . . . . . . . . . . . . . . . . . ",
". . . . 5 3 6 7 8 9 0 a b c : d . . . . . . e f g h i j k l m n - o . . . . . . . . . . . . . . . . p q r s t u v w x y z A . . . . . . B ~ C D i E k l m F G H . . . . . . . . . . . . . . . . . . . . ",
". . . I J K L M N N N O P Q R S T . . . . U V W X Y Z Z ` `  ...+.@.A . . . . . . . . . . . . . . #._ $.%.&.*.*.*.*.=.-.| ;.. . . . . >.,.'.).Y Z Z ` `  .!.~.{.. . . . . . . . . . . . . . . . . . . . ",
". . ].& ^./.N N N N N N N (._.:.<.. . . [.! }.|.1.Z Z Z Z Z Z 2.3.4.;.T . . . . . . . . . . . . 5.( 6.7.*.*.*.*.*.*.*.8.9.0.5.. . . a.b.c.d.e.Z Z Z Z Z Z f.g.1 h.. . . . . . . . . . . . . . . . . . . ",
". i./ j.k.N N N N N N N N N l.m.n.#.. o.& p.q.` Z Z Z Z Z Z Z Z r.s.0.t.. . . . . . . . . . . u./ v.w.*.*.*.*.*.*.*.*.*.x.y.* U . z.* A.B.Z Z Z Z Z Z Z Z Z C.D.n.E.. . . . . . . . . . . . . . . . . . ",
"T F.^.G.N N N N N N N N N N N H.I.J.K.L.M.N.Z Z Z Z Z Z Z Z Z Z Z O.P.* Q.. . . . . . . . . . ~ R.S.*.*.*.*.*.*.*.*.*.*.*.T.U.V.W.X.Y.Z.Z Z Z Z Z Z Z Z Z Z Z `. +.+++. . . . . . . . . . . . . . . . . ",
"d b.@+O N N N N N N N N N N N N #+6 $+%+&+ .Z Z Z Z Z Z Z Z Z Z Z Z *+=+%+] . . . . . . . . -+b.9.;+*.*.*.*.*.*.*.*.*.*.*.*.%.>+,+$+'+)+Z Z Z Z Z Z Z Z Z Z Z Z !+~+~ [ . . . . . . . . . . . . . . . . ",
"; {+]+N N N N N N N N N N N N N ^+/+(+_+:+<+Z Z Z Z Z [+Z Z Z Z Z Z Z }+n |+d #.1+. . . . . 2+3+4+*.*.*.*.*.*.*.*.*.*.*.*.*.&.5+6+% 7+1.Z Z Z Z Z [+Z Z Z Z Z Z e.8+9+S . . . . . . . . . . . . . . . . ",
"K.:.0+N N N N N a+b+c+N N N N N N d+e+# f+` Z Z Z Z g+h+i+j+Z Z Z Z Z k+l+m+~ n+o+p+q+. . . r+1 s+*.*.*.*.*.t+u+v+*.*.*.*.*.*.w+x+y+z+A+Z Z Z Z B+C+D+Z Z Z Z Z Z E+F+G+. . . . . . . . . . . . . . . . ",
"H+I+J+N N N N N K+L+M+N+N N N N N O+P+# Q+Z Z Z Z A+R+S+T+U+1.Z Z Z Z V+W+X+Y+Z+`+ @.@+@. . a.@@#@*.*.*.*.$@9.%@&@*@*.*.*.*.*.=@%@-@;@A+Z Z Z 1.>@,@'@)@Z Z Z Z Z !@~@{@. . . . . . . . . . . . . . . . ",
"]@# ^@N N N N /@(@_@& :@M N N N N <@[@# }@Z Z Z Z |@1@! = 2@3@Z Z Z Z 4@5@6@7@8@9@0@a@>.. . b@c@d@*.*.*.*.e@f@V.& g@&.*.*.*.*.h@# S+i@Z Z Z Z j@k@3 l@m@n@Z Z Z Z o@p@5.. . . . . . . . . . . . . . . . ",
"q@r@s@N N N N t@u@v@3 w@x@N N N N y@# 5@z@Z Z Z Z A@B@C@C@D@E@Z Z Z [+F@G@H@I@J@J@K@L@M@. . N@O@S.*.*.*.*.P@Q@G q R@$@*.*.*.*.S@T@n U@Z Z Z Z E@V@W@X@B@Y@Z Z Z Z Z@:.>.. . . . . . . . . . . . . . . . ",
"`@ #.#N N N N +#@###$+$#%#N N N N &## g *#Z Z Z Z =#-#;#>#,#'#Z Z Z A+)## !#~#J@{#]# @E.. . ^#/#v+*.*.*.*.(#O@_#:#<#=.*.*.*.&.[#' }#|#Z Z Z Z 1#2#3#`@'@4#Z Z Z Z 5#6#{ . . . . . . . . . . . . . . . . ",
"7#8#(.N N N N 9#L+;.0#a#b#N N N c#d## e#f#Z Z Z Z g#h#i#|+j#k#Z Z Z Z l#m# @n#o#p#q#r#-+. . - s#t#*.*.*.*.d@c@b@u#v#t#*.*.*.$@9.' w#x#Z Z Z Z y#F <.z#A#B#Z Z Z e.C#.+A . . . . . . . . . . . . . . . . ",
"V.D#%#N N N N E#[@>#_@F#G#N N N H#I## J#K#Z Z Z Z L#M#m+,.N#O#Z Z Z P#Q#_@R#V S#T#G -+. . T U#V#W#*.*.*.*.X#Y#Z#3 `# $*.*.*.e@v.' .$A@Z Z Z Z z@9+G $+=++$Z Z Z @$D.C@T . . . . . . . . . . . . . . . . ",
"* #$O N N N N $$%$&$*$=$x@N N N -$I.# D.@$Z Z Z Z ;$>$,$'$Q+)$Z Z Z !$~$~ T {$q@]$d . . . 1+^$/$&.*.*.*.*.8.($6+_$:$&.*.*.*.P@<$_+Q#P#Z Z Z Z [$}$9+|$1$2$Z Z Z K#3$r#. . . . . . . . . . . . . . . . . ",
"0.4$N N N N N N H#5$6$N N N N N 7$8$# 9$e.Z Z Z Z Z n@0$L#1.Z Z Z Z i+a$: . . . . . . . . b$& c$*.*.*.*.*.*.d$e$f$*.*.*.*.*.g$h$' i$Z Z Z Z Z Z j$k$l$1.Z Z Z Z m$n$o$. . . . . . . . . . . . . . . . . ",
"$ p$N N N N N N N N N N N N N N q$P+# r$1.Z Z Z Z Z Z [+Z Z Z Z Z Z s$W {.. . . . . . . . Q.:.t$*.*.*.*.*.*.*.*.*.*.*.*.*.*.u$%@I+v$` Z Z Z Z Z Z [+Z Z Z Z Z Z w$~@]@. . . . . . . . . . . . . . . . . ",
"_ x$y$N N N N N N N N N N N N N z$A$J.B$C$1.Z Z Z Z Z Z Z Z Z Z Z Z D$E$F$. d ]@[.d . . . b$.+U.t+*.*.*.*.*.*.*.*.*.*.*.*.*.G$X+3 H$I$1.Z Z Z Z Z Z Z Z Z Z Z Z J$K$5.. . . . . . . . . . . . . . . . . ",
"5 b.I.L$N N N N N N N N N N N N M$1 I V.N$O$e.Z Z Z Z Z Z Z Z Z Z [+P$Q$E.{$4 4. @C@[.T . . Q.J.<$R$*.*.*.*.*.*.*.*.*.*.*.*.S$T$E.o+U$V$Z Z Z Z Z Z Z Z Z Z Z Z W$:.>.. . . . . . . . . . . . . . . . . ",
". X$_ Y$a+N N N N N N N N N N N Z$n.{$K.`$ %.%e.Z Z Z Z Z Z Z Z Z A++%@%a.C@#%$%%%&%& *%. . . 5 _ =%-%*.*.*.*.*.*.*.*.*.*.&.;%n.>%++q ,%'%Z Z Z Z Z Z Z Z Z Z Z )%) > . . . . . . . . . . . . . . . . . ",
". . !%! ~%{%N N N N N N N N N ]%^%_ ; . r+3 =+/%` Z Z Z Z Z Z Z ` (%_%2 G :%<%[%J@}%a@>.. . . . X$J |%u$*.*.*.*.*.*.*.*.*.8.1%V.H . e `$Y.2%Z Z Z Z Z Z Z Z 3%4%5%_@H . . . . . . . . . . . . . . . . . ",
". . . #.* ^.q$N N N N N ]%6%7%j.8%:#A . . p _@9%0%` Z Z Z ` a%b%)%c%9+o+d%e%f%J@J@g%h%a.. . . . . a.^$i%j%*.*.*.*.*.t#k%l%m%%@n%. . . K.3 o%p%Z Z Z Z ` a%q%)%r%E$:#T . . . . . . . . . . . . . . . . . ",
". . . . s%* 8#t%N u%v%7%j.w%1 o+G+e . . . . Q.b.x%y%` f.q%z%r%~@:.q 3#>.{.A%B%C%D%E%F%5.. . . . . . E.* G%H%*.8.7.I%m%J%K%C@q@B . . . . >._@L%M%` 4%N%)%O%F K%P%Q%] . . . . . . . . . . . . . . . . . . ",
". . . . . [.2 R%S%T%w%1 o+i#Q.H . . . . . . . U _ L%U%O%~@:.,.3#M@d . . V%W%A%X%Y%Z%`%b$. . . . . . . #.* G% &.&J%K%~ q@K.T . . . . . . . >._@+&@&#&$&K%~ %&e T . . . . . . . . . . . . . . . . . . . . ",
". . . . . . &&K%% ,.S p H . . . . . . . . . . . H+* _+V.*&5 d . . . . . d F$=&f * -&< . . . . . . . . . I & :.C@_#+ q+. . . . . . . . . . . ;&J :.C@_#>&q+. . . . . . . . . . . . . . . . . . . . . . . "};
