/* XPM */
static char * C:\Users\joaoc\Downloads\MINIX_LCOM\MINIX_LCOM\shared\proj\screens\XPM\Time\time_5_XPM[] = {
"102 26 732 2",
"  	c None",
". 	c #000000",
"+ 	c #080715",
"@ 	c #262345",
"# 	c #312D56",
"$ 	c #2F2B54",
"% 	c #2C284F",
"& 	c #2B274D",
"* 	c #2A274C",
"= 	c #1F1C3A",
"- 	c #030208",
"; 	c #080614",
"> 	c #262245",
", 	c #302C56",
"' 	c #2E2B53",
") 	c #1E1C3A",
"! 	c #000001",
"~ 	c #0E0C1F",
"{ 	c #2A264C",
"] 	c #2F2B53",
"^ 	c #2D2950",
"/ 	c #2B274E",
"( 	c #2B274C",
"_ 	c #282448",
": 	c #16132C",
"< 	c #010102",
"[ 	c #05040F",
"} 	c #15132A",
"| 	c #17152E",
"1 	c #191631",
"2 	c #1B1833",
"3 	c #1D1A37",
"4 	c #211E3D",
"5 	c #211E3E",
"6 	c #221E3E",
"7 	c #221F40",
"8 	c #242142",
"9 	c #252244",
"0 	c #272346",
"a 	c #282549",
"b 	c #2B284E",
"c 	c #1E1C39",
"d 	c #010104",
"e 	c #0B0A1B",
"f 	c #282449",
"g 	c #2E3963",
"h 	c #206799",
"i 	c #206DA0",
"j 	c #206A9D",
"k 	c #226596",
"l 	c #245D8D",
"m 	c #284C7A",
"n 	c #2F2F58",
"o 	c #1C1936",
"p 	c #0B091A",
"q 	c #272448",
"r 	c #4A4052",
"s 	c #9F843B",
"t 	c #AA8D3A",
"u 	c #A5883B",
"v 	c #9B813D",
"w 	c #8D7541",
"x 	c #6F5E48",
"y 	c #373153",
"z 	c #1C1935",
"A 	c #111024",
"B 	c #344952",
"C 	c #3A7848",
"D 	c #3A7849",
"E 	c #3A744A",
"F 	c #396D4B",
"G 	c #37624D",
"H 	c #344A52",
"I 	c #2D2A50",
"J 	c #121025",
"K 	c #18152E",
"L 	c #312D54",
"M 	c #3F3753",
"N 	c #423A53",
"O 	c #433A52",
"P 	c #493F51",
"Q 	c #52464E",
"R 	c #5A4D4C",
"S 	c #61524A",
"T 	c #675749",
"U 	c #6B5A49",
"V 	c #6F5D48",
"W 	c #705F48",
"X 	c #756246",
"Y 	c #816C44",
"Z 	c #8B7441",
"` 	c #947B3F",
" .	c #987E3E",
"..	c #4A4051",
"+.	c #221F3E",
"@.	c #0F0D20",
"#.	c #29264B",
"$.	c #2D3D68",
"%.	c #167EB6",
"&.	c #019BD9",
"*.	c #009CDA",
"=.	c #019CDA",
"-.	c #0497D4",
";.	c #236090",
">.	c #2E2C55",
",.	c #16142C",
"'.	c #524750",
").	c #C8A629",
"!.	c #FACE02",
"~.	c #FCCF00",
"{.	c #FCCF01",
"].	c #F3C80B",
"^.	c #937A40",
"/.	c #322D52",
"(.	c #355251",
"_.	c #409B3C",
":.	c #44AF35",
"<.	c #41A03A",
"[.	c #355350",
"}.	c #0C0A1B",
"|.	c #18162F",
"1.	c #50444F",
"2.	c #D3AE1F",
"3.	c #EDC20E",
"4.	c #EDC30D",
"5.	c #EFC50C",
"6.	c #F2C709",
"7.	c #F5C907",
"8.	c #F7CB05",
"9.	c #F8CC04",
"0.	c #FACD03",
"a.	c #FBCE03",
"b.	c #FBCF03",
"c.	c #FBCF02",
"d.	c #E3BB19",
"e.	c #55484F",
"f.	c #1A1732",
"g.	c #131026",
"h.	c #2B436F",
"i.	c #1384BC",
"j.	c #0793CF",
"k.	c #275382",
"l.	c #2C2950",
"m.	c #110F24",
"n.	c #2C284E",
"o.	c #5F514D",
"p.	c #D2AD24",
"q.	c #FBCE01",
"r.	c #ECC211",
"s.	c #7D6947",
"t.	c #2D294F",
"u.	c #110F23",
"v.	c #010103",
"w.	c #2E2B51",
"x.	c #365B4F",
"y.	c #419F3B",
"z.	c #40993D",
"A.	c #334653",
"B.	c #070613",
"C.	c #17152F",
"D.	c #504450",
"E.	c #DFB71B",
"F.	c #CCA827",
"G.	c #3D3651",
"H.	c #131128",
"I.	c #2A4976",
"J.	c #0E8AC3",
"K.	c #0C8CC6",
"L.	c #2B4774",
"M.	c #0B0919",
"N.	c #131127",
"O.	c #6A5A4C",
"P.	c #DCB51D",
"Q.	c #FBCF01",
"R.	c #E0B81A",
"S.	c #67574C",
"T.	c #29264A",
"U.	c #0A0919",
"V.	c #2F2D53",
"W.	c #38634D",
"X.	c #42A439",
"Y.	c #44AE35",
"Z.	c #3E8D41",
"`.	c #323C54",
" +	c #221F3F",
".+	c #4B4051",
"++	c #DAB31E",
"@+	c #B29337",
"#+	c #2F2A4E",
"$+	c #080716",
"%+	c #020206",
"&+	c #242041",
"*+	c #2B4571",
"=+	c #0C8DC7",
"-+	c #1284BD",
";+	c #2D3C67",
">+	c #262346",
",+	c #232041",
"'+	c #62534D",
")+	c #E1B91A",
"!+	c #D3AD24",
"~+	c #524651",
"{+	c #060510",
"]+	c #37624E",
"^+	c #42A738",
"/+	c #44AD36",
"(+	c #3C8046",
"_+	c #303354",
":+	c #453B52",
"<+	c #D4AF22",
"[+	c #F8CC05",
"}+	c #8E7642",
"|+	c #272447",
"1+	c #03030A",
"2+	c #04030C",
"3+	c #265988",
"4+	c #0299D7",
"5+	c #187AB0",
"6+	c #2E3560",
"7+	c #29254A",
"8+	c #867044",
"9+	c #F7CB06",
"0+	c #C19F2E",
"a+	c #443B52",
"b+	c #030309",
"c+	c #0A0918",
"d+	c #2D2B4F",
"e+	c #3B7E47",
"f+	c #43AB36",
"g+	c #3A7249",
"h+	c #313056",
"i+	c #413855",
"j+	c #D0AB25",
"k+	c #D5AF22",
"l+	c #CFAA26",
"m+	c #C7A42A",
"n+	c #61524C",
"o+	c #201D3C",
"p+	c #050510",
"q+	c #29274C",
"r+	c #21679A",
"s+	c #019AD8",
"t+	c #029AD7",
"u+	c #1F6C9F",
"v+	c #2F2F59",
"w+	c #312D55",
"x+	c #A0853D",
"y+	c #F9CD02",
"z+	c #A88B39",
"A+	c #363053",
"B+	c #030209",
"C+	c #090817",
"D+	c #0E0C1E",
"E+	c #2F3051",
"F+	c #3E8A42",
"G+	c #43A738",
"H+	c #375F4E",
"I+	c #403855",
"J+	c #CFAB26",
"K+	c #463D54",
"L+	c #342F55",
"M+	c #342F54",
"N+	c #342E54",
"O+	c #342E53",
"P+	c #332E53",
"Q+	c #2E2B52",
"R+	c #2C2A52",
"S+	c #1F70A4",
"T+	c #009BD9",
"U+	c #1184BD",
"V+	c #157EB6",
"W+	c #0595D1",
"X+	c #1284BC",
"Y+	c #30355F",
"Z+	c #332F57",
"`+	c #B19238",
" @	c #D2AD21",
".@	c #C7A528",
"+@	c #F0C50C",
"@@	c #D2AD23",
"#@	c #433A53",
"$@	c #2D2A52",
"%@	c #141229",
"&@	c #303453",
"*@	c #3F9240",
"=@	c #43AC36",
"-@	c #40953F",
";@	c #43AA37",
">@	c #3B7F47",
",@	c #3F3955",
"'@	c #CDA927",
")@	c #4D4252",
"!@	c #2E2A53",
"~@	c #2D2952",
"{@	c #2D2951",
"]@	c #252143",
"^@	c #0C0A1C",
"/@	c #020105",
"(@	c #2D2E56",
"_@	c #187AB1",
":@	c #0399D6",
"<@	c #265786",
"[@	c #303059",
"}@	c #2B4471",
"|@	c #157EB5",
"1@	c #167EB5",
"2@	c #30325C",
"3@	c #393355",
"4@	c #C19F2D",
"5@	c #F7CB07",
"6@	c #836D45",
"7@	c #363156",
"8@	c #61524D",
"9@	c #C7A428",
"0@	c #C8A52A",
"a@	c #3C3555",
"b@	c #322C55",
"c@	c #592B4F",
"d@	c #802A43",
"e@	c #492C52",
"f@	c #191731",
"g@	c #18152F",
"h@	c #323E53",
"i@	c #42A33A",
"j@	c #344653",
"k@	c #313356",
"l@	c #365650",
"m@	c #419B3C",
"n@	c #44AE36",
"o@	c #3A7549",
"p@	c #3D3655",
"q@	c #C9A628",
"r@	c #F2C70A",
"s@	c #A38738",
"t@	c #8C7441",
"u@	c #856E44",
"v@	c #4F4451",
"w@	c #16132B",
"x@	c #2E325C",
"y@	c #1482BA",
"z@	c #0596D2",
"A@	c #294C79",
"B@	c #245F8F",
"C@	c #009CD9",
"D@	c #1D73A7",
"E@	c #302F59",
"F@	c #CEAA26",
"G@	c #F1C60E",
"H@	c #6F5D49",
"I@	c #2C294F",
"J@	c #917941",
"K@	c #B59535",
"L@	c #343056",
"M@	c #5D2B4E",
"N@	c #D12520",
"O@	c #E42312",
"P@	c #CB2523",
"Q@	c #6D2B4A",
"R@	c #292549",
"S@	c #04040D",
"T@	c #1D1A36",
"U@	c #334552",
"V@	c #42A23A",
"W@	c #409A3D",
"X@	c #323D53",
"Y@	c #242143",
"Z@	c #2F2E53",
"`@	c #3C8445",
" #	c #3A3455",
".#	c #C3A12C",
"+#	c #FACD02",
"@#	c #E2B919",
"##	c #90773F",
"$#	c #413953",
"%#	c #29254B",
"&#	c #020207",
"*#	c #2D3963",
"=#	c #0E89C3",
"-#	c #0991CD",
";#	c #2C406C",
">#	c #216B9D",
",#	c #312D58",
"'#	c #4D4253",
")#	c #DBB41D",
"!#	c #E9BF16",
"~#	c #5B4D4F",
"{#	c #A68A3B",
"]#	c #322E57",
"^#	c #5A2C50",
"/#	c #D8241D",
"(#	c #E62310",
"_#	c #E42311",
":#	c #9A293E",
"<#	c #2B264B",
"[#	c #05050F",
"}#	c #355050",
"|#	c #3F9141",
"1#	c #2C2A4E",
"2#	c #3B7D47",
"3#	c #365950",
"4#	c #322D57",
"5#	c #8D7542",
"6#	c #F5C908",
"7#	c #D2AD22",
"8#	c #786447",
"9#	c #0E0C20",
"0#	c #2C3F6A",
"a#	c #0A90CC",
"b#	c #262244",
"c#	c #275483",
"d#	c #0398D6",
"e#	c #255B8B",
"f#	c #312D57",
"g#	c #594C50",
"h#	c #E8BE16",
"i#	c #4D4151",
"j#	c #1A1731",
"k#	c #7E6946",
"l#	c #F6CA08",
"m#	c #8B7343",
"n#	c #512C51",
"o#	c #D02521",
"p#	c #D8241B",
"q#	c #762A47",
"r#	c #2A274B",
"s#	c #060511",
"t#	c #375C4F",
"u#	c #43AB37",
"v#	c #3D8644",
"w#	c #2E2E51",
"x#	c #3B7A48",
"y#	c #42A539",
"z#	c #2A274D",
"A#	c #C9A629",
"B#	c #FBCF00",
"C#	c #F4C908",
"D#	c #BE9D2C",
"E#	c #5C4E4F",
"F#	c #2A4874",
"G#	c #0694D1",
"H#	c #1481B9",
"I#	c #2E325B",
"J#	c #16142B",
"K#	c #284F7D",
"L#	c #0496D3",
"M#	c #0398D5",
"N#	c #285280",
"O#	c #68574C",
"P#	c #EEC410",
"Q#	c #CDA926",
"R#	c #3E3652",
"S#	c #746147",
"T#	c #F2C70B",
"U#	c #F4C909",
"V#	c #7A6646",
"W#	c #2C2850",
"X#	c #332B54",
"Y#	c #6A2B4A",
"Z#	c #B02730",
"`#	c #782A47",
" $	c #312A52",
".$	c #38694C",
"+$	c #2B284D",
"@$	c #39734A",
"#$	c #324152",
"$$	c #272347",
"%$	c #766348",
"&$	c #EFC40F",
"*$	c #AE903A",
"=$	c #2D294E",
"-$	c #060512",
";$	c #275381",
">$	c #187BB2",
",$	c #2F305A",
"'$	c #2A4A76",
")$	c #0695D1",
"!$	c #7C6847",
"~$	c #F5CA09",
"{$	c #C2A12D",
"]$	c #3A3353",
"^$	c #201D3B",
"/$	c #6B5A4A",
"($	c #F0C50F",
"_$	c #EDC312",
":$	c #63544D",
"<$	c #332C55",
"[$	c #2F2A52",
"}$	c #17152D",
"|$	c #39704A",
"1$	c #1B1934",
"2$	c #396B4B",
"3$	c #43AD36",
"4$	c #3F953F",
"5$	c #313853",
"6$	c #373151",
"7$	c #B49534",
"8$	c #F0C60E",
"9$	c #F1C60D",
"0$	c #F2C70C",
"a$	c #B19239",
"b$	c #2E294E",
"c$	c #245C8D",
"d$	c #0694D0",
"e$	c #30305A",
"f$	c #2D3E69",
"g$	c #177AB1",
"h$	c #0B8FCA",
"i$	c #8D7642",
"j$	c #EEC40F",
"k$	c #8E7641",
"l$	c #373255",
"m$	c #554850",
"n$	c #C09F2C",
"o$	c #F9CD03",
"p$	c #E5BC18",
"q$	c #564950",
"r$	c #1B1935",
"s$	c #2D2C50",
"t$	c #3C8146",
"u$	c #419C3C",
"v$	c #312F56",
"w$	c #355051",
"x$	c #40973E",
"y$	c #3E8D42",
"z$	c #2F3252",
"A$	c #100E21",
"B$	c #231F40",
"C$	c #3C3553",
"D$	c #A88B37",
"E$	c #206B9D",
"F$	c #0497D3",
"G$	c #1779B0",
"H$	c #0D8CC6",
"I$	c #1186BF",
"J$	c #2F3761",
"K$	c #A78A3B",
"L$	c #BE9D2B",
"M$	c #D5B021",
"N$	c #463C52",
"O$	c #0F0D21",
"P$	c #2F3152",
"Q$	c #3D8443",
"R$	c #3C8246",
"S$	c #2E2C50",
"T$	c #9C813C",
"U$	c #F5CA07",
"V$	c #B19139",
"W$	c #2D294D",
"X$	c #302E58",
"Y$	c #1F6EA1",
"Z$	c #157FB7",
"`$	c #30325D",
" %	c #AD8F39",
".%	c #FDCF00",
"+%	c #CAA628",
"@%	c #3C3452",
"#%	c #303454",
"$%	c #3E8F40",
"%%	c #3B7749",
"&%	c #363155",
"*%	c #312D52",
"=%	c #262347",
"-%	c #050410",
";%	c #0F0E22",
">%	c #7A6647",
",%	c #B09139",
"'%	c #2A264B",
")%	c #2D3E6A",
"!%	c #1382BB",
"~%	c #019CD9",
"{%	c #1C75AA",
"]%	c #2E2D56",
"^%	c #56494F",
"/%	c #B89834",
"(%	c #322D51",
"_%	c #141228",
":%	c #090818",
"<%	c #2C294E",
"[%	c #355550",
"}%	c #38664D",
"|%	c #B49532",
"1%	c #B89830",
"2%	c #705E48",
"3%	c #3F3854",
"4%	c #302B52",
"5%	c #2F2B51",
"6%	c #302C53",
"7%	c #66564C",
"8%	c #DFB81C",
"9%	c #0B0A1A",
"0%	c #2C406B",
"a%	c #206C9F",
"b%	c #2B284F",
"c%	c #594C4F",
"d%	c #FACE01",
"e%	c #A98C3B",
"f%	c #312C55",
"g%	c #090716",
"h%	c #365750",
"i%	c #42A03B",
"j%	c #242042",
"k%	c #F1C70C",
"l%	c #F6CA05",
"m%	c #C2A02D",
"n%	c #C09F2E",
"o%	c #C1A02D",
"p%	c #E2BA1A",
"q%	c #AB8D3A",
"r%	c #2D284D",
"s%	c #2C426D",
"t%	c #1185BE",
"u%	c #245E8E",
"v%	c #5C4E4E",
"w%	c #907841",
"x%	c #452C53",
"y%	c #9D283A",
"z%	c #8A2940",
"A%	c #402C53",
"B%	c #36594F",
"C%	c #42A13A",
"D%	c #42A639",
"E%	c #344C51",
"F%	c #211D3C",
"G%	c #413952",
"H%	c #CAA629",
"I%	c #E7BE16",
"J%	c #0D0B1D",
"K%	c #2C436F",
"L%	c #1187C0",
"M%	c #0794D0",
"N%	c #28507F",
"O%	c #0C0B1C",
"P%	c #5F504E",
"Q%	c #D7B120",
"R%	c #776447",
"S%	c #252245",
"T%	c #4D2C51",
"U%	c #B8262E",
"V%	c #E22314",
"W%	c #882A43",
"X%	c #375B4F",
"Y%	c #419B3D",
"Z%	c #A2863B",
"`%	c #312C50",
" &	c #0F88C2",
".&	c #0496D4",
"+&	c #1183BC",
"@&	c #216596",
"#&	c #2F2E58",
"$&	c #1F1C3B",
"%&	c #0D0B1E",
"&&	c #62524D",
"*&	c #D9B31F",
"=&	c #D0AB21",
"-&	c #9C813D",
";&	c #5D4F4D",
">&	c #222041",
",&	c #6F2A49",
"'&	c #DF2417",
")&	c #9B293E",
"!&	c #000002",
"~&	c #151229",
"{&	c #2D2B51",
"]&	c #375E4E",
"^&	c #42A339",
"/&	c #3D8A42",
"(&	c #38654C",
"_&	c #333F54",
":&	c #2F2C53",
"<&	c #1A1832",
"[&	c #4D4251",
"}&	c #A0843A",
"|&	c #E2BA17",
"1&	c #D4AF23",
"2&	c #1E1B38",
"3&	c #2B4672",
"4&	c #0F89C3",
"5&	c #216597",
"6&	c #2E2A51",
"7&	c #0E0D1F",
"8&	c #65554C",
"9&	c #DBB41E",
"0&	c #FBCE02",
"a&	c #9C823C",
"b&	c #373155",
"c&	c #5C2B4E",
"d&	c #CD2521",
"e&	c #E32313",
"f&	c #D9241A",
"g&	c #802A45",
"h&	c #2D284F",
"i&	c #010002",
"j&	c #15132B",
"k&	c #37604E",
"l&	c #302E55",
"m&	c #997F3D",
"n&	c #DEB61A",
"o&	c #FCCF02",
"p&	c #FACE03",
"q&	c #F6CA06",
"r&	c #EFC40C",
"s&	c #E6BE11",
"t&	c #D6B01B",
"u&	c #C8A624",
"v&	c #BB9A2D",
"w&	c #A88B3A",
"x&	c #997E3F",
"y&	c #64544C",
"z&	c #2A264A",
"A&	c #070614",
"B&	c #100E22",
"C&	c #236091",
"D&	c #2D2A51",
"E&	c #312C54",
"F&	c #432C52",
"G&	c #652B4A",
"H&	c #5D2B4D",
"I&	c #312B53",
"J&	c #1E1B39",
"K&	c #38644D",
"L&	c #333F53",
"M&	c #453C52",
"N&	c #856F43",
"O&	c #887142",
"P&	c #5F514B",
"Q&	c #3F3853",
"R&	c #121126",
"S&	c #100E23",
"T&	c #121026",
"U&	c #201E3D",
"V&	c #1C1A36",
"W&	c #04030B",
". . . . . + @ # # $ % & * = - . . . . . . . . ; > # , ' % & * ) - . . . . . . . . . . . . . . . . . ! ~ { , ] ^ / ( _ : < . . [ } | 1 2 3 = 4 5 6 7 8 9 0 a { & & b % c d . . . . . . . . . . . . . . . . . ",
". . . . e f g h i j k l m n o d . . . . . . p q r s t u v w x y z d . . . . . . . . . . . . . . . ! A & B C D E F G H I J ! . K L M N O P Q R S T U V W X Y Z ` v  ...+.d . . . . . . . . . . . . . . . . . ",
". . ! @.#.$.%.&.*.*.*.=.-.;.>.,.! . . . ! ~ #.'.).!.~.~.{.{.].^./.,.! . . . . . . . . . . . . . < } ^ (._.:.:.:.:.:.<.[.* }.. |.1.2.3.4.5.6.7.8.9.0.a.a.b.c.{.{.{.d.e.f.. . . . . . . . . . . . . . . . . . ",
". ! g.% h.i.&.*.*.*.*.*.*.j.k.l.m.. . ! J n.o.p.q.~.~.~.~.~.~.r.s.t.u.. . . . . . . . . . . . v.|.w.x.y.:.:.:.:.:.:.:.z.A.0 B.C.D.E.~.~.~.~.~.~.~.~.~.~.~.~.~.~.~.F.G.m.. . . . . . . . . . . . . . . . . . ",
"! H.^ I.J.*.*.*.*.*.*.*.*.*.K.L.#.M.! N.^ O.P.Q.~.~.~.~.~.~.~.~.R.S.T.U.. . . . . . . . . . v.2 V.W.X.:.:.:.:.:.:.:.:.Y.Z.`. +|..+++~.~.~.~.~.~.~.~.~.~.~.~.~.~.q.@+#+$+. . . . . . . . . . . . . . . . . . ",
"%+&+*+=+*.*.*.*.*.*.*.*.*.*.*.-+;+>++ ,+'+)+~.~.~.~.~.~.~.~.~.~.{.!+~+@ {+. . . . . . . . . [ T.]+^+:.:.:.:.:.:.:.:.:.:./+(+_+> :+<+~.~.~.~.~.~.~.~.~.~.~.~.~.~.[+}+|+1+. . . . . . . . . . . . . . . . . . ",
"2+a 3+4+*.*.*.*.*.*.*.*.*.*.*.&.5+6+7 7+8+9+~.~.~.~.~.~.~.~.~.~.~.!.0+a+5 b+. . . . . . . . c+d+e+Y.:.:.:.:.:.:.:.:.:.:.:.f+g+h+i+j+~.~.~.~.~.7.k+l+l+l+l+l+l+l+m+n+o+v.. . . . . . . . . . . . . . . . . . ",
"p+q+r+s+*.*.*.*.*.*.*.*.*.*.*.*.t+u+v+w+x+y+~.~.~.~.~.~.~.~.~.~.~.~.9.z+A+} B+C+d . . . . . D+E+F+:.:.:.:.:.:.:.:.:.:.:.:.:.G+H+I+J+~.~.~.~.~.p.K+L+M+M+M+M+N+O+P+Q+,.. . . . . . . . . . . . . . . . . . . ",
"p R+S+T+*.*.*.T+U+V+W+*.*.*.*.*.*.X+Y+Z+`+q.~.~.~.q. @.@+@~.~.~.~.~.~.@@#@= >+$@+.M.! . . . %@&@*@:.:.:.:.=@F+-@;@:.:.:.:.:.Y.>@,@'@~.~.~.~.~.P.)@!@~@~@~@{@]@g.^@U./@. . . . . . . . . . . . . . . . . . . ",
"~ (@_@*.*.*.*.:@<@[@}@|@T+*.*.*.*.1@2@3@4@~.~.~.~.5@6@7@8@9@q.~.~.~.~.0@a@b@c@d@e@^ f@v.. . g@h@_.:.:.:.:.i@j@k@l@m@:.:.:.:.n@o@p@q@~.~.~.~.~.r@s@t@Z Z t@u@v@% 2 [ . . . . . . . . . . . . . . . . . . . . ",
"w@x@y@*.*.*.*.z@A@_ l.B@t+*.*.*.C@D@E@I+F@~.~.~.~.G@H@q I@J@9.~.~.~.q.K@L@M@N@O@P@Q@R@S@. ! T@U@V@:.:.:.:.W@X@Y@Z@`@:.:.:.:.=@W. #.#~.~.~.~.~.~.q.q.q.q.q.+#@###$#%#} &#. . . . . . . . . . . . . . . . . . ",
"|.*#=#*.*.*.*.-#;#o+a <@:@*.*.*.&.>#,#'#)#~.~.~.~.!#~#o+_ 6@5@~.~.~.+#{#]#^#/#(#_#:#<#[#. v.5 }#G+:.:.:.:.|#&@|.1#2#Y.:.:.:.;@3#4#5#6#~.~.~.~.~.~.~.~.~.~.~.~.9.7#8#y 9 9#! . . . . . . . . . . . . . . . . ",
"c 0#a#*.*.*.*.=#*#f.b#c#d#*.*.*.t+e#f#g#h#~.~.~.~.)#i#j#9 k#l#~.~.~.[+m#f#n#o#(#p#q#r#s#. &#Y@t#u#:.:.:.:.v#w#u.* x#Y.:.:.:.y#H z#O A#B#~.~.~.~.~.~.~.~.~.~.~.~.~.C#D#E#{ p+. . . . . . . . . . . . . . . . ",
" +F#G#*.*.*.*.H#I#J# +K#L#*.*.*.M#N#f#O#P#~.~.~.~.Q#R#}  +S#T#~.~.~.U#V#W#X#Y#Z#`# $|.< . 2+a .$=@:.:.:.Y.x#+$}.T.@$/+:.:.:.y.#$z $$%$&$~.~.~.~.~.~.~.~.~.~.~.~.~.~.q.*$=$-$. . . . . . . . . . . . . . . . ",
"$$;$M#*.*.*.*.>$,$o+7+'$)$*.*.*.j.*+f#!$~$~.~.~.~.{$]$^$7+/$($~.~.~._$:$5 ,.* <$[$}$v.. . s#* D Y.:.:.:./+|$I 1$I@2$3$:.:.:.4$5$,.H.6$7$8$9$9$9$9$9$0$y+~.~.~.~.~.~.q.a$b$s#. . . . . . . . . . . . . . . . ",
"& c$t+*.*.*.*.d$l e$f$g$s+*.*.*.h$f$f#i$[+~.~.~.~.j$k$l$m$n$o$~.~.~.p$q$r$! s#f@N.< . . . p s$t$:.:.:.:.:.u$(.v$w$x$:.:.:.:.y$z$A$&#B$C$v@v@v@v@v@v@m$D$C#~.~.~.~.~.q.a$b$s#. . . . . . . . . . . . . . . . ",
"$@E$&.*.*.*.*.*.F$G$H$T+*.*.*.*.I$J$]#K$+#~.~.~.~.~.r@L$R.q.~.~.~.~.M$N$K . . . . . . . . O$P$Z.:.:.:.:.:.:.V@Q$X.:.:.:.:.:.R$S$p . N.@ c f.f@f@f@f@5 y T$U$~.~.~.~.q.V$W$s#. . . . . . . . . . . . . . . . ",
"X$Y$&.*.*.*.*.*.*.*.*.*.*.*.*.*.Z$`$Z+ %+#~.~.~.~.~.~..%~.~.~.~.~.~.+%@%J . . . . . . . . w@#%$%:.:.:.:.:.:.:.:.:.:.:.:.:.n@%%* s#2+@ &%*%=%K ; -%-%;%t.>%9$~.~.~.~.q.,%W$s#. . . . . . . . . . . . . . . . ",
"'%)%!%~%*.*.*.*.*.*.*.*.*.*.*.*.{%]%& ^%j+q.~.~.~.~.~.~.~.~.~.~.~.q./%(%^@. 1+_%:%< . . . D+<%[%y.:.:.:.:.:.:.:.:.:.:.:.:.=@}%a 2+J#G.|%1%2%3%4%5%5%6%7%8%~.~.~.~.~.q.,%W$s#. . . . . . . . . . . . . . . . ",
"9%a 0%-+*.*.*.*.*.*.*.*.*.*.*.&.a%b%m.a c%p.q.~.~.~.~.~.~.~.~.~.~.d%e%W$; B.8 f%{@^$g%. . ! J I@h%i%:.:.:.:.:.:.:.:.:.:.:.;@x.j%B._ s.k%~.l%P.m%n%n%o%p%~.~.~.~.~.~.d%q%r%{+. . . . . . . . . . . . . . . . ",
". ^@T.s%t%*.*.*.*.*.*.*.*.*.*.t+u%7+S@}.7+v%<+q.~.~.~.~.~.~.~.~.~.[+w%R@@._ x%y%z%A%9 b+. . ! N.I B%C%:.:.:.:.:.:.:.:.:.:.D%E%F%g@G%H%~.~.~.~..%.%.%.%~.~.~.~.~.~.~.I%S.]@B+. . . . . . . . . . . . . . . . ",
". . J%#.K%L%*.*.*.*.*.*.*.*.=.M%N%> B+. O%#.P%Q%Q.~.~.~.~.~.~.~.q.P#R%S%8 T%U%O@V%W%R@S@. . . ! _%I X%V@:.:.:.:.:.:.:.:.Y.Y%#$3 a k#0$~.~.~.~.~.~.~.~.~.~.~.~.~.~.9.Z%`%@.. . . . . . . . . . . . . . . . . ",
". . . ~ * *+ &*.*.*.*.*..&+&@&K%#&$&v.. . %&r#&&*&{.~.~.~.Q.r@=&-&;&M+$&>&,&'&(#_#)&<#s#. . . . !&~&{&]&^&:.:.:.:.n@y#/&(&_&:&<&b [&}&|&!.~.~.~.~.~.~.~.~.~.~.~.{.1&[&2&v.. . . . . . . . . . . . . . . . . ",
". . . . @.& 3&4&~%L#+&5&h.[@6&]@| [ . . . . 7&( 8&9&0&6.=&a&;&b&{@Y@}${+4 c&d&e&f&g&h&:%. . . . . i&j&w.k&X.n@X.F+}%_&l&& o+m.%+}.o+^ P m&n&0.o&p&q&r&s&t&u&v&w&x&y&z&A&. . . . . . . . . . . . . . . . . . ",
". . . . ! B&b *+C&h.[@D&]@K A&< . . . . . . ! O$+$'+` ;&l${@Y@}$B.< . ! z E&F&G&H&I&J&&#. . . . . . < ,.w.B%K&L&l&& o+m.1+! . . . ! C+J&I@M&N&O&2%P&P Q&l$w+] % #.>+R&! . . . . . . . . . . . . . . . . . . ",
". . . . . ! m.I@] 9 | B.< . . . . . . . . . . ! S&I@!@9 | B.< . . . . . 1+T&2&q 7+} v.. . . . . . . . < | !@% U&m.1+! . . . . . . . . ! + 3 #.#.Y@5 V&}$N.O%B.W&d < . . . . . . . . . . . . . . . . . . . . "};
